<?xml version="1.0" encoding="utf-8" standalone="no"?>
<!DOCTYPE svg PUBLIC "-//W3C//DTD SVG 1.1//EN"
  "http://www.w3.org/Graphics/SVG/1.1/DTD/svg11.dtd">
<svg xmlns:xlink="http://www.w3.org/1999/xlink" width="720pt" height="360pt" viewBox="0 0 720 360" xmlns="http://www.w3.org/2000/svg" version="1.1">
 <metadata>
  <rdf:RDF xmlns:dc="http://purl.org/dc/elements/1.1/" xmlns:cc="http://creativecommons.org/ns#" xmlns:rdf="http://www.w3.org/1999/02/22-rdf-syntax-ns#">
   <cc:Work>
    <dc:type rdf:resource="http://purl.org/dc/dcmitype/StillImage"/>
    <dc:date>2026-03-12T21:06:01.224776</dc:date>
    <dc:format>image/svg+xml</dc:format>
    <dc:creator>
     <cc:Agent>
      <dc:title>Matplotlib v3.10.0, https://matplotlib.org/</dc:title>
     </cc:Agent>
    </dc:creator>
   </cc:Work>
  </rdf:RDF>
 </metadata>
 <defs>
  <style type="text/css">*{stroke-linejoin: round; stroke-linecap: butt}</style>
 </defs>
 <g id="figure_1">
  <g id="patch_1">
   <path d="M 0 360 
L 720 360 
L 720 0 
L 0 0 
z
" style="fill: #ffffff"/>
  </g>
  <g id="axes_1">
   <g id="patch_2">
    <path d="M 70.58 306 
L 659.14 306 
L 659.14 10.8 
L 70.58 10.8 
z
" style="fill: #ffffff"/>
   </g>
   <g id="matplotlib.axis_1">
    <g id="xtick_1">
     <g id="line2d_1">
      <path d="M 97.332727 306 
L 97.332727 10.8 
" clip-path="url(#p372c60601a)" style="fill: none; stroke: #b0b0b0; stroke-opacity: 0.3; stroke-width: 0.8; stroke-linecap: square"/>
     </g>
     <g id="line2d_2">
      <defs>
       <path id="ma47162c828" d="M 0 0 
L 0 3.5 
" style="stroke: #000000; stroke-width: 0.8"/>
      </defs>
      <g>
       <use xlink:href="#ma47162c828" x="97.332727" y="306" style="stroke: #000000; stroke-width: 0.8"/>
      </g>
     </g>
     <g id="text_1">
      <!-- 0 s -->
      <g transform="translate(89.957727 320.598437) scale(0.1 -0.1)">
       <defs>
        <path id="DejaVuSans-30" d="M 2034 4250 
Q 1547 4250 1301 3770 
Q 1056 3291 1056 2328 
Q 1056 1369 1301 889 
Q 1547 409 2034 409 
Q 2525 409 2770 889 
Q 3016 1369 3016 2328 
Q 3016 3291 2770 3770 
Q 2525 4250 2034 4250 
z
M 2034 4750 
Q 2819 4750 3233 4129 
Q 3647 3509 3647 2328 
Q 3647 1150 3233 529 
Q 2819 -91 2034 -91 
Q 1250 -91 836 529 
Q 422 1150 422 2328 
Q 422 3509 836 4129 
Q 1250 4750 2034 4750 
z
" transform="scale(0.015625)"/>
        <path id="DejaVuSans-20" transform="scale(0.015625)"/>
        <path id="DejaVuSans-73" d="M 2834 3397 
L 2834 2853 
Q 2591 2978 2328 3040 
Q 2066 3103 1784 3103 
Q 1356 3103 1142 2972 
Q 928 2841 928 2578 
Q 928 2378 1081 2264 
Q 1234 2150 1697 2047 
L 1894 2003 
Q 2506 1872 2764 1633 
Q 3022 1394 3022 966 
Q 3022 478 2636 193 
Q 2250 -91 1575 -91 
Q 1294 -91 989 -36 
Q 684 19 347 128 
L 347 722 
Q 666 556 975 473 
Q 1284 391 1588 391 
Q 1994 391 2212 530 
Q 2431 669 2431 922 
Q 2431 1156 2273 1281 
Q 2116 1406 1581 1522 
L 1381 1569 
Q 847 1681 609 1914 
Q 372 2147 372 2553 
Q 372 3047 722 3315 
Q 1072 3584 1716 3584 
Q 2034 3584 2315 3537 
Q 2597 3491 2834 3397 
z
" transform="scale(0.015625)"/>
       </defs>
       <use xlink:href="#DejaVuSans-30"/>
       <use xlink:href="#DejaVuSans-20" transform="translate(63.623047 0)"/>
       <use xlink:href="#DejaVuSans-73" transform="translate(95.410156 0)"/>
      </g>
     </g>
    </g>
    <g id="xtick_2">
     <g id="line2d_3">
      <path d="M 164.214545 306 
L 164.214545 10.8 
" clip-path="url(#p372c60601a)" style="fill: none; stroke: #b0b0b0; stroke-opacity: 0.3; stroke-width: 0.8; stroke-linecap: square"/>
     </g>
     <g id="line2d_4">
      <g>
       <use xlink:href="#ma47162c828" x="164.214545" y="306" style="stroke: #000000; stroke-width: 0.8"/>
      </g>
     </g>
     <g id="text_2">
      <!-- 250 ns -->
      <g transform="translate(147.308295 320.598437) scale(0.1 -0.1)">
       <defs>
        <path id="DejaVuSans-32" d="M 1228 531 
L 3431 531 
L 3431 0 
L 469 0 
L 469 531 
Q 828 903 1448 1529 
Q 2069 2156 2228 2338 
Q 2531 2678 2651 2914 
Q 2772 3150 2772 3378 
Q 2772 3750 2511 3984 
Q 2250 4219 1831 4219 
Q 1534 4219 1204 4116 
Q 875 4013 500 3803 
L 500 4441 
Q 881 4594 1212 4672 
Q 1544 4750 1819 4750 
Q 2544 4750 2975 4387 
Q 3406 4025 3406 3419 
Q 3406 3131 3298 2873 
Q 3191 2616 2906 2266 
Q 2828 2175 2409 1742 
Q 1991 1309 1228 531 
z
" transform="scale(0.015625)"/>
        <path id="DejaVuSans-35" d="M 691 4666 
L 3169 4666 
L 3169 4134 
L 1269 4134 
L 1269 2991 
Q 1406 3038 1543 3061 
Q 1681 3084 1819 3084 
Q 2600 3084 3056 2656 
Q 3513 2228 3513 1497 
Q 3513 744 3044 326 
Q 2575 -91 1722 -91 
Q 1428 -91 1123 -41 
Q 819 9 494 109 
L 494 744 
Q 775 591 1075 516 
Q 1375 441 1709 441 
Q 2250 441 2565 725 
Q 2881 1009 2881 1497 
Q 2881 1984 2565 2268 
Q 2250 2553 1709 2553 
Q 1456 2553 1204 2497 
Q 953 2441 691 2322 
L 691 4666 
z
" transform="scale(0.015625)"/>
        <path id="DejaVuSans-6e" d="M 3513 2113 
L 3513 0 
L 2938 0 
L 2938 2094 
Q 2938 2591 2744 2837 
Q 2550 3084 2163 3084 
Q 1697 3084 1428 2787 
Q 1159 2491 1159 1978 
L 1159 0 
L 581 0 
L 581 3500 
L 1159 3500 
L 1159 2956 
Q 1366 3272 1645 3428 
Q 1925 3584 2291 3584 
Q 2894 3584 3203 3211 
Q 3513 2838 3513 2113 
z
" transform="scale(0.015625)"/>
       </defs>
       <use xlink:href="#DejaVuSans-32"/>
       <use xlink:href="#DejaVuSans-35" transform="translate(63.623047 0)"/>
       <use xlink:href="#DejaVuSans-30" transform="translate(127.246094 0)"/>
       <use xlink:href="#DejaVuSans-20" transform="translate(190.869141 0)"/>
       <use xlink:href="#DejaVuSans-6e" transform="translate(222.65625 0)"/>
       <use xlink:href="#DejaVuSans-73" transform="translate(286.035156 0)"/>
      </g>
     </g>
    </g>
    <g id="xtick_3">
     <g id="line2d_5">
      <path d="M 231.096364 306 
L 231.096364 10.8 
" clip-path="url(#p372c60601a)" style="fill: none; stroke: #b0b0b0; stroke-opacity: 0.3; stroke-width: 0.8; stroke-linecap: square"/>
     </g>
     <g id="line2d_6">
      <g>
       <use xlink:href="#ma47162c828" x="231.096364" y="306" style="stroke: #000000; stroke-width: 0.8"/>
      </g>
     </g>
     <g id="text_3">
      <!-- 500 ns -->
      <g transform="translate(214.190114 320.598437) scale(0.1 -0.1)">
       <use xlink:href="#DejaVuSans-35"/>
       <use xlink:href="#DejaVuSans-30" transform="translate(63.623047 0)"/>
       <use xlink:href="#DejaVuSans-30" transform="translate(127.246094 0)"/>
       <use xlink:href="#DejaVuSans-20" transform="translate(190.869141 0)"/>
       <use xlink:href="#DejaVuSans-6e" transform="translate(222.65625 0)"/>
       <use xlink:href="#DejaVuSans-73" transform="translate(286.035156 0)"/>
      </g>
     </g>
    </g>
    <g id="xtick_4">
     <g id="line2d_7">
      <path d="M 297.978182 306 
L 297.978182 10.8 
" clip-path="url(#p372c60601a)" style="fill: none; stroke: #b0b0b0; stroke-opacity: 0.3; stroke-width: 0.8; stroke-linecap: square"/>
     </g>
     <g id="line2d_8">
      <g>
       <use xlink:href="#ma47162c828" x="297.978182" y="306" style="stroke: #000000; stroke-width: 0.8"/>
      </g>
     </g>
     <g id="text_4">
      <!-- 750 ns -->
      <g transform="translate(281.071932 320.598437) scale(0.1 -0.1)">
       <defs>
        <path id="DejaVuSans-37" d="M 525 4666 
L 3525 4666 
L 3525 4397 
L 1831 0 
L 1172 0 
L 2766 4134 
L 525 4134 
L 525 4666 
z
" transform="scale(0.015625)"/>
       </defs>
       <use xlink:href="#DejaVuSans-37"/>
       <use xlink:href="#DejaVuSans-35" transform="translate(63.623047 0)"/>
       <use xlink:href="#DejaVuSans-30" transform="translate(127.246094 0)"/>
       <use xlink:href="#DejaVuSans-20" transform="translate(190.869141 0)"/>
       <use xlink:href="#DejaVuSans-6e" transform="translate(222.65625 0)"/>
       <use xlink:href="#DejaVuSans-73" transform="translate(286.035156 0)"/>
      </g>
     </g>
    </g>
    <g id="xtick_5">
     <g id="line2d_9">
      <path d="M 364.86 306 
L 364.86 10.8 
" clip-path="url(#p372c60601a)" style="fill: none; stroke: #b0b0b0; stroke-opacity: 0.3; stroke-width: 0.8; stroke-linecap: square"/>
     </g>
     <g id="line2d_10">
      <g>
       <use xlink:href="#ma47162c828" x="364.86" y="306" style="stroke: #000000; stroke-width: 0.8"/>
      </g>
     </g>
     <g id="text_5">
      <!-- 1 µs -->
      <g transform="translate(354.30375 320.598437) scale(0.1 -0.1)">
       <defs>
        <path id="DejaVuSans-31" d="M 794 531 
L 1825 531 
L 1825 4091 
L 703 3866 
L 703 4441 
L 1819 4666 
L 2450 4666 
L 2450 531 
L 3481 531 
L 3481 0 
L 794 0 
L 794 531 
z
" transform="scale(0.015625)"/>
        <path id="DejaVuSans-b5" d="M 544 -1331 
L 544 3500 
L 1119 3500 
L 1119 1325 
Q 1119 872 1334 640 
Q 1550 409 1972 409 
Q 2434 409 2667 671 
Q 2900 934 2900 1459 
L 2900 3500 
L 3475 3500 
L 3475 806 
Q 3475 619 3529 530 
Q 3584 441 3700 441 
Q 3728 441 3778 458 
Q 3828 475 3916 513 
L 3916 50 
Q 3788 -22 3673 -56 
Q 3559 -91 3450 -91 
Q 3234 -91 3106 31 
Q 2978 153 2931 403 
Q 2775 156 2548 32 
Q 2322 -91 2016 -91 
Q 1697 -91 1473 31 
Q 1250 153 1119 397 
L 1119 -1331 
L 544 -1331 
z
" transform="scale(0.015625)"/>
       </defs>
       <use xlink:href="#DejaVuSans-31"/>
       <use xlink:href="#DejaVuSans-20" transform="translate(63.623047 0)"/>
       <use xlink:href="#DejaVuSans-b5" transform="translate(95.410156 0)"/>
       <use xlink:href="#DejaVuSans-73" transform="translate(159.033203 0)"/>
      </g>
     </g>
    </g>
    <g id="xtick_6">
     <g id="line2d_11">
      <path d="M 431.741818 306 
L 431.741818 10.8 
" clip-path="url(#p372c60601a)" style="fill: none; stroke: #b0b0b0; stroke-opacity: 0.3; stroke-width: 0.8; stroke-linecap: square"/>
     </g>
     <g id="line2d_12">
      <g>
       <use xlink:href="#ma47162c828" x="431.741818" y="306" style="stroke: #000000; stroke-width: 0.8"/>
      </g>
     </g>
     <g id="text_6">
      <!-- 1.25 µs -->
      <g transform="translate(413.234006 320.598437) scale(0.1 -0.1)">
       <defs>
        <path id="DejaVuSans-2e" d="M 684 794 
L 1344 794 
L 1344 0 
L 684 0 
L 684 794 
z
" transform="scale(0.015625)"/>
       </defs>
       <use xlink:href="#DejaVuSans-31"/>
       <use xlink:href="#DejaVuSans-2e" transform="translate(63.623047 0)"/>
       <use xlink:href="#DejaVuSans-32" transform="translate(95.410156 0)"/>
       <use xlink:href="#DejaVuSans-35" transform="translate(159.033203 0)"/>
       <use xlink:href="#DejaVuSans-20" transform="translate(222.65625 0)"/>
       <use xlink:href="#DejaVuSans-b5" transform="translate(254.443359 0)"/>
       <use xlink:href="#DejaVuSans-73" transform="translate(318.066406 0)"/>
      </g>
     </g>
    </g>
    <g id="xtick_7">
     <g id="line2d_13">
      <path d="M 498.623636 306 
L 498.623636 10.8 
" clip-path="url(#p372c60601a)" style="fill: none; stroke: #b0b0b0; stroke-opacity: 0.3; stroke-width: 0.8; stroke-linecap: square"/>
     </g>
     <g id="line2d_14">
      <g>
       <use xlink:href="#ma47162c828" x="498.623636" y="306" style="stroke: #000000; stroke-width: 0.8"/>
      </g>
     </g>
     <g id="text_7">
      <!-- 1.5 µs -->
      <g transform="translate(483.297074 320.598437) scale(0.1 -0.1)">
       <use xlink:href="#DejaVuSans-31"/>
       <use xlink:href="#DejaVuSans-2e" transform="translate(63.623047 0)"/>
       <use xlink:href="#DejaVuSans-35" transform="translate(95.410156 0)"/>
       <use xlink:href="#DejaVuSans-20" transform="translate(159.033203 0)"/>
       <use xlink:href="#DejaVuSans-b5" transform="translate(190.820312 0)"/>
       <use xlink:href="#DejaVuSans-73" transform="translate(254.443359 0)"/>
      </g>
     </g>
    </g>
    <g id="xtick_8">
     <g id="line2d_15">
      <path d="M 565.505455 306 
L 565.505455 10.8 
" clip-path="url(#p372c60601a)" style="fill: none; stroke: #b0b0b0; stroke-opacity: 0.3; stroke-width: 0.8; stroke-linecap: square"/>
     </g>
     <g id="line2d_16">
      <g>
       <use xlink:href="#ma47162c828" x="565.505455" y="306" style="stroke: #000000; stroke-width: 0.8"/>
      </g>
     </g>
     <g id="text_8">
      <!-- 1.75 µs -->
      <g transform="translate(546.997642 320.598437) scale(0.1 -0.1)">
       <use xlink:href="#DejaVuSans-31"/>
       <use xlink:href="#DejaVuSans-2e" transform="translate(63.623047 0)"/>
       <use xlink:href="#DejaVuSans-37" transform="translate(95.410156 0)"/>
       <use xlink:href="#DejaVuSans-35" transform="translate(159.033203 0)"/>
       <use xlink:href="#DejaVuSans-20" transform="translate(222.65625 0)"/>
       <use xlink:href="#DejaVuSans-b5" transform="translate(254.443359 0)"/>
       <use xlink:href="#DejaVuSans-73" transform="translate(318.066406 0)"/>
      </g>
     </g>
    </g>
    <g id="xtick_9">
     <g id="line2d_17">
      <path d="M 632.387273 306 
L 632.387273 10.8 
" clip-path="url(#p372c60601a)" style="fill: none; stroke: #b0b0b0; stroke-opacity: 0.3; stroke-width: 0.8; stroke-linecap: square"/>
     </g>
     <g id="line2d_18">
      <g>
       <use xlink:href="#ma47162c828" x="632.387273" y="306" style="stroke: #000000; stroke-width: 0.8"/>
      </g>
     </g>
     <g id="text_9">
      <!-- 2 µs -->
      <g transform="translate(621.831023 320.598437) scale(0.1 -0.1)">
       <use xlink:href="#DejaVuSans-32"/>
       <use xlink:href="#DejaVuSans-20" transform="translate(63.623047 0)"/>
       <use xlink:href="#DejaVuSans-b5" transform="translate(95.410156 0)"/>
       <use xlink:href="#DejaVuSans-73" transform="translate(159.033203 0)"/>
      </g>
     </g>
    </g>
    <g id="text_10">
     <!-- Time [s] -->
     <g transform="translate(344.531094 334.276563) scale(0.1 -0.1)">
      <defs>
       <path id="DejaVuSans-54" d="M -19 4666 
L 3928 4666 
L 3928 4134 
L 2272 4134 
L 2272 0 
L 1638 0 
L 1638 4134 
L -19 4134 
L -19 4666 
z
" transform="scale(0.015625)"/>
       <path id="DejaVuSans-69" d="M 603 3500 
L 1178 3500 
L 1178 0 
L 603 0 
L 603 3500 
z
M 603 4863 
L 1178 4863 
L 1178 4134 
L 603 4134 
L 603 4863 
z
" transform="scale(0.015625)"/>
       <path id="DejaVuSans-6d" d="M 3328 2828 
Q 3544 3216 3844 3400 
Q 4144 3584 4550 3584 
Q 5097 3584 5394 3201 
Q 5691 2819 5691 2113 
L 5691 0 
L 5113 0 
L 5113 2094 
Q 5113 2597 4934 2840 
Q 4756 3084 4391 3084 
Q 3944 3084 3684 2787 
Q 3425 2491 3425 1978 
L 3425 0 
L 2847 0 
L 2847 2094 
Q 2847 2600 2669 2842 
Q 2491 3084 2119 3084 
Q 1678 3084 1418 2786 
Q 1159 2488 1159 1978 
L 1159 0 
L 581 0 
L 581 3500 
L 1159 3500 
L 1159 2956 
Q 1356 3278 1631 3431 
Q 1906 3584 2284 3584 
Q 2666 3584 2933 3390 
Q 3200 3197 3328 2828 
z
" transform="scale(0.015625)"/>
       <path id="DejaVuSans-65" d="M 3597 1894 
L 3597 1613 
L 953 1613 
Q 991 1019 1311 708 
Q 1631 397 2203 397 
Q 2534 397 2845 478 
Q 3156 559 3463 722 
L 3463 178 
Q 3153 47 2828 -22 
Q 2503 -91 2169 -91 
Q 1331 -91 842 396 
Q 353 884 353 1716 
Q 353 2575 817 3079 
Q 1281 3584 2069 3584 
Q 2775 3584 3186 3129 
Q 3597 2675 3597 1894 
z
M 3022 2063 
Q 3016 2534 2758 2815 
Q 2500 3097 2075 3097 
Q 1594 3097 1305 2825 
Q 1016 2553 972 2059 
L 3022 2063 
z
" transform="scale(0.015625)"/>
       <path id="DejaVuSans-5b" d="M 550 4863 
L 1875 4863 
L 1875 4416 
L 1125 4416 
L 1125 -397 
L 1875 -397 
L 1875 -844 
L 550 -844 
L 550 4863 
z
" transform="scale(0.015625)"/>
       <path id="DejaVuSans-5d" d="M 1947 4863 
L 1947 -844 
L 622 -844 
L 622 -397 
L 1369 -397 
L 1369 4416 
L 622 4416 
L 622 4863 
L 1947 4863 
z
" transform="scale(0.015625)"/>
      </defs>
      <use xlink:href="#DejaVuSans-54"/>
      <use xlink:href="#DejaVuSans-69" transform="translate(57.958984 0)"/>
      <use xlink:href="#DejaVuSans-6d" transform="translate(85.742188 0)"/>
      <use xlink:href="#DejaVuSans-65" transform="translate(183.154297 0)"/>
      <use xlink:href="#DejaVuSans-20" transform="translate(244.677734 0)"/>
      <use xlink:href="#DejaVuSans-5b" transform="translate(276.464844 0)"/>
      <use xlink:href="#DejaVuSans-73" transform="translate(315.478516 0)"/>
      <use xlink:href="#DejaVuSans-5d" transform="translate(367.578125 0)"/>
     </g>
    </g>
   </g>
   <g id="matplotlib.axis_2">
    <g id="ytick_1">
     <g id="line2d_19">
      <path d="M 70.58 292.58186 
L 659.14 292.58186 
" clip-path="url(#p372c60601a)" style="fill: none; stroke: #b0b0b0; stroke-opacity: 0.3; stroke-width: 0.8; stroke-linecap: square"/>
     </g>
     <g id="line2d_20">
      <defs>
       <path id="mcd7308aa82" d="M 0 0 
L -3.5 0 
" style="stroke: #000000; stroke-width: 0.8"/>
      </defs>
      <g>
       <use xlink:href="#mcd7308aa82" x="70.58" y="292.58186" style="stroke: #000000; stroke-width: 0.8"/>
      </g>
     </g>
     <g id="text_11">
      <!-- 500 mV -->
      <g transform="translate(24.733125 296.381078) scale(0.1 -0.1)">
       <defs>
        <path id="DejaVuSans-56" d="M 1831 0 
L 50 4666 
L 709 4666 
L 2188 738 
L 3669 4666 
L 4325 4666 
L 2547 0 
L 1831 0 
z
" transform="scale(0.015625)"/>
       </defs>
       <use xlink:href="#DejaVuSans-35"/>
       <use xlink:href="#DejaVuSans-30" transform="translate(63.623047 0)"/>
       <use xlink:href="#DejaVuSans-30" transform="translate(127.246094 0)"/>
       <use xlink:href="#DejaVuSans-20" transform="translate(190.869141 0)"/>
       <use xlink:href="#DejaVuSans-6d" transform="translate(222.65625 0)"/>
       <use xlink:href="#DejaVuSans-56" transform="translate(320.068359 0)"/>
      </g>
     </g>
    </g>
    <g id="ytick_2">
     <g id="line2d_21">
      <path d="M 70.58 259.036395 
L 659.14 259.036395 
" clip-path="url(#p372c60601a)" style="fill: none; stroke: #b0b0b0; stroke-opacity: 0.3; stroke-width: 0.8; stroke-linecap: square"/>
     </g>
     <g id="line2d_22">
      <g>
       <use xlink:href="#mcd7308aa82" x="70.58" y="259.036395" style="stroke: #000000; stroke-width: 0.8"/>
      </g>
     </g>
     <g id="text_12">
      <!-- 600 mV -->
      <g transform="translate(24.733125 262.835613) scale(0.1 -0.1)">
       <defs>
        <path id="DejaVuSans-36" d="M 2113 2584 
Q 1688 2584 1439 2293 
Q 1191 2003 1191 1497 
Q 1191 994 1439 701 
Q 1688 409 2113 409 
Q 2538 409 2786 701 
Q 3034 994 3034 1497 
Q 3034 2003 2786 2293 
Q 2538 2584 2113 2584 
z
M 3366 4563 
L 3366 3988 
Q 3128 4100 2886 4159 
Q 2644 4219 2406 4219 
Q 1781 4219 1451 3797 
Q 1122 3375 1075 2522 
Q 1259 2794 1537 2939 
Q 1816 3084 2150 3084 
Q 2853 3084 3261 2657 
Q 3669 2231 3669 1497 
Q 3669 778 3244 343 
Q 2819 -91 2113 -91 
Q 1303 -91 875 529 
Q 447 1150 447 2328 
Q 447 3434 972 4092 
Q 1497 4750 2381 4750 
Q 2619 4750 2861 4703 
Q 3103 4656 3366 4563 
z
" transform="scale(0.015625)"/>
       </defs>
       <use xlink:href="#DejaVuSans-36"/>
       <use xlink:href="#DejaVuSans-30" transform="translate(63.623047 0)"/>
       <use xlink:href="#DejaVuSans-30" transform="translate(127.246094 0)"/>
       <use xlink:href="#DejaVuSans-20" transform="translate(190.869141 0)"/>
       <use xlink:href="#DejaVuSans-6d" transform="translate(222.65625 0)"/>
       <use xlink:href="#DejaVuSans-56" transform="translate(320.068359 0)"/>
      </g>
     </g>
    </g>
    <g id="ytick_3">
     <g id="line2d_23">
      <path d="M 70.58 225.49093 
L 659.14 225.49093 
" clip-path="url(#p372c60601a)" style="fill: none; stroke: #b0b0b0; stroke-opacity: 0.3; stroke-width: 0.8; stroke-linecap: square"/>
     </g>
     <g id="line2d_24">
      <g>
       <use xlink:href="#mcd7308aa82" x="70.58" y="225.49093" style="stroke: #000000; stroke-width: 0.8"/>
      </g>
     </g>
     <g id="text_13">
      <!-- 700 mV -->
      <g transform="translate(24.733125 229.290149) scale(0.1 -0.1)">
       <use xlink:href="#DejaVuSans-37"/>
       <use xlink:href="#DejaVuSans-30" transform="translate(63.623047 0)"/>
       <use xlink:href="#DejaVuSans-30" transform="translate(127.246094 0)"/>
       <use xlink:href="#DejaVuSans-20" transform="translate(190.869141 0)"/>
       <use xlink:href="#DejaVuSans-6d" transform="translate(222.65625 0)"/>
       <use xlink:href="#DejaVuSans-56" transform="translate(320.068359 0)"/>
      </g>
     </g>
    </g>
    <g id="ytick_4">
     <g id="line2d_25">
      <path d="M 70.58 191.945465 
L 659.14 191.945465 
" clip-path="url(#p372c60601a)" style="fill: none; stroke: #b0b0b0; stroke-opacity: 0.3; stroke-width: 0.8; stroke-linecap: square"/>
     </g>
     <g id="line2d_26">
      <g>
       <use xlink:href="#mcd7308aa82" x="70.58" y="191.945465" style="stroke: #000000; stroke-width: 0.8"/>
      </g>
     </g>
     <g id="text_14">
      <!-- 800 mV -->
      <g transform="translate(24.733125 195.744684) scale(0.1 -0.1)">
       <defs>
        <path id="DejaVuSans-38" d="M 2034 2216 
Q 1584 2216 1326 1975 
Q 1069 1734 1069 1313 
Q 1069 891 1326 650 
Q 1584 409 2034 409 
Q 2484 409 2743 651 
Q 3003 894 3003 1313 
Q 3003 1734 2745 1975 
Q 2488 2216 2034 2216 
z
M 1403 2484 
Q 997 2584 770 2862 
Q 544 3141 544 3541 
Q 544 4100 942 4425 
Q 1341 4750 2034 4750 
Q 2731 4750 3128 4425 
Q 3525 4100 3525 3541 
Q 3525 3141 3298 2862 
Q 3072 2584 2669 2484 
Q 3125 2378 3379 2068 
Q 3634 1759 3634 1313 
Q 3634 634 3220 271 
Q 2806 -91 2034 -91 
Q 1263 -91 848 271 
Q 434 634 434 1313 
Q 434 1759 690 2068 
Q 947 2378 1403 2484 
z
M 1172 3481 
Q 1172 3119 1398 2916 
Q 1625 2713 2034 2713 
Q 2441 2713 2670 2916 
Q 2900 3119 2900 3481 
Q 2900 3844 2670 4047 
Q 2441 4250 2034 4250 
Q 1625 4250 1398 4047 
Q 1172 3844 1172 3481 
z
" transform="scale(0.015625)"/>
       </defs>
       <use xlink:href="#DejaVuSans-38"/>
       <use xlink:href="#DejaVuSans-30" transform="translate(63.623047 0)"/>
       <use xlink:href="#DejaVuSans-30" transform="translate(127.246094 0)"/>
       <use xlink:href="#DejaVuSans-20" transform="translate(190.869141 0)"/>
       <use xlink:href="#DejaVuSans-6d" transform="translate(222.65625 0)"/>
       <use xlink:href="#DejaVuSans-56" transform="translate(320.068359 0)"/>
      </g>
     </g>
    </g>
    <g id="ytick_5">
     <g id="line2d_27">
      <path d="M 70.58 158.4 
L 659.14 158.4 
" clip-path="url(#p372c60601a)" style="fill: none; stroke: #b0b0b0; stroke-opacity: 0.3; stroke-width: 0.8; stroke-linecap: square"/>
     </g>
     <g id="line2d_28">
      <g>
       <use xlink:href="#mcd7308aa82" x="70.58" y="158.4" style="stroke: #000000; stroke-width: 0.8"/>
      </g>
     </g>
     <g id="text_15">
      <!-- 900 mV -->
      <g transform="translate(24.733125 162.199219) scale(0.1 -0.1)">
       <defs>
        <path id="DejaVuSans-39" d="M 703 97 
L 703 672 
Q 941 559 1184 500 
Q 1428 441 1663 441 
Q 2288 441 2617 861 
Q 2947 1281 2994 2138 
Q 2813 1869 2534 1725 
Q 2256 1581 1919 1581 
Q 1219 1581 811 2004 
Q 403 2428 403 3163 
Q 403 3881 828 4315 
Q 1253 4750 1959 4750 
Q 2769 4750 3195 4129 
Q 3622 3509 3622 2328 
Q 3622 1225 3098 567 
Q 2575 -91 1691 -91 
Q 1453 -91 1209 -44 
Q 966 3 703 97 
z
M 1959 2075 
Q 2384 2075 2632 2365 
Q 2881 2656 2881 3163 
Q 2881 3666 2632 3958 
Q 2384 4250 1959 4250 
Q 1534 4250 1286 3958 
Q 1038 3666 1038 3163 
Q 1038 2656 1286 2365 
Q 1534 2075 1959 2075 
z
" transform="scale(0.015625)"/>
       </defs>
       <use xlink:href="#DejaVuSans-39"/>
       <use xlink:href="#DejaVuSans-30" transform="translate(63.623047 0)"/>
       <use xlink:href="#DejaVuSans-30" transform="translate(127.246094 0)"/>
       <use xlink:href="#DejaVuSans-20" transform="translate(190.869141 0)"/>
       <use xlink:href="#DejaVuSans-6d" transform="translate(222.65625 0)"/>
       <use xlink:href="#DejaVuSans-56" transform="translate(320.068359 0)"/>
      </g>
     </g>
    </g>
    <g id="ytick_6">
     <g id="line2d_29">
      <path d="M 70.58 124.854535 
L 659.14 124.854535 
" clip-path="url(#p372c60601a)" style="fill: none; stroke: #b0b0b0; stroke-opacity: 0.3; stroke-width: 0.8; stroke-linecap: square"/>
     </g>
     <g id="line2d_30">
      <g>
       <use xlink:href="#mcd7308aa82" x="70.58" y="124.854535" style="stroke: #000000; stroke-width: 0.8"/>
      </g>
     </g>
     <g id="text_16">
      <!-- 1 V -->
      <g transform="translate(47.19875 128.653754) scale(0.1 -0.1)">
       <use xlink:href="#DejaVuSans-31"/>
       <use xlink:href="#DejaVuSans-20" transform="translate(63.623047 0)"/>
       <use xlink:href="#DejaVuSans-56" transform="translate(95.410156 0)"/>
      </g>
     </g>
    </g>
    <g id="ytick_7">
     <g id="line2d_31">
      <path d="M 70.58 91.30907 
L 659.14 91.30907 
" clip-path="url(#p372c60601a)" style="fill: none; stroke: #b0b0b0; stroke-opacity: 0.3; stroke-width: 0.8; stroke-linecap: square"/>
     </g>
     <g id="line2d_32">
      <g>
       <use xlink:href="#mcd7308aa82" x="70.58" y="91.30907" style="stroke: #000000; stroke-width: 0.8"/>
      </g>
     </g>
     <g id="text_17">
      <!-- 1.1 V -->
      <g transform="translate(37.658125 95.108289) scale(0.1 -0.1)">
       <use xlink:href="#DejaVuSans-31"/>
       <use xlink:href="#DejaVuSans-2e" transform="translate(63.623047 0)"/>
       <use xlink:href="#DejaVuSans-31" transform="translate(95.410156 0)"/>
       <use xlink:href="#DejaVuSans-20" transform="translate(159.033203 0)"/>
       <use xlink:href="#DejaVuSans-56" transform="translate(190.820312 0)"/>
      </g>
     </g>
    </g>
    <g id="ytick_8">
     <g id="line2d_33">
      <path d="M 70.58 57.763605 
L 659.14 57.763605 
" clip-path="url(#p372c60601a)" style="fill: none; stroke: #b0b0b0; stroke-opacity: 0.3; stroke-width: 0.8; stroke-linecap: square"/>
     </g>
     <g id="line2d_34">
      <g>
       <use xlink:href="#mcd7308aa82" x="70.58" y="57.763605" style="stroke: #000000; stroke-width: 0.8"/>
      </g>
     </g>
     <g id="text_18">
      <!-- 1.2 V -->
      <g transform="translate(37.658125 61.562824) scale(0.1 -0.1)">
       <use xlink:href="#DejaVuSans-31"/>
       <use xlink:href="#DejaVuSans-2e" transform="translate(63.623047 0)"/>
       <use xlink:href="#DejaVuSans-32" transform="translate(95.410156 0)"/>
       <use xlink:href="#DejaVuSans-20" transform="translate(159.033203 0)"/>
       <use xlink:href="#DejaVuSans-56" transform="translate(190.820312 0)"/>
      </g>
     </g>
    </g>
    <g id="ytick_9">
     <g id="line2d_35">
      <path d="M 70.58 24.21814 
L 659.14 24.21814 
" clip-path="url(#p372c60601a)" style="fill: none; stroke: #b0b0b0; stroke-opacity: 0.3; stroke-width: 0.8; stroke-linecap: square"/>
     </g>
     <g id="line2d_36">
      <g>
       <use xlink:href="#mcd7308aa82" x="70.58" y="24.21814" style="stroke: #000000; stroke-width: 0.8"/>
      </g>
     </g>
     <g id="text_19">
      <!-- 1.3 V -->
      <g transform="translate(37.658125 28.017359) scale(0.1 -0.1)">
       <defs>
        <path id="DejaVuSans-33" d="M 2597 2516 
Q 3050 2419 3304 2112 
Q 3559 1806 3559 1356 
Q 3559 666 3084 287 
Q 2609 -91 1734 -91 
Q 1441 -91 1130 -33 
Q 819 25 488 141 
L 488 750 
Q 750 597 1062 519 
Q 1375 441 1716 441 
Q 2309 441 2620 675 
Q 2931 909 2931 1356 
Q 2931 1769 2642 2001 
Q 2353 2234 1838 2234 
L 1294 2234 
L 1294 2753 
L 1863 2753 
Q 2328 2753 2575 2939 
Q 2822 3125 2822 3475 
Q 2822 3834 2567 4026 
Q 2313 4219 1838 4219 
Q 1578 4219 1281 4162 
Q 984 4106 628 3988 
L 628 4550 
Q 988 4650 1302 4700 
Q 1616 4750 1894 4750 
Q 2613 4750 3031 4423 
Q 3450 4097 3450 3541 
Q 3450 3153 3228 2886 
Q 3006 2619 2597 2516 
z
" transform="scale(0.015625)"/>
       </defs>
       <use xlink:href="#DejaVuSans-31"/>
       <use xlink:href="#DejaVuSans-2e" transform="translate(63.623047 0)"/>
       <use xlink:href="#DejaVuSans-33" transform="translate(95.410156 0)"/>
       <use xlink:href="#DejaVuSans-20" transform="translate(159.033203 0)"/>
       <use xlink:href="#DejaVuSans-56" transform="translate(190.820312 0)"/>
      </g>
     </g>
    </g>
    <g id="text_20">
     <!-- [V] -->
     <g transform="translate(18.653437 165.721875) rotate(-90) scale(0.1 -0.1)">
      <use xlink:href="#DejaVuSans-5b"/>
      <use xlink:href="#DejaVuSans-56" transform="translate(39.013672 0)"/>
      <use xlink:href="#DejaVuSans-5d" transform="translate(107.421875 0)"/>
     </g>
    </g>
   </g>
   <g id="line2d_37">
    <path d="M 97.332727 158.4 
L 104.024255 116.91547 
L 107.503849 96.704254 
L 110.448121 80.866483 
L 112.857071 68.996801 
L 114.99836 59.40153 
L 117.139649 50.806942 
L 119.013277 44.17611 
L 120.619243 39.194491 
L 122.22521 34.890899 
L 123.563515 31.840288 
L 124.901821 29.289651 
L 126.240126 27.249062 
L 127.310771 25.989313 
L 128.381415 25.064379 
L 129.45206 24.4766 
L 130.255043 24.257949 
L 131.058026 24.230112 
L 131.86101 24.393129 
L 132.663993 24.746768 
L 133.734637 25.5139 
L 134.805282 26.617049 
L 135.875926 28.053427 
L 136.946571 29.819401 
L 138.284876 32.483482 
L 139.623182 35.644995 
L 141.229148 40.077701 
L 142.835115 45.183409 
L 144.708743 51.951723 
L 146.58237 59.544 
L 148.723659 69.154162 
L 151.132609 81.038689 
L 153.80922 95.397158 
L 157.021153 113.919078 
L 161.303731 140.11074 
L 172.277836 208.015158 
L 175.489769 226.189773 
L 178.16638 240.175332 
L 180.57533 251.664473 
L 182.716619 260.879858 
L 184.590247 268.096512 
L 186.463875 274.464059 
L 188.069841 279.208588 
L 189.675808 283.265973 
L 191.014113 286.105454 
L 192.352419 288.440435 
L 193.423063 289.938914 
L 194.493708 291.104782 
L 195.564352 291.935091 
L 196.634997 292.427741 
L 197.43798 292.574859 
L 198.240963 292.531115 
L 199.043947 292.296574 
L 199.84693 291.871567 
L 200.917574 291.009698 
L 201.988219 289.812509 
L 203.058863 288.283029 
L 204.397169 285.909865 
L 205.735474 283.032974 
L 207.07378 279.663722 
L 208.679746 274.989577 
L 210.285713 269.652284 
L 212.159341 262.627999 
L 214.300629 253.615814 
L 216.441918 243.64118 
L 218.850868 231.395177 
L 221.79514 215.176711 
L 225.274735 194.637146 
L 230.360296 163.038388 
L 237.854806 116.514583 
L 241.334401 96.330029 
L 244.278673 80.522646 
L 246.687623 68.682741 
L 248.828912 59.117323 
L 250.970201 50.555461 
L 252.843828 43.955363 
L 254.449795 39.001455 
L 256.055762 34.726672 
L 257.394067 31.70079 
L 258.732373 29.175432 
L 260.070678 27.160575 
L 261.141322 25.921667 
L 262.211967 25.017746 
L 263.282611 24.451097 
L 264.085595 24.248339 
L 264.888578 24.236409 
L 265.691561 24.415324 
L 266.494545 24.784828 
L 267.565189 25.573027 
L 268.635833 26.697094 
L 269.706478 28.154187 
L 271.044783 30.438178 
L 272.383089 33.227681 
L 273.721394 36.511676 
L 275.327361 41.086799 
L 276.933328 46.329186 
L 278.806955 53.248668 
L 280.948244 62.149875 
L 283.089533 72.023984 
L 285.498483 84.170656 
L 288.442755 100.289265 
L 291.922349 120.74378 
L 296.740249 150.601917 
L 304.770082 200.485706 
L 308.249677 220.656854 
L 311.193949 236.448984 
L 313.602899 248.273957 
L 315.744188 257.824413 
L 317.885476 266.36988 
L 319.759104 272.954588 
L 321.365071 277.894621 
L 322.971037 282.154983 
L 324.309343 285.16849 
L 325.647648 287.681198 
L 326.985954 289.683182 
L 328.056598 290.911665 
L 329.127243 291.805077 
L 330.197887 292.361158 
L 331.00087 292.555969 
L 331.803854 292.559946 
L 332.606837 292.373083 
L 333.40982 291.995647 
L 334.480465 291.196917 
L 335.551109 290.062396 
L 336.621754 288.594951 
L 337.960059 286.298204 
L 339.298365 283.496196 
L 340.63667 280.199996 
L 342.242637 275.610693 
L 343.848603 270.354709 
L 345.722231 263.420204 
L 347.86352 254.503077 
L 350.004809 244.614533 
L 352.413759 232.453581 
L 355.358031 216.320587 
L 358.837625 195.85377 
L 363.655525 165.987552 
L 371.685358 116.114109 
L 375.164952 95.956417 
L 378.109225 80.179579 
L 380.518175 68.369567 
L 382.659463 58.834097 
L 384.800752 50.305046 
L 386.67438 43.735745 
L 388.280347 38.809598 
L 389.886313 34.563667 
L 391.224619 31.562544 
L 392.562924 29.062491 
L 393.90123 27.073384 
L 394.971874 25.85533 
L 396.042519 24.97243 
L 397.113163 24.426917 
L 397.916146 24.240054 
L 398.71913 24.244031 
L 399.522113 24.438842 
L 400.325096 24.824209 
L 401.395741 25.633466 
L 402.466385 26.778439 
L 403.537029 28.256233 
L 404.875335 30.56573 
L 406.21364 33.380236 
L 407.551946 36.688632 
L 409.157913 41.292104 
L 410.763879 46.561672 
L 412.637507 53.511183 
L 414.778796 62.444209 
L 416.920085 72.347162 
L 419.329035 84.522365 
L 422.273307 100.669704 
L 425.752901 121.148772 
L 430.570801 151.022998 
L 438.600634 200.885971 
L 442.080228 221.030158 
L 445.0245 236.791666 
L 447.43345 248.586687 
L 449.574739 258.107147 
L 451.716028 266.619761 
L 453.589656 273.173639 
L 455.195622 278.085887 
L 456.801589 282.317377 
L 458.139894 285.30611 
L 459.4782 287.793501 
L 460.816506 289.769725 
L 461.88715 290.977348 
L 462.957794 291.849733 
L 464.028439 292.384676 
L 464.831422 292.563591 
L 465.634405 292.551661 
L 466.437389 292.348903 
L 467.240372 291.955606 
L 468.311016 291.135822 
L 469.381661 289.9804 
L 470.452305 288.492262 
L 471.790611 286.170019 
L 473.128916 283.343022 
L 474.467222 280.022439 
L 476.073188 275.40481 
L 477.679155 270.12167 
L 479.552783 263.15717 
L 481.694072 254.208268 
L 483.83536 244.29093 
L 486.24431 232.101506 
L 489.188582 215.939862 
L 492.668177 195.448594 
L 497.486077 165.566434 
L 505.51591 115.714053 
L 508.995504 95.583422 
L 511.939776 79.837284 
L 514.348726 68.057282 
L 516.490015 58.551855 
L 518.631304 50.055699 
L 520.504932 43.517261 
L 522.110898 38.618923 
L 523.716865 34.401886 
L 525.05517 31.42555 
L 526.393476 28.950827 
L 527.731781 26.987491 
L 528.802426 25.790302 
L 529.87307 24.928433 
L 530.943715 24.404061 
L 531.746698 24.233095 
L 532.549681 24.252979 
L 533.352665 24.463683 
L 534.155648 24.864909 
L 535.226292 25.695218 
L 536.296937 26.861086 
L 537.367581 28.359565 
L 538.705887 30.694546 
L 540.044192 33.534027 
L 541.382498 36.86679 
L 542.988464 41.498566 
L 544.594431 46.795263 
L 546.468059 53.774735 
L 548.609347 62.739492 
L 550.750636 72.67119 
L 553.159586 84.874804 
L 556.103858 101.050714 
L 559.583453 121.554132 
L 564.401352 151.444151 
L 572.163524 199.683932 
L 575.643119 219.908405 
L 578.587391 235.761311 
L 580.996341 247.645838 
L 583.405291 258.388897 
L 585.54658 266.868573 
L 587.420207 273.391556 
L 589.026174 278.275971 
L 590.632141 282.478546 
L 591.970446 285.442476 
L 593.308752 287.904526 
L 594.647057 289.854969 
L 595.717702 291.04172 
L 596.788346 291.893072 
L 597.85899 292.406871 
L 598.661974 292.569888 
L 599.464957 292.542051 
L 600.26794 292.3234 
L 601.070924 291.914246 
L 602.141568 291.073415 
L 603.212212 289.897104 
L 604.282857 288.388288 
L 605.621162 286.040573 
L 606.959468 283.188615 
L 608.297773 279.843681 
L 609.90374 275.19777 
L 611.509707 269.887528 
L 613.383334 262.893101 
L 615.524623 253.912513 
L 617.665912 243.966478 
L 620.074862 231.748704 
L 623.019134 215.558569 
L 626.498728 195.043051 
L 631.316628 165.145246 
L 632.387273 158.4 
L 632.387273 158.4 
" clip-path="url(#p372c60601a)" style="fill: none; stroke: #0060a8; stroke-width: 1.5; stroke-linecap: square"/>
   </g>
   <g id="patch_3">
    <path d="M 70.58 306 
L 70.58 10.8 
" style="fill: none; stroke: #000000; stroke-width: 0.8; stroke-linejoin: miter; stroke-linecap: square"/>
   </g>
   <g id="patch_4">
    <path d="M 659.14 306 
L 659.14 10.8 
" style="fill: none; stroke: #000000; stroke-width: 0.8; stroke-linejoin: miter; stroke-linecap: square"/>
   </g>
   <g id="patch_5">
    <path d="M 70.58 306 
L 659.14 306 
" style="fill: none; stroke: #000000; stroke-width: 0.8; stroke-linejoin: miter; stroke-linecap: square"/>
   </g>
   <g id="patch_6">
    <path d="M 70.58 10.8 
L 659.14 10.8 
" style="fill: none; stroke: #000000; stroke-width: 0.8; stroke-linejoin: miter; stroke-linecap: square"/>
   </g>
   <g id="legend_1">
    <g id="patch_7">
     <path d="M 608.163594 36.949375 
L 654.24 36.949375 
Q 655.64 36.949375 655.64 35.549375 
L 655.64 15.7 
Q 655.64 14.3 654.24 14.3 
L 608.163594 14.3 
Q 606.763594 14.3 606.763594 15.7 
L 606.763594 35.549375 
Q 606.763594 36.949375 608.163594 36.949375 
z
" style="fill: #ffffff; opacity: 0.8; stroke: #cccccc; stroke-linejoin: miter"/>
    </g>
    <g id="line2d_38">
     <path d="M 609.563594 19.968906 
L 616.563594 19.968906 
L 623.563594 19.968906 
" style="fill: none; stroke: #0060a8; stroke-width: 1.5; stroke-linecap: square"/>
    </g>
    <g id="text_21">
     <!-- v(vp) -->
     <g transform="translate(629.163594 22.418906) scale(0.07 -0.07)">
      <defs>
       <path id="DejaVuSans-76" d="M 191 3500 
L 800 3500 
L 1894 563 
L 2988 3500 
L 3597 3500 
L 2284 0 
L 1503 0 
L 191 3500 
z
" transform="scale(0.015625)"/>
       <path id="DejaVuSans-28" d="M 1984 4856 
Q 1566 4138 1362 3434 
Q 1159 2731 1159 2009 
Q 1159 1288 1364 580 
Q 1569 -128 1984 -844 
L 1484 -844 
Q 1016 -109 783 600 
Q 550 1309 550 2009 
Q 550 2706 781 3412 
Q 1013 4119 1484 4856 
L 1984 4856 
z
" transform="scale(0.015625)"/>
       <path id="DejaVuSans-70" d="M 1159 525 
L 1159 -1331 
L 581 -1331 
L 581 3500 
L 1159 3500 
L 1159 2969 
Q 1341 3281 1617 3432 
Q 1894 3584 2278 3584 
Q 2916 3584 3314 3078 
Q 3713 2572 3713 1747 
Q 3713 922 3314 415 
Q 2916 -91 2278 -91 
Q 1894 -91 1617 61 
Q 1341 213 1159 525 
z
M 3116 1747 
Q 3116 2381 2855 2742 
Q 2594 3103 2138 3103 
Q 1681 3103 1420 2742 
Q 1159 2381 1159 1747 
Q 1159 1113 1420 752 
Q 1681 391 2138 391 
Q 2594 391 2855 752 
Q 3116 1113 3116 1747 
z
" transform="scale(0.015625)"/>
       <path id="DejaVuSans-29" d="M 513 4856 
L 1013 4856 
Q 1481 4119 1714 3412 
Q 1947 2706 1947 2009 
Q 1947 1309 1714 600 
Q 1481 -109 1013 -844 
L 513 -844 
Q 928 -128 1133 580 
Q 1338 1288 1338 2009 
Q 1338 2731 1133 3434 
Q 928 4138 513 4856 
z
" transform="scale(0.015625)"/>
      </defs>
      <use xlink:href="#DejaVuSans-76"/>
      <use xlink:href="#DejaVuSans-28" transform="translate(59.179688 0)"/>
      <use xlink:href="#DejaVuSans-76" transform="translate(98.193359 0)"/>
      <use xlink:href="#DejaVuSans-70" transform="translate(157.373047 0)"/>
      <use xlink:href="#DejaVuSans-29" transform="translate(220.849609 0)"/>
     </g>
    </g>
    <g id="line2d_39">
     <path d="M 609.563594 30.243594 
L 616.563594 30.243594 
L 623.563594 30.243594 
" style="fill: none; stroke: #d45800; stroke-width: 1.5; stroke-linecap: square"/>
    </g>
    <g id="text_22">
     <!-- i(ibias) -->
     <g transform="translate(629.163594 32.693594) scale(0.07 -0.07)">
      <defs>
       <path id="DejaVuSans-62" d="M 3116 1747 
Q 3116 2381 2855 2742 
Q 2594 3103 2138 3103 
Q 1681 3103 1420 2742 
Q 1159 2381 1159 1747 
Q 1159 1113 1420 752 
Q 1681 391 2138 391 
Q 2594 391 2855 752 
Q 3116 1113 3116 1747 
z
M 1159 2969 
Q 1341 3281 1617 3432 
Q 1894 3584 2278 3584 
Q 2916 3584 3314 3078 
Q 3713 2572 3713 1747 
Q 3713 922 3314 415 
Q 2916 -91 2278 -91 
Q 1894 -91 1617 61 
Q 1341 213 1159 525 
L 1159 0 
L 581 0 
L 581 4863 
L 1159 4863 
L 1159 2969 
z
" transform="scale(0.015625)"/>
       <path id="DejaVuSans-61" d="M 2194 1759 
Q 1497 1759 1228 1600 
Q 959 1441 959 1056 
Q 959 750 1161 570 
Q 1363 391 1709 391 
Q 2188 391 2477 730 
Q 2766 1069 2766 1631 
L 2766 1759 
L 2194 1759 
z
M 3341 1997 
L 3341 0 
L 2766 0 
L 2766 531 
Q 2569 213 2275 61 
Q 1981 -91 1556 -91 
Q 1019 -91 701 211 
Q 384 513 384 1019 
Q 384 1609 779 1909 
Q 1175 2209 1959 2209 
L 2766 2209 
L 2766 2266 
Q 2766 2663 2505 2880 
Q 2244 3097 1772 3097 
Q 1472 3097 1187 3025 
Q 903 2953 641 2809 
L 641 3341 
Q 956 3463 1253 3523 
Q 1550 3584 1831 3584 
Q 2591 3584 2966 3190 
Q 3341 2797 3341 1997 
z
" transform="scale(0.015625)"/>
      </defs>
      <use xlink:href="#DejaVuSans-69"/>
      <use xlink:href="#DejaVuSans-28" transform="translate(27.783203 0)"/>
      <use xlink:href="#DejaVuSans-69" transform="translate(66.796875 0)"/>
      <use xlink:href="#DejaVuSans-62" transform="translate(94.580078 0)"/>
      <use xlink:href="#DejaVuSans-69" transform="translate(158.056641 0)"/>
      <use xlink:href="#DejaVuSans-61" transform="translate(185.839844 0)"/>
      <use xlink:href="#DejaVuSans-73" transform="translate(247.119141 0)"/>
      <use xlink:href="#DejaVuSans-29" transform="translate(299.21875 0)"/>
     </g>
    </g>
   </g>
  </g>
  <g id="axes_2">
   <g id="matplotlib.axis_3">
    <g id="ytick_10">
     <g id="line2d_40">
      <defs>
       <path id="mbc2d95e5e6" d="M 0 0 
L 3.5 0 
" style="stroke: #000000; stroke-width: 0.8"/>
      </defs>
      <g>
       <use xlink:href="#mbc2d95e5e6" x="659.14" y="265.745488" style="stroke: #000000; stroke-width: 0.8"/>
      </g>
     </g>
     <g id="text_23">
      <!-- 46 µA -->
      <g transform="translate(666.14 269.544706) scale(0.1 -0.1)">
       <defs>
        <path id="DejaVuSans-34" d="M 2419 4116 
L 825 1625 
L 2419 1625 
L 2419 4116 
z
M 2253 4666 
L 3047 4666 
L 3047 1625 
L 3713 1625 
L 3713 1100 
L 3047 1100 
L 3047 0 
L 2419 0 
L 2419 1100 
L 313 1100 
L 313 1709 
L 2253 4666 
z
" transform="scale(0.015625)"/>
        <path id="DejaVuSans-41" d="M 2188 4044 
L 1331 1722 
L 3047 1722 
L 2188 4044 
z
M 1831 4666 
L 2547 4666 
L 4325 0 
L 3669 0 
L 3244 1197 
L 1141 1197 
L 716 0 
L 50 0 
L 1831 4666 
z
" transform="scale(0.015625)"/>
       </defs>
       <use xlink:href="#DejaVuSans-34"/>
       <use xlink:href="#DejaVuSans-36" transform="translate(63.623047 0)"/>
       <use xlink:href="#DejaVuSans-20" transform="translate(127.246094 0)"/>
       <use xlink:href="#DejaVuSans-b5" transform="translate(159.033203 0)"/>
       <use xlink:href="#DejaVuSans-41" transform="translate(222.65625 0)"/>
      </g>
     </g>
    </g>
    <g id="ytick_11">
     <g id="line2d_41">
      <g>
       <use xlink:href="#mbc2d95e5e6" x="659.14" y="212.072744" style="stroke: #000000; stroke-width: 0.8"/>
      </g>
     </g>
     <g id="text_24">
      <!-- 48 µA -->
      <g transform="translate(666.14 215.871963) scale(0.1 -0.1)">
       <use xlink:href="#DejaVuSans-34"/>
       <use xlink:href="#DejaVuSans-38" transform="translate(63.623047 0)"/>
       <use xlink:href="#DejaVuSans-20" transform="translate(127.246094 0)"/>
       <use xlink:href="#DejaVuSans-b5" transform="translate(159.033203 0)"/>
       <use xlink:href="#DejaVuSans-41" transform="translate(222.65625 0)"/>
      </g>
     </g>
    </g>
    <g id="ytick_12">
     <g id="line2d_42">
      <g>
       <use xlink:href="#mbc2d95e5e6" x="659.14" y="158.4" style="stroke: #000000; stroke-width: 0.8"/>
      </g>
     </g>
     <g id="text_25">
      <!-- 50 µA -->
      <g transform="translate(666.14 162.199219) scale(0.1 -0.1)">
       <use xlink:href="#DejaVuSans-35"/>
       <use xlink:href="#DejaVuSans-30" transform="translate(63.623047 0)"/>
       <use xlink:href="#DejaVuSans-20" transform="translate(127.246094 0)"/>
       <use xlink:href="#DejaVuSans-b5" transform="translate(159.033203 0)"/>
       <use xlink:href="#DejaVuSans-41" transform="translate(222.65625 0)"/>
      </g>
     </g>
    </g>
    <g id="ytick_13">
     <g id="line2d_43">
      <g>
       <use xlink:href="#mbc2d95e5e6" x="659.14" y="104.727256" style="stroke: #000000; stroke-width: 0.8"/>
      </g>
     </g>
     <g id="text_26">
      <!-- 52 µA -->
      <g transform="translate(666.14 108.526475) scale(0.1 -0.1)">
       <use xlink:href="#DejaVuSans-35"/>
       <use xlink:href="#DejaVuSans-32" transform="translate(63.623047 0)"/>
       <use xlink:href="#DejaVuSans-20" transform="translate(127.246094 0)"/>
       <use xlink:href="#DejaVuSans-b5" transform="translate(159.033203 0)"/>
       <use xlink:href="#DejaVuSans-41" transform="translate(222.65625 0)"/>
      </g>
     </g>
    </g>
    <g id="ytick_14">
     <g id="line2d_44">
      <g>
       <use xlink:href="#mbc2d95e5e6" x="659.14" y="51.054512" style="stroke: #000000; stroke-width: 0.8"/>
      </g>
     </g>
     <g id="text_27">
      <!-- 54 µA -->
      <g transform="translate(666.14 54.853731) scale(0.1 -0.1)">
       <use xlink:href="#DejaVuSans-35"/>
       <use xlink:href="#DejaVuSans-34" transform="translate(63.623047 0)"/>
       <use xlink:href="#DejaVuSans-20" transform="translate(127.246094 0)"/>
       <use xlink:href="#DejaVuSans-b5" transform="translate(159.033203 0)"/>
       <use xlink:href="#DejaVuSans-41" transform="translate(222.65625 0)"/>
      </g>
     </g>
    </g>
    <g id="text_28">
     <!-- [A] -->
     <g transform="translate(706.844688 165.721875) rotate(-90) scale(0.1 -0.1)">
      <use xlink:href="#DejaVuSans-5b"/>
      <use xlink:href="#DejaVuSans-41" transform="translate(39.013672 0)"/>
      <use xlink:href="#DejaVuSans-5d" transform="translate(107.421875 0)"/>
     </g>
    </g>
   </g>
   <g id="line2d_45">
    <path d="M 97.332727 158.4 
L 104.024255 116.91547 
L 107.503849 96.704254 
L 110.448121 80.866483 
L 112.857071 68.996801 
L 114.99836 59.40153 
L 117.139649 50.806942 
L 119.013277 44.17611 
L 120.619243 39.194491 
L 122.22521 34.890899 
L 123.563515 31.840288 
L 124.901821 29.289651 
L 126.240126 27.249062 
L 127.310771 25.989313 
L 128.381415 25.064379 
L 129.45206 24.4766 
L 130.255043 24.257949 
L 131.058026 24.230112 
L 131.86101 24.393129 
L 132.663993 24.746768 
L 133.734637 25.5139 
L 134.805282 26.617049 
L 135.875926 28.053427 
L 136.946571 29.819401 
L 138.284876 32.483482 
L 139.623182 35.644995 
L 141.229148 40.077701 
L 142.835115 45.183409 
L 144.708743 51.951723 
L 146.58237 59.544 
L 148.723659 69.154162 
L 151.132609 81.038689 
L 153.80922 95.397158 
L 157.021153 113.919078 
L 161.303731 140.11074 
L 172.277836 208.015158 
L 175.489769 226.189773 
L 178.16638 240.175332 
L 180.57533 251.664473 
L 182.716619 260.879858 
L 184.590247 268.096512 
L 186.463875 274.464059 
L 188.069841 279.208588 
L 189.675808 283.265973 
L 191.014113 286.105454 
L 192.352419 288.440435 
L 193.423063 289.938914 
L 194.493708 291.104782 
L 195.564352 291.935091 
L 196.634997 292.427741 
L 197.43798 292.574859 
L 198.240963 292.531115 
L 199.043947 292.296574 
L 199.84693 291.871567 
L 200.917574 291.009698 
L 201.988219 289.812509 
L 203.058863 288.283029 
L 204.397169 285.909865 
L 205.735474 283.032974 
L 207.07378 279.663722 
L 208.679746 274.989577 
L 210.285713 269.652284 
L 212.159341 262.627999 
L 214.300629 253.615814 
L 216.441918 243.64118 
L 218.850868 231.395177 
L 221.79514 215.176711 
L 225.274735 194.637146 
L 230.360296 163.038388 
L 237.854806 116.514583 
L 241.334401 96.330029 
L 244.278673 80.522646 
L 246.687623 68.682741 
L 248.828912 59.117323 
L 250.970201 50.555461 
L 252.843828 43.955363 
L 254.449795 39.001455 
L 256.055762 34.726672 
L 257.394067 31.70079 
L 258.732373 29.175432 
L 260.070678 27.160575 
L 261.141322 25.921667 
L 262.211967 25.017746 
L 263.282611 24.451097 
L 264.085595 24.248339 
L 264.888578 24.236409 
L 265.691561 24.415324 
L 266.494545 24.784828 
L 267.565189 25.573027 
L 268.635833 26.697094 
L 269.706478 28.154187 
L 271.044783 30.438178 
L 272.383089 33.227681 
L 273.721394 36.511676 
L 275.327361 41.086799 
L 276.933328 46.329186 
L 278.806955 53.248668 
L 280.948244 62.149875 
L 283.089533 72.023984 
L 285.498483 84.170656 
L 288.442755 100.289265 
L 291.922349 120.74378 
L 296.740249 150.601917 
L 304.770082 200.485706 
L 308.249677 220.656854 
L 311.193949 236.448984 
L 313.602899 248.273957 
L 315.744188 257.824413 
L 317.885476 266.36988 
L 319.759104 272.954588 
L 321.365071 277.894621 
L 322.971037 282.154983 
L 324.309343 285.16849 
L 325.647648 287.681198 
L 326.985954 289.683182 
L 328.056598 290.911665 
L 329.127243 291.805077 
L 330.197887 292.361158 
L 331.00087 292.555969 
L 331.803854 292.559946 
L 332.606837 292.373083 
L 333.40982 291.995647 
L 334.480465 291.196917 
L 335.551109 290.062396 
L 336.621754 288.594951 
L 337.960059 286.298204 
L 339.298365 283.496196 
L 340.63667 280.199996 
L 342.242637 275.610693 
L 343.848603 270.354709 
L 345.722231 263.420204 
L 347.86352 254.503077 
L 350.004809 244.614533 
L 352.413759 232.453581 
L 355.358031 216.320587 
L 358.837625 195.85377 
L 363.655525 165.987552 
L 371.685358 116.114109 
L 375.164952 95.956417 
L 378.109225 80.179579 
L 380.518175 68.369567 
L 382.659463 58.834097 
L 384.800752 50.305046 
L 386.67438 43.735745 
L 388.280347 38.809598 
L 389.886313 34.563667 
L 391.224619 31.562544 
L 392.562924 29.062491 
L 393.90123 27.073384 
L 394.971874 25.85533 
L 396.042519 24.97243 
L 397.113163 24.426917 
L 397.916146 24.240054 
L 398.71913 24.244031 
L 399.522113 24.438842 
L 400.325096 24.824209 
L 401.395741 25.633466 
L 402.466385 26.778439 
L 403.537029 28.256233 
L 404.875335 30.56573 
L 406.21364 33.380236 
L 407.551946 36.688632 
L 409.157913 41.292104 
L 410.763879 46.561672 
L 412.637507 53.511183 
L 414.778796 62.444209 
L 416.920085 72.347162 
L 419.329035 84.522365 
L 422.273307 100.669704 
L 425.752901 121.148772 
L 430.570801 151.022998 
L 438.600634 200.885971 
L 442.080228 221.030158 
L 445.0245 236.791666 
L 447.43345 248.586687 
L 449.574739 258.107147 
L 451.716028 266.619761 
L 453.589656 273.173639 
L 455.195622 278.085887 
L 456.801589 282.317377 
L 458.139894 285.30611 
L 459.4782 287.793501 
L 460.816506 289.769725 
L 461.88715 290.977348 
L 462.957794 291.849733 
L 464.028439 292.384676 
L 464.831422 292.563591 
L 465.634405 292.551661 
L 466.437389 292.348903 
L 467.240372 291.955606 
L 468.311016 291.135822 
L 469.381661 289.9804 
L 470.452305 288.492262 
L 471.790611 286.170019 
L 473.128916 283.343022 
L 474.467222 280.022439 
L 476.073188 275.40481 
L 477.679155 270.12167 
L 479.552783 263.15717 
L 481.694072 254.208268 
L 483.83536 244.29093 
L 486.24431 232.101506 
L 489.188582 215.939862 
L 492.668177 195.448594 
L 497.486077 165.566434 
L 505.51591 115.714053 
L 508.995504 95.583422 
L 511.939776 79.837284 
L 514.348726 68.057282 
L 516.490015 58.551855 
L 518.631304 50.055699 
L 520.504932 43.517261 
L 522.110898 38.618923 
L 523.716865 34.401886 
L 525.05517 31.42555 
L 526.393476 28.950827 
L 527.731781 26.987491 
L 528.802426 25.790302 
L 529.87307 24.928433 
L 530.943715 24.404061 
L 531.746698 24.233095 
L 532.549681 24.252979 
L 533.352665 24.463683 
L 534.155648 24.864909 
L 535.226292 25.695218 
L 536.296937 26.861086 
L 537.367581 28.359565 
L 538.705887 30.694546 
L 540.044192 33.534027 
L 541.382498 36.86679 
L 542.988464 41.498566 
L 544.594431 46.795263 
L 546.468059 53.774735 
L 548.609347 62.739492 
L 550.750636 72.67119 
L 553.159586 84.874804 
L 556.103858 101.050714 
L 559.583453 121.554132 
L 564.401352 151.444151 
L 572.163524 199.683932 
L 575.643119 219.908405 
L 578.587391 235.761311 
L 580.996341 247.645838 
L 583.405291 258.388897 
L 585.54658 266.868573 
L 587.420207 273.391556 
L 589.026174 278.275971 
L 590.632141 282.478546 
L 591.970446 285.442476 
L 593.308752 287.904526 
L 594.647057 289.854969 
L 595.717702 291.04172 
L 596.788346 291.893072 
L 597.85899 292.406871 
L 598.661974 292.569888 
L 599.464957 292.542051 
L 600.26794 292.3234 
L 601.070924 291.914246 
L 602.141568 291.073415 
L 603.212212 289.897104 
L 604.282857 288.388288 
L 605.621162 286.040573 
L 606.959468 283.188615 
L 608.297773 279.843681 
L 609.90374 275.19777 
L 611.509707 269.887528 
L 613.383334 262.893101 
L 615.524623 253.912513 
L 617.665912 243.966478 
L 620.074862 231.748704 
L 623.019134 215.558569 
L 626.498728 195.043051 
L 631.316628 165.145246 
L 632.387273 158.4 
L 632.387273 158.4 
" clip-path="url(#p372c60601a)" style="fill: none; stroke: #d45800; stroke-width: 1.5; stroke-linecap: square"/>
   </g>
   <g id="patch_8">
    <path d="M 70.58 306 
L 70.58 10.8 
" style="fill: none; stroke: #000000; stroke-width: 0.8; stroke-linejoin: miter; stroke-linecap: square"/>
   </g>
   <g id="patch_9">
    <path d="M 659.14 306 
L 659.14 10.8 
" style="fill: none; stroke: #000000; stroke-width: 0.8; stroke-linejoin: miter; stroke-linecap: square"/>
   </g>
   <g id="patch_10">
    <path d="M 70.58 306 
L 659.14 306 
" style="fill: none; stroke: #000000; stroke-width: 0.8; stroke-linejoin: miter; stroke-linecap: square"/>
   </g>
   <g id="patch_11">
    <path d="M 70.58 10.8 
L 659.14 10.8 
" style="fill: none; stroke: #000000; stroke-width: 0.8; stroke-linejoin: miter; stroke-linecap: square"/>
   </g>
  </g>
  <g id="text_29">
   <!-- v(vp): μ=900 mV σ=282.772 mV  |  i(ibias): μ=50 µA σ=3.53465 µA -->
   <g style="fill: #666666" transform="translate(7.2 354.985313) scale(0.06 -0.06)">
    <defs>
     <path id="DejaVuSans-3a" d="M 750 794 
L 1409 794 
L 1409 0 
L 750 0 
L 750 794 
z
M 750 3309 
L 1409 3309 
L 1409 2516 
L 750 2516 
L 750 3309 
z
" transform="scale(0.015625)"/>
     <path id="DejaVuSans-3bc" d="M 544 -1331 
L 544 3500 
L 1119 3500 
L 1119 1325 
Q 1119 872 1334 640 
Q 1550 409 1972 409 
Q 2434 409 2667 671 
Q 2900 934 2900 1459 
L 2900 3500 
L 3475 3500 
L 3475 806 
Q 3475 619 3529 530 
Q 3584 441 3700 441 
Q 3728 441 3778 458 
Q 3828 475 3916 513 
L 3916 50 
Q 3788 -22 3673 -56 
Q 3559 -91 3450 -91 
Q 3234 -91 3106 31 
Q 2978 153 2931 403 
Q 2775 156 2548 32 
Q 2322 -91 2016 -91 
Q 1697 -91 1473 31 
Q 1250 153 1119 397 
L 1119 -1331 
L 544 -1331 
z
" transform="scale(0.015625)"/>
     <path id="DejaVuSans-3d" d="M 678 2906 
L 4684 2906 
L 4684 2381 
L 678 2381 
L 678 2906 
z
M 678 1631 
L 4684 1631 
L 4684 1100 
L 678 1100 
L 678 1631 
z
" transform="scale(0.015625)"/>
     <path id="DejaVuSans-3c3" d="M 1959 3044 
Q 1484 3044 1228 2700 
Q 959 2341 959 1747 
Q 959 1119 1226 758 
Q 1494 397 1959 397 
Q 2419 397 2687 759 
Q 2956 1122 2956 1747 
Q 2956 2319 2688 2700 
Q 2441 3044 1959 3044 
z
M 1959 3500 
L 3869 3500 
L 3869 2925 
L 3225 2925 
Q 3566 2438 3566 1747 
Q 3566 888 3138 400 
Q 2709 -91 1959 -91 
Q 1206 -91 781 400 
Q 353 888 353 1747 
Q 353 2613 781 3097 
Q 1134 3500 1959 3500 
z
" transform="scale(0.015625)"/>
     <path id="DejaVuSans-7c" d="M 1344 4891 
L 1344 -1509 
L 813 -1509 
L 813 4891 
L 1344 4891 
z
" transform="scale(0.015625)"/>
    </defs>
    <use xlink:href="#DejaVuSans-76"/>
    <use xlink:href="#DejaVuSans-28" transform="translate(59.179688 0)"/>
    <use xlink:href="#DejaVuSans-76" transform="translate(98.193359 0)"/>
    <use xlink:href="#DejaVuSans-70" transform="translate(157.373047 0)"/>
    <use xlink:href="#DejaVuSans-29" transform="translate(220.849609 0)"/>
    <use xlink:href="#DejaVuSans-3a" transform="translate(259.863281 0)"/>
    <use xlink:href="#DejaVuSans-20" transform="translate(293.554688 0)"/>
    <use xlink:href="#DejaVuSans-3bc" transform="translate(325.341797 0)"/>
    <use xlink:href="#DejaVuSans-3d" transform="translate(388.964844 0)"/>
    <use xlink:href="#DejaVuSans-39" transform="translate(472.753906 0)"/>
    <use xlink:href="#DejaVuSans-30" transform="translate(536.376953 0)"/>
    <use xlink:href="#DejaVuSans-30" transform="translate(600 0)"/>
    <use xlink:href="#DejaVuSans-20" transform="translate(663.623047 0)"/>
    <use xlink:href="#DejaVuSans-6d" transform="translate(695.410156 0)"/>
    <use xlink:href="#DejaVuSans-56" transform="translate(792.822266 0)"/>
    <use xlink:href="#DejaVuSans-20" transform="translate(861.230469 0)"/>
    <use xlink:href="#DejaVuSans-3c3" transform="translate(893.017578 0)"/>
    <use xlink:href="#DejaVuSans-3d" transform="translate(956.396484 0)"/>
    <use xlink:href="#DejaVuSans-32" transform="translate(1040.185547 0)"/>
    <use xlink:href="#DejaVuSans-38" transform="translate(1103.808594 0)"/>
    <use xlink:href="#DejaVuSans-32" transform="translate(1167.431641 0)"/>
    <use xlink:href="#DejaVuSans-2e" transform="translate(1231.054688 0)"/>
    <use xlink:href="#DejaVuSans-37" transform="translate(1262.841797 0)"/>
    <use xlink:href="#DejaVuSans-37" transform="translate(1326.464844 0)"/>
    <use xlink:href="#DejaVuSans-32" transform="translate(1390.087891 0)"/>
    <use xlink:href="#DejaVuSans-20" transform="translate(1453.710938 0)"/>
    <use xlink:href="#DejaVuSans-6d" transform="translate(1485.498047 0)"/>
    <use xlink:href="#DejaVuSans-56" transform="translate(1582.910156 0)"/>
    <use xlink:href="#DejaVuSans-20" transform="translate(1651.318359 0)"/>
    <use xlink:href="#DejaVuSans-20" transform="translate(1683.105469 0)"/>
    <use xlink:href="#DejaVuSans-7c" transform="translate(1714.892578 0)"/>
    <use xlink:href="#DejaVuSans-20" transform="translate(1748.583984 0)"/>
    <use xlink:href="#DejaVuSans-20" transform="translate(1780.371094 0)"/>
    <use xlink:href="#DejaVuSans-69" transform="translate(1812.158203 0)"/>
    <use xlink:href="#DejaVuSans-28" transform="translate(1839.941406 0)"/>
    <use xlink:href="#DejaVuSans-69" transform="translate(1878.955078 0)"/>
    <use xlink:href="#DejaVuSans-62" transform="translate(1906.738281 0)"/>
    <use xlink:href="#DejaVuSans-69" transform="translate(1970.214844 0)"/>
    <use xlink:href="#DejaVuSans-61" transform="translate(1997.998047 0)"/>
    <use xlink:href="#DejaVuSans-73" transform="translate(2059.277344 0)"/>
    <use xlink:href="#DejaVuSans-29" transform="translate(2111.376953 0)"/>
    <use xlink:href="#DejaVuSans-3a" transform="translate(2150.390625 0)"/>
    <use xlink:href="#DejaVuSans-20" transform="translate(2184.082031 0)"/>
    <use xlink:href="#DejaVuSans-3bc" transform="translate(2215.869141 0)"/>
    <use xlink:href="#DejaVuSans-3d" transform="translate(2279.492188 0)"/>
    <use xlink:href="#DejaVuSans-35" transform="translate(2363.28125 0)"/>
    <use xlink:href="#DejaVuSans-30" transform="translate(2426.904297 0)"/>
    <use xlink:href="#DejaVuSans-20" transform="translate(2490.527344 0)"/>
    <use xlink:href="#DejaVuSans-b5" transform="translate(2522.314453 0)"/>
    <use xlink:href="#DejaVuSans-41" transform="translate(2585.9375 0)"/>
    <use xlink:href="#DejaVuSans-20" transform="translate(2654.345703 0)"/>
    <use xlink:href="#DejaVuSans-3c3" transform="translate(2686.132812 0)"/>
    <use xlink:href="#DejaVuSans-3d" transform="translate(2749.511719 0)"/>
    <use xlink:href="#DejaVuSans-33" transform="translate(2833.300781 0)"/>
    <use xlink:href="#DejaVuSans-2e" transform="translate(2896.923828 0)"/>
    <use xlink:href="#DejaVuSans-35" transform="translate(2928.710938 0)"/>
    <use xlink:href="#DejaVuSans-33" transform="translate(2992.333984 0)"/>
    <use xlink:href="#DejaVuSans-34" transform="translate(3055.957031 0)"/>
    <use xlink:href="#DejaVuSans-36" transform="translate(3119.580078 0)"/>
    <use xlink:href="#DejaVuSans-35" transform="translate(3183.203125 0)"/>
    <use xlink:href="#DejaVuSans-20" transform="translate(3246.826172 0)"/>
    <use xlink:href="#DejaVuSans-b5" transform="translate(3278.613281 0)"/>
    <use xlink:href="#DejaVuSans-41" transform="translate(3342.236328 0)"/>
   </g>
  </g>
 </g>
 <defs>
  <clipPath id="p372c60601a">
   <rect x="70.58" y="10.8" width="588.56" height="295.2"/>
  </clipPath>
 </defs>
</svg>
