<?xml version="1.0" encoding="utf-8" standalone="no"?>
<!DOCTYPE svg PUBLIC "-//W3C//DTD SVG 1.1//EN"
  "http://www.w3.org/Graphics/SVG/1.1/DTD/svg11.dtd">
<svg xmlns:xlink="http://www.w3.org/1999/xlink" width="720pt" height="360pt" viewBox="0 0 720 360" xmlns="http://www.w3.org/2000/svg" version="1.1">
 <metadata>
  <rdf:RDF xmlns:dc="http://purl.org/dc/elements/1.1/" xmlns:cc="http://creativecommons.org/ns#" xmlns:rdf="http://www.w3.org/1999/02/22-rdf-syntax-ns#">
   <cc:Work>
    <dc:type rdf:resource="http://purl.org/dc/dcmitype/StillImage"/>
    <dc:date>2026-03-12T21:06:00.480366</dc:date>
    <dc:format>image/svg+xml</dc:format>
    <dc:creator>
     <cc:Agent>
      <dc:title>Matplotlib v3.10.0, https://matplotlib.org/</dc:title>
     </cc:Agent>
    </dc:creator>
   </cc:Work>
  </rdf:RDF>
 </metadata>
 <defs>
  <style type="text/css">*{stroke-linejoin: round; stroke-linecap: butt}</style>
 </defs>
 <g id="figure_1">
  <g id="patch_1">
   <path d="M 0 360 
L 720 360 
L 720 0 
L 0 0 
z
" style="fill: #ffffff"/>
  </g>
  <g id="axes_1">
   <g id="patch_2">
    <path d="M 70.49 306 
L 709.2 306 
L 709.2 10.8 
L 70.49 10.8 
z
" style="fill: #ffffff"/>
   </g>
   <g id="matplotlib.axis_1">
    <g id="xtick_1">
     <g id="line2d_1">
      <path d="M 99.522273 306 
L 99.522273 10.8 
" clip-path="url(#p31d23e83c1)" style="fill: none; stroke: #b0b0b0; stroke-opacity: 0.3; stroke-width: 0.8; stroke-linecap: square"/>
     </g>
     <g id="line2d_2">
      <defs>
       <path id="m541b90b52b" d="M 0 0 
L 0 3.5 
" style="stroke: #000000; stroke-width: 0.8"/>
      </defs>
      <g>
       <use xlink:href="#m541b90b52b" x="99.522273" y="306" style="stroke: #000000; stroke-width: 0.8"/>
      </g>
     </g>
     <g id="text_1">
      <!-- 0 s -->
      <g transform="translate(92.147273 320.598437) scale(0.1 -0.1)">
       <defs>
        <path id="DejaVuSans-30" d="M 2034 4250 
Q 1547 4250 1301 3770 
Q 1056 3291 1056 2328 
Q 1056 1369 1301 889 
Q 1547 409 2034 409 
Q 2525 409 2770 889 
Q 3016 1369 3016 2328 
Q 3016 3291 2770 3770 
Q 2525 4250 2034 4250 
z
M 2034 4750 
Q 2819 4750 3233 4129 
Q 3647 3509 3647 2328 
Q 3647 1150 3233 529 
Q 2819 -91 2034 -91 
Q 1250 -91 836 529 
Q 422 1150 422 2328 
Q 422 3509 836 4129 
Q 1250 4750 2034 4750 
z
" transform="scale(0.015625)"/>
        <path id="DejaVuSans-20" transform="scale(0.015625)"/>
        <path id="DejaVuSans-73" d="M 2834 3397 
L 2834 2853 
Q 2591 2978 2328 3040 
Q 2066 3103 1784 3103 
Q 1356 3103 1142 2972 
Q 928 2841 928 2578 
Q 928 2378 1081 2264 
Q 1234 2150 1697 2047 
L 1894 2003 
Q 2506 1872 2764 1633 
Q 3022 1394 3022 966 
Q 3022 478 2636 193 
Q 2250 -91 1575 -91 
Q 1294 -91 989 -36 
Q 684 19 347 128 
L 347 722 
Q 666 556 975 473 
Q 1284 391 1588 391 
Q 1994 391 2212 530 
Q 2431 669 2431 922 
Q 2431 1156 2273 1281 
Q 2116 1406 1581 1522 
L 1381 1569 
Q 847 1681 609 1914 
Q 372 2147 372 2553 
Q 372 3047 722 3315 
Q 1072 3584 1716 3584 
Q 2034 3584 2315 3537 
Q 2597 3491 2834 3397 
z
" transform="scale(0.015625)"/>
       </defs>
       <use xlink:href="#DejaVuSans-30"/>
       <use xlink:href="#DejaVuSans-20" transform="translate(63.623047 0)"/>
       <use xlink:href="#DejaVuSans-73" transform="translate(95.410156 0)"/>
      </g>
     </g>
    </g>
    <g id="xtick_2">
     <g id="line2d_3">
      <path d="M 172.102955 306 
L 172.102955 10.8 
" clip-path="url(#p31d23e83c1)" style="fill: none; stroke: #b0b0b0; stroke-opacity: 0.3; stroke-width: 0.8; stroke-linecap: square"/>
     </g>
     <g id="line2d_4">
      <g>
       <use xlink:href="#m541b90b52b" x="172.102955" y="306" style="stroke: #000000; stroke-width: 0.8"/>
      </g>
     </g>
     <g id="text_2">
      <!-- 250 ns -->
      <g transform="translate(155.196705 320.598437) scale(0.1 -0.1)">
       <defs>
        <path id="DejaVuSans-32" d="M 1228 531 
L 3431 531 
L 3431 0 
L 469 0 
L 469 531 
Q 828 903 1448 1529 
Q 2069 2156 2228 2338 
Q 2531 2678 2651 2914 
Q 2772 3150 2772 3378 
Q 2772 3750 2511 3984 
Q 2250 4219 1831 4219 
Q 1534 4219 1204 4116 
Q 875 4013 500 3803 
L 500 4441 
Q 881 4594 1212 4672 
Q 1544 4750 1819 4750 
Q 2544 4750 2975 4387 
Q 3406 4025 3406 3419 
Q 3406 3131 3298 2873 
Q 3191 2616 2906 2266 
Q 2828 2175 2409 1742 
Q 1991 1309 1228 531 
z
" transform="scale(0.015625)"/>
        <path id="DejaVuSans-35" d="M 691 4666 
L 3169 4666 
L 3169 4134 
L 1269 4134 
L 1269 2991 
Q 1406 3038 1543 3061 
Q 1681 3084 1819 3084 
Q 2600 3084 3056 2656 
Q 3513 2228 3513 1497 
Q 3513 744 3044 326 
Q 2575 -91 1722 -91 
Q 1428 -91 1123 -41 
Q 819 9 494 109 
L 494 744 
Q 775 591 1075 516 
Q 1375 441 1709 441 
Q 2250 441 2565 725 
Q 2881 1009 2881 1497 
Q 2881 1984 2565 2268 
Q 2250 2553 1709 2553 
Q 1456 2553 1204 2497 
Q 953 2441 691 2322 
L 691 4666 
z
" transform="scale(0.015625)"/>
        <path id="DejaVuSans-6e" d="M 3513 2113 
L 3513 0 
L 2938 0 
L 2938 2094 
Q 2938 2591 2744 2837 
Q 2550 3084 2163 3084 
Q 1697 3084 1428 2787 
Q 1159 2491 1159 1978 
L 1159 0 
L 581 0 
L 581 3500 
L 1159 3500 
L 1159 2956 
Q 1366 3272 1645 3428 
Q 1925 3584 2291 3584 
Q 2894 3584 3203 3211 
Q 3513 2838 3513 2113 
z
" transform="scale(0.015625)"/>
       </defs>
       <use xlink:href="#DejaVuSans-32"/>
       <use xlink:href="#DejaVuSans-35" transform="translate(63.623047 0)"/>
       <use xlink:href="#DejaVuSans-30" transform="translate(127.246094 0)"/>
       <use xlink:href="#DejaVuSans-20" transform="translate(190.869141 0)"/>
       <use xlink:href="#DejaVuSans-6e" transform="translate(222.65625 0)"/>
       <use xlink:href="#DejaVuSans-73" transform="translate(286.035156 0)"/>
      </g>
     </g>
    </g>
    <g id="xtick_3">
     <g id="line2d_5">
      <path d="M 244.683636 306 
L 244.683636 10.8 
" clip-path="url(#p31d23e83c1)" style="fill: none; stroke: #b0b0b0; stroke-opacity: 0.3; stroke-width: 0.8; stroke-linecap: square"/>
     </g>
     <g id="line2d_6">
      <g>
       <use xlink:href="#m541b90b52b" x="244.683636" y="306" style="stroke: #000000; stroke-width: 0.8"/>
      </g>
     </g>
     <g id="text_3">
      <!-- 500 ns -->
      <g transform="translate(227.777386 320.598437) scale(0.1 -0.1)">
       <use xlink:href="#DejaVuSans-35"/>
       <use xlink:href="#DejaVuSans-30" transform="translate(63.623047 0)"/>
       <use xlink:href="#DejaVuSans-30" transform="translate(127.246094 0)"/>
       <use xlink:href="#DejaVuSans-20" transform="translate(190.869141 0)"/>
       <use xlink:href="#DejaVuSans-6e" transform="translate(222.65625 0)"/>
       <use xlink:href="#DejaVuSans-73" transform="translate(286.035156 0)"/>
      </g>
     </g>
    </g>
    <g id="xtick_4">
     <g id="line2d_7">
      <path d="M 317.264318 306 
L 317.264318 10.8 
" clip-path="url(#p31d23e83c1)" style="fill: none; stroke: #b0b0b0; stroke-opacity: 0.3; stroke-width: 0.8; stroke-linecap: square"/>
     </g>
     <g id="line2d_8">
      <g>
       <use xlink:href="#m541b90b52b" x="317.264318" y="306" style="stroke: #000000; stroke-width: 0.8"/>
      </g>
     </g>
     <g id="text_4">
      <!-- 750 ns -->
      <g transform="translate(300.358068 320.598437) scale(0.1 -0.1)">
       <defs>
        <path id="DejaVuSans-37" d="M 525 4666 
L 3525 4666 
L 3525 4397 
L 1831 0 
L 1172 0 
L 2766 4134 
L 525 4134 
L 525 4666 
z
" transform="scale(0.015625)"/>
       </defs>
       <use xlink:href="#DejaVuSans-37"/>
       <use xlink:href="#DejaVuSans-35" transform="translate(63.623047 0)"/>
       <use xlink:href="#DejaVuSans-30" transform="translate(127.246094 0)"/>
       <use xlink:href="#DejaVuSans-20" transform="translate(190.869141 0)"/>
       <use xlink:href="#DejaVuSans-6e" transform="translate(222.65625 0)"/>
       <use xlink:href="#DejaVuSans-73" transform="translate(286.035156 0)"/>
      </g>
     </g>
    </g>
    <g id="xtick_5">
     <g id="line2d_9">
      <path d="M 389.845 306 
L 389.845 10.8 
" clip-path="url(#p31d23e83c1)" style="fill: none; stroke: #b0b0b0; stroke-opacity: 0.3; stroke-width: 0.8; stroke-linecap: square"/>
     </g>
     <g id="line2d_10">
      <g>
       <use xlink:href="#m541b90b52b" x="389.845" y="306" style="stroke: #000000; stroke-width: 0.8"/>
      </g>
     </g>
     <g id="text_5">
      <!-- 1 µs -->
      <g transform="translate(379.28875 320.598437) scale(0.1 -0.1)">
       <defs>
        <path id="DejaVuSans-31" d="M 794 531 
L 1825 531 
L 1825 4091 
L 703 3866 
L 703 4441 
L 1819 4666 
L 2450 4666 
L 2450 531 
L 3481 531 
L 3481 0 
L 794 0 
L 794 531 
z
" transform="scale(0.015625)"/>
        <path id="DejaVuSans-b5" d="M 544 -1331 
L 544 3500 
L 1119 3500 
L 1119 1325 
Q 1119 872 1334 640 
Q 1550 409 1972 409 
Q 2434 409 2667 671 
Q 2900 934 2900 1459 
L 2900 3500 
L 3475 3500 
L 3475 806 
Q 3475 619 3529 530 
Q 3584 441 3700 441 
Q 3728 441 3778 458 
Q 3828 475 3916 513 
L 3916 50 
Q 3788 -22 3673 -56 
Q 3559 -91 3450 -91 
Q 3234 -91 3106 31 
Q 2978 153 2931 403 
Q 2775 156 2548 32 
Q 2322 -91 2016 -91 
Q 1697 -91 1473 31 
Q 1250 153 1119 397 
L 1119 -1331 
L 544 -1331 
z
" transform="scale(0.015625)"/>
       </defs>
       <use xlink:href="#DejaVuSans-31"/>
       <use xlink:href="#DejaVuSans-20" transform="translate(63.623047 0)"/>
       <use xlink:href="#DejaVuSans-b5" transform="translate(95.410156 0)"/>
       <use xlink:href="#DejaVuSans-73" transform="translate(159.033203 0)"/>
      </g>
     </g>
    </g>
    <g id="xtick_6">
     <g id="line2d_11">
      <path d="M 462.425682 306 
L 462.425682 10.8 
" clip-path="url(#p31d23e83c1)" style="fill: none; stroke: #b0b0b0; stroke-opacity: 0.3; stroke-width: 0.8; stroke-linecap: square"/>
     </g>
     <g id="line2d_12">
      <g>
       <use xlink:href="#m541b90b52b" x="462.425682" y="306" style="stroke: #000000; stroke-width: 0.8"/>
      </g>
     </g>
     <g id="text_6">
      <!-- 1.25 µs -->
      <g transform="translate(443.917869 320.598437) scale(0.1 -0.1)">
       <defs>
        <path id="DejaVuSans-2e" d="M 684 794 
L 1344 794 
L 1344 0 
L 684 0 
L 684 794 
z
" transform="scale(0.015625)"/>
       </defs>
       <use xlink:href="#DejaVuSans-31"/>
       <use xlink:href="#DejaVuSans-2e" transform="translate(63.623047 0)"/>
       <use xlink:href="#DejaVuSans-32" transform="translate(95.410156 0)"/>
       <use xlink:href="#DejaVuSans-35" transform="translate(159.033203 0)"/>
       <use xlink:href="#DejaVuSans-20" transform="translate(222.65625 0)"/>
       <use xlink:href="#DejaVuSans-b5" transform="translate(254.443359 0)"/>
       <use xlink:href="#DejaVuSans-73" transform="translate(318.066406 0)"/>
      </g>
     </g>
    </g>
    <g id="xtick_7">
     <g id="line2d_13">
      <path d="M 535.006364 306 
L 535.006364 10.8 
" clip-path="url(#p31d23e83c1)" style="fill: none; stroke: #b0b0b0; stroke-opacity: 0.3; stroke-width: 0.8; stroke-linecap: square"/>
     </g>
     <g id="line2d_14">
      <g>
       <use xlink:href="#m541b90b52b" x="535.006364" y="306" style="stroke: #000000; stroke-width: 0.8"/>
      </g>
     </g>
     <g id="text_7">
      <!-- 1.5 µs -->
      <g transform="translate(519.679801 320.598437) scale(0.1 -0.1)">
       <use xlink:href="#DejaVuSans-31"/>
       <use xlink:href="#DejaVuSans-2e" transform="translate(63.623047 0)"/>
       <use xlink:href="#DejaVuSans-35" transform="translate(95.410156 0)"/>
       <use xlink:href="#DejaVuSans-20" transform="translate(159.033203 0)"/>
       <use xlink:href="#DejaVuSans-b5" transform="translate(190.820312 0)"/>
       <use xlink:href="#DejaVuSans-73" transform="translate(254.443359 0)"/>
      </g>
     </g>
    </g>
    <g id="xtick_8">
     <g id="line2d_15">
      <path d="M 607.587045 306 
L 607.587045 10.8 
" clip-path="url(#p31d23e83c1)" style="fill: none; stroke: #b0b0b0; stroke-opacity: 0.3; stroke-width: 0.8; stroke-linecap: square"/>
     </g>
     <g id="line2d_16">
      <g>
       <use xlink:href="#m541b90b52b" x="607.587045" y="306" style="stroke: #000000; stroke-width: 0.8"/>
      </g>
     </g>
     <g id="text_8">
      <!-- 1.75 µs -->
      <g transform="translate(589.079233 320.598437) scale(0.1 -0.1)">
       <use xlink:href="#DejaVuSans-31"/>
       <use xlink:href="#DejaVuSans-2e" transform="translate(63.623047 0)"/>
       <use xlink:href="#DejaVuSans-37" transform="translate(95.410156 0)"/>
       <use xlink:href="#DejaVuSans-35" transform="translate(159.033203 0)"/>
       <use xlink:href="#DejaVuSans-20" transform="translate(222.65625 0)"/>
       <use xlink:href="#DejaVuSans-b5" transform="translate(254.443359 0)"/>
       <use xlink:href="#DejaVuSans-73" transform="translate(318.066406 0)"/>
      </g>
     </g>
    </g>
    <g id="xtick_9">
     <g id="line2d_17">
      <path d="M 680.167727 306 
L 680.167727 10.8 
" clip-path="url(#p31d23e83c1)" style="fill: none; stroke: #b0b0b0; stroke-opacity: 0.3; stroke-width: 0.8; stroke-linecap: square"/>
     </g>
     <g id="line2d_18">
      <g>
       <use xlink:href="#m541b90b52b" x="680.167727" y="306" style="stroke: #000000; stroke-width: 0.8"/>
      </g>
     </g>
     <g id="text_9">
      <!-- 2 µs -->
      <g transform="translate(669.611477 320.598437) scale(0.1 -0.1)">
       <use xlink:href="#DejaVuSans-32"/>
       <use xlink:href="#DejaVuSans-20" transform="translate(63.623047 0)"/>
       <use xlink:href="#DejaVuSans-b5" transform="translate(95.410156 0)"/>
       <use xlink:href="#DejaVuSans-73" transform="translate(159.033203 0)"/>
      </g>
     </g>
    </g>
    <g id="text_10">
     <!-- Time [s] -->
     <g transform="translate(369.516094 334.276563) scale(0.1 -0.1)">
      <defs>
       <path id="DejaVuSans-54" d="M -19 4666 
L 3928 4666 
L 3928 4134 
L 2272 4134 
L 2272 0 
L 1638 0 
L 1638 4134 
L -19 4134 
L -19 4666 
z
" transform="scale(0.015625)"/>
       <path id="DejaVuSans-69" d="M 603 3500 
L 1178 3500 
L 1178 0 
L 603 0 
L 603 3500 
z
M 603 4863 
L 1178 4863 
L 1178 4134 
L 603 4134 
L 603 4863 
z
" transform="scale(0.015625)"/>
       <path id="DejaVuSans-6d" d="M 3328 2828 
Q 3544 3216 3844 3400 
Q 4144 3584 4550 3584 
Q 5097 3584 5394 3201 
Q 5691 2819 5691 2113 
L 5691 0 
L 5113 0 
L 5113 2094 
Q 5113 2597 4934 2840 
Q 4756 3084 4391 3084 
Q 3944 3084 3684 2787 
Q 3425 2491 3425 1978 
L 3425 0 
L 2847 0 
L 2847 2094 
Q 2847 2600 2669 2842 
Q 2491 3084 2119 3084 
Q 1678 3084 1418 2786 
Q 1159 2488 1159 1978 
L 1159 0 
L 581 0 
L 581 3500 
L 1159 3500 
L 1159 2956 
Q 1356 3278 1631 3431 
Q 1906 3584 2284 3584 
Q 2666 3584 2933 3390 
Q 3200 3197 3328 2828 
z
" transform="scale(0.015625)"/>
       <path id="DejaVuSans-65" d="M 3597 1894 
L 3597 1613 
L 953 1613 
Q 991 1019 1311 708 
Q 1631 397 2203 397 
Q 2534 397 2845 478 
Q 3156 559 3463 722 
L 3463 178 
Q 3153 47 2828 -22 
Q 2503 -91 2169 -91 
Q 1331 -91 842 396 
Q 353 884 353 1716 
Q 353 2575 817 3079 
Q 1281 3584 2069 3584 
Q 2775 3584 3186 3129 
Q 3597 2675 3597 1894 
z
M 3022 2063 
Q 3016 2534 2758 2815 
Q 2500 3097 2075 3097 
Q 1594 3097 1305 2825 
Q 1016 2553 972 2059 
L 3022 2063 
z
" transform="scale(0.015625)"/>
       <path id="DejaVuSans-5b" d="M 550 4863 
L 1875 4863 
L 1875 4416 
L 1125 4416 
L 1125 -397 
L 1875 -397 
L 1875 -844 
L 550 -844 
L 550 4863 
z
" transform="scale(0.015625)"/>
       <path id="DejaVuSans-5d" d="M 1947 4863 
L 1947 -844 
L 622 -844 
L 622 -397 
L 1369 -397 
L 1369 4416 
L 622 4416 
L 622 4863 
L 1947 4863 
z
" transform="scale(0.015625)"/>
      </defs>
      <use xlink:href="#DejaVuSans-54"/>
      <use xlink:href="#DejaVuSans-69" transform="translate(57.958984 0)"/>
      <use xlink:href="#DejaVuSans-6d" transform="translate(85.742188 0)"/>
      <use xlink:href="#DejaVuSans-65" transform="translate(183.154297 0)"/>
      <use xlink:href="#DejaVuSans-20" transform="translate(244.677734 0)"/>
      <use xlink:href="#DejaVuSans-5b" transform="translate(276.464844 0)"/>
      <use xlink:href="#DejaVuSans-73" transform="translate(315.478516 0)"/>
      <use xlink:href="#DejaVuSans-5d" transform="translate(367.578125 0)"/>
     </g>
    </g>
   </g>
   <g id="matplotlib.axis_2">
    <g id="ytick_1">
     <g id="line2d_19">
      <path d="M 70.49 292.581818 
L 709.2 292.581818 
" clip-path="url(#p31d23e83c1)" style="fill: none; stroke: #b0b0b0; stroke-opacity: 0.3; stroke-width: 0.8; stroke-linecap: square"/>
     </g>
     <g id="line2d_20">
      <defs>
       <path id="m4e629e1e92" d="M 0 0 
L -3.5 0 
" style="stroke: #000000; stroke-width: 0.8"/>
      </defs>
      <g>
       <use xlink:href="#m4e629e1e92" x="70.49" y="292.581818" style="stroke: #000000; stroke-width: 0.8"/>
      </g>
     </g>
     <g id="text_11">
      <!-- 0 V -->
      <g transform="translate(47.10875 296.381037) scale(0.1 -0.1)">
       <defs>
        <path id="DejaVuSans-56" d="M 1831 0 
L 50 4666 
L 709 4666 
L 2188 738 
L 3669 4666 
L 4325 4666 
L 2547 0 
L 1831 0 
z
" transform="scale(0.015625)"/>
       </defs>
       <use xlink:href="#DejaVuSans-30"/>
       <use xlink:href="#DejaVuSans-20" transform="translate(63.623047 0)"/>
       <use xlink:href="#DejaVuSans-56" transform="translate(95.410156 0)"/>
      </g>
     </g>
    </g>
    <g id="ytick_2">
     <g id="line2d_21">
      <path d="M 70.49 255.309091 
L 709.2 255.309091 
" clip-path="url(#p31d23e83c1)" style="fill: none; stroke: #b0b0b0; stroke-opacity: 0.3; stroke-width: 0.8; stroke-linecap: square"/>
     </g>
     <g id="line2d_22">
      <g>
       <use xlink:href="#m4e629e1e92" x="70.49" y="255.309091" style="stroke: #000000; stroke-width: 0.8"/>
      </g>
     </g>
     <g id="text_12">
      <!-- 250 mV -->
      <g transform="translate(24.643125 259.10831) scale(0.1 -0.1)">
       <use xlink:href="#DejaVuSans-32"/>
       <use xlink:href="#DejaVuSans-35" transform="translate(63.623047 0)"/>
       <use xlink:href="#DejaVuSans-30" transform="translate(127.246094 0)"/>
       <use xlink:href="#DejaVuSans-20" transform="translate(190.869141 0)"/>
       <use xlink:href="#DejaVuSans-6d" transform="translate(222.65625 0)"/>
       <use xlink:href="#DejaVuSans-56" transform="translate(320.068359 0)"/>
      </g>
     </g>
    </g>
    <g id="ytick_3">
     <g id="line2d_23">
      <path d="M 70.49 218.036364 
L 709.2 218.036364 
" clip-path="url(#p31d23e83c1)" style="fill: none; stroke: #b0b0b0; stroke-opacity: 0.3; stroke-width: 0.8; stroke-linecap: square"/>
     </g>
     <g id="line2d_24">
      <g>
       <use xlink:href="#m4e629e1e92" x="70.49" y="218.036364" style="stroke: #000000; stroke-width: 0.8"/>
      </g>
     </g>
     <g id="text_13">
      <!-- 500 mV -->
      <g transform="translate(24.643125 221.835582) scale(0.1 -0.1)">
       <use xlink:href="#DejaVuSans-35"/>
       <use xlink:href="#DejaVuSans-30" transform="translate(63.623047 0)"/>
       <use xlink:href="#DejaVuSans-30" transform="translate(127.246094 0)"/>
       <use xlink:href="#DejaVuSans-20" transform="translate(190.869141 0)"/>
       <use xlink:href="#DejaVuSans-6d" transform="translate(222.65625 0)"/>
       <use xlink:href="#DejaVuSans-56" transform="translate(320.068359 0)"/>
      </g>
     </g>
    </g>
    <g id="ytick_4">
     <g id="line2d_25">
      <path d="M 70.49 180.763636 
L 709.2 180.763636 
" clip-path="url(#p31d23e83c1)" style="fill: none; stroke: #b0b0b0; stroke-opacity: 0.3; stroke-width: 0.8; stroke-linecap: square"/>
     </g>
     <g id="line2d_26">
      <g>
       <use xlink:href="#m4e629e1e92" x="70.49" y="180.763636" style="stroke: #000000; stroke-width: 0.8"/>
      </g>
     </g>
     <g id="text_14">
      <!-- 750 mV -->
      <g transform="translate(24.643125 184.562855) scale(0.1 -0.1)">
       <use xlink:href="#DejaVuSans-37"/>
       <use xlink:href="#DejaVuSans-35" transform="translate(63.623047 0)"/>
       <use xlink:href="#DejaVuSans-30" transform="translate(127.246094 0)"/>
       <use xlink:href="#DejaVuSans-20" transform="translate(190.869141 0)"/>
       <use xlink:href="#DejaVuSans-6d" transform="translate(222.65625 0)"/>
       <use xlink:href="#DejaVuSans-56" transform="translate(320.068359 0)"/>
      </g>
     </g>
    </g>
    <g id="ytick_5">
     <g id="line2d_27">
      <path d="M 70.49 143.490909 
L 709.2 143.490909 
" clip-path="url(#p31d23e83c1)" style="fill: none; stroke: #b0b0b0; stroke-opacity: 0.3; stroke-width: 0.8; stroke-linecap: square"/>
     </g>
     <g id="line2d_28">
      <g>
       <use xlink:href="#m4e629e1e92" x="70.49" y="143.490909" style="stroke: #000000; stroke-width: 0.8"/>
      </g>
     </g>
     <g id="text_15">
      <!-- 1 V -->
      <g transform="translate(47.10875 147.290128) scale(0.1 -0.1)">
       <use xlink:href="#DejaVuSans-31"/>
       <use xlink:href="#DejaVuSans-20" transform="translate(63.623047 0)"/>
       <use xlink:href="#DejaVuSans-56" transform="translate(95.410156 0)"/>
      </g>
     </g>
    </g>
    <g id="ytick_6">
     <g id="line2d_29">
      <path d="M 70.49 106.218182 
L 709.2 106.218182 
" clip-path="url(#p31d23e83c1)" style="fill: none; stroke: #b0b0b0; stroke-opacity: 0.3; stroke-width: 0.8; stroke-linecap: square"/>
     </g>
     <g id="line2d_30">
      <g>
       <use xlink:href="#m4e629e1e92" x="70.49" y="106.218182" style="stroke: #000000; stroke-width: 0.8"/>
      </g>
     </g>
     <g id="text_16">
      <!-- 1.25 V -->
      <g transform="translate(31.205625 110.017401) scale(0.1 -0.1)">
       <use xlink:href="#DejaVuSans-31"/>
       <use xlink:href="#DejaVuSans-2e" transform="translate(63.623047 0)"/>
       <use xlink:href="#DejaVuSans-32" transform="translate(95.410156 0)"/>
       <use xlink:href="#DejaVuSans-35" transform="translate(159.033203 0)"/>
       <use xlink:href="#DejaVuSans-20" transform="translate(222.65625 0)"/>
       <use xlink:href="#DejaVuSans-56" transform="translate(254.443359 0)"/>
      </g>
     </g>
    </g>
    <g id="ytick_7">
     <g id="line2d_31">
      <path d="M 70.49 68.945455 
L 709.2 68.945455 
" clip-path="url(#p31d23e83c1)" style="fill: none; stroke: #b0b0b0; stroke-opacity: 0.3; stroke-width: 0.8; stroke-linecap: square"/>
     </g>
     <g id="line2d_32">
      <g>
       <use xlink:href="#m4e629e1e92" x="70.49" y="68.945455" style="stroke: #000000; stroke-width: 0.8"/>
      </g>
     </g>
     <g id="text_17">
      <!-- 1.5 V -->
      <g transform="translate(37.568125 72.744673) scale(0.1 -0.1)">
       <use xlink:href="#DejaVuSans-31"/>
       <use xlink:href="#DejaVuSans-2e" transform="translate(63.623047 0)"/>
       <use xlink:href="#DejaVuSans-35" transform="translate(95.410156 0)"/>
       <use xlink:href="#DejaVuSans-20" transform="translate(159.033203 0)"/>
       <use xlink:href="#DejaVuSans-56" transform="translate(190.820312 0)"/>
      </g>
     </g>
    </g>
    <g id="ytick_8">
     <g id="line2d_33">
      <path d="M 70.49 31.672727 
L 709.2 31.672727 
" clip-path="url(#p31d23e83c1)" style="fill: none; stroke: #b0b0b0; stroke-opacity: 0.3; stroke-width: 0.8; stroke-linecap: square"/>
     </g>
     <g id="line2d_34">
      <g>
       <use xlink:href="#m4e629e1e92" x="70.49" y="31.672727" style="stroke: #000000; stroke-width: 0.8"/>
      </g>
     </g>
     <g id="text_18">
      <!-- 1.75 V -->
      <g transform="translate(31.205625 35.471946) scale(0.1 -0.1)">
       <use xlink:href="#DejaVuSans-31"/>
       <use xlink:href="#DejaVuSans-2e" transform="translate(63.623047 0)"/>
       <use xlink:href="#DejaVuSans-37" transform="translate(95.410156 0)"/>
       <use xlink:href="#DejaVuSans-35" transform="translate(159.033203 0)"/>
       <use xlink:href="#DejaVuSans-20" transform="translate(222.65625 0)"/>
       <use xlink:href="#DejaVuSans-56" transform="translate(254.443359 0)"/>
      </g>
     </g>
    </g>
    <g id="text_19">
     <!-- [V] -->
     <g transform="translate(18.563438 165.721875) rotate(-90) scale(0.1 -0.1)">
      <use xlink:href="#DejaVuSans-5b"/>
      <use xlink:href="#DejaVuSans-56" transform="translate(39.013672 0)"/>
      <use xlink:href="#DejaVuSans-5d" transform="translate(107.421875 0)"/>
     </g>
    </g>
   </g>
   <g id="line2d_35">
    <path d="M 99.522273 158.4 
L 106.783972 139.962437 
L 110.560055 130.979677 
L 113.755203 123.94067 
L 116.369414 118.665257 
L 118.983626 113.898058 
L 121.30737 110.136647 
L 123.340646 107.244421 
L 125.373921 104.748165 
L 127.116729 102.938411 
L 128.859537 101.444115 
L 130.602345 100.273778 
L 132.054684 99.550824 
L 133.507024 99.060353 
L 134.959364 98.804303 
L 136.411704 98.783686 
L 137.864044 98.998582 
L 139.316383 99.448143 
L 140.768723 100.130592 
L 142.221063 101.043235 
L 143.963871 102.43712 
L 145.706679 104.149317 
L 147.449486 106.170084 
L 149.482762 108.902218 
L 151.516038 112.01749 
L 153.839781 116.015888 
L 156.453993 121.023999 
L 159.358673 127.146242 
L 162.55382 134.446604 
L 166.329904 143.652572 
L 172.139263 158.493723 
L 179.110494 176.212538 
L 182.886578 185.236073 
L 186.081725 192.321802 
L 188.986405 198.204583 
L 191.600616 202.964279 
L 193.92436 206.718347 
L 195.957636 209.60369 
L 197.990912 212.092689 
L 199.733719 213.895971 
L 201.476527 215.383598 
L 203.219335 216.547108 
L 204.671675 217.264281 
L 206.124015 217.748911 
L 207.576354 217.999084 
L 209.028694 218.013811 
L 210.481034 217.793034 
L 211.933374 217.337625 
L 213.385714 216.649384 
L 214.838053 215.731029 
L 216.580861 214.330425 
L 218.323669 212.611694 
L 220.066477 210.584614 
L 222.099752 207.845444 
L 224.133028 204.723541 
L 226.456772 200.718126 
L 229.070983 195.702922 
L 231.975663 189.573898 
L 235.170811 182.267535 
L 238.946894 173.056598 
L 244.756253 158.212553 
L 251.727484 140.498039 
L 255.503568 131.480262 
L 258.698715 124.401156 
L 261.603395 118.525675 
L 264.217607 113.773495 
L 266.54135 110.026779 
L 268.574626 107.148326 
L 270.607902 104.666589 
L 272.35071 102.869785 
L 274.093517 101.388831 
L 275.836325 100.232149 
L 277.288665 99.520759 
L 278.741005 99.041971 
L 280.193345 98.797676 
L 281.645684 98.78884 
L 283.098024 99.015497 
L 284.550364 99.476753 
L 286.002704 100.170784 
L 287.455044 101.094849 
L 289.197851 102.502168 
L 290.940659 104.227428 
L 292.683467 106.260816 
L 294.716743 109.007015 
L 296.750018 112.135542 
L 299.073762 116.147964 
L 301.687974 121.170248 
L 304.592653 127.306039 
L 307.787801 134.618384 
L 311.563884 143.834269 
L 317.373244 158.681169 
L 324.344475 176.39134 
L 328.120558 185.403336 
L 331.315706 192.475803 
L 334.220385 198.343969 
L 336.834597 203.088621 
L 339.158341 206.827977 
L 341.191616 209.699531 
L 343.224892 212.174001 
L 344.9677 213.964322 
L 346.710508 215.4386 
L 348.453316 216.58845 
L 349.905655 217.294055 
L 351.357995 217.767 
L 352.810335 218.005416 
L 354.262675 218.008362 
L 355.715015 217.775825 
L 357.167354 217.308724 
L 358.619694 216.608905 
L 360.072034 215.679132 
L 361.814842 214.265101 
L 363.55765 212.533315 
L 365.300457 210.493625 
L 367.333733 207.740403 
L 369.367009 204.60526 
L 371.690752 200.585842 
L 374.304964 195.556489 
L 377.209644 189.413946 
L 380.404791 182.095637 
L 384.180875 172.874828 
L 389.990234 158.025109 
L 396.961465 140.319326 
L 400.737549 131.313132 
L 403.932696 124.247323 
L 406.837376 118.386486 
L 409.451587 113.649373 
L 411.775331 109.917388 
L 413.808607 107.052738 
L 415.841883 104.585543 
L 417.58469 102.801708 
L 419.327498 101.334109 
L 421.070306 100.191095 
L 422.522646 99.491276 
L 423.974985 99.024175 
L 425.427325 98.791638 
L 426.879665 98.794584 
L 428.332005 99.033 
L 429.784345 99.505945 
L 431.236684 100.21155 
L 432.689024 101.147029 
L 434.431832 102.567768 
L 436.17464 104.306075 
L 437.917448 106.352062 
L 439.950723 109.112301 
L 441.983999 112.254051 
L 444.307743 116.280457 
L 446.921954 121.316866 
L 449.826634 127.466144 
L 453.021782 134.790399 
L 456.797865 144.016111 
L 462.897692 159.61832 
L 469.578455 176.569964 
L 473.354539 185.570333 
L 476.549686 192.629468 
L 479.163898 197.924634 
L 481.77811 202.714274 
L 484.101853 206.497657 
L 486.135129 209.41049 
L 488.168405 211.928477 
L 489.911213 213.757624 
L 491.65402 215.271903 
L 493.396828 216.462702 
L 494.849168 217.202989 
L 496.301508 217.710974 
L 497.753848 217.984652 
L 499.206187 218.022942 
L 500.658527 217.825692 
L 502.110867 217.39368 
L 503.563207 216.728615 
L 505.015547 215.833123 
L 506.758354 214.459414 
L 508.501162 212.766846 
L 510.24397 210.765045 
L 512.277246 208.05406 
L 514.310521 204.958728 
L 516.634265 200.981439 
L 518.958009 196.573735 
L 521.57222 191.156215 
L 524.767368 183.973264 
L 528.543451 174.866036 
L 533.771875 161.585081 
L 542.195446 140.140791 
L 545.971529 131.14627 
L 549.166677 124.093827 
L 551.780888 118.805232 
L 554.3951 114.02306 
L 556.718844 110.246992 
L 558.752119 107.341021 
L 560.785395 104.830272 
L 562.528203 103.007584 
L 564.271011 101.499962 
L 566.013819 100.315981 
L 567.466158 99.58147 
L 568.918498 99.079322 
L 570.370838 98.811519 
L 571.823178 98.77912 
L 573.275518 98.982253 
L 574.727857 99.420115 
L 576.180197 100.090977 
L 577.632537 100.992187 
L 579.375345 102.372626 
L 581.118152 104.071741 
L 582.86096 106.079869 
L 584.894236 108.79791 
L 586.927512 111.899897 
L 589.251255 115.884232 
L 591.574999 120.298319 
L 594.189211 125.722145 
L 597.384358 132.911436 
L 601.160442 142.024064 
L 606.388865 155.308513 
L 614.812436 176.748409 
L 618.588519 185.737061 
L 621.783667 192.782794 
L 624.397879 198.064804 
L 627.01209 202.839496 
L 629.335834 206.60824 
L 631.36911 209.507342 
L 633.402386 212.010848 
L 635.145193 213.827071 
L 636.888001 215.328032 
L 638.630809 216.505192 
L 640.083149 217.233926 
L 641.535488 217.730236 
L 642.987828 217.992162 
L 644.440168 218.018671 
L 645.892508 217.809656 
L 647.344848 217.365944 
L 648.797187 216.689288 
L 650.249527 215.78236 
L 651.992335 214.395196 
L 653.735143 212.689538 
L 655.477951 210.675088 
L 657.511226 207.949997 
L 659.544502 204.841364 
L 661.868246 200.849992 
L 664.191989 196.429534 
L 666.806201 190.999414 
L 670.001349 183.803801 
L 673.777432 174.685795 
L 679.005855 161.397886 
L 680.167727 158.4 
L 680.167727 158.4 
" clip-path="url(#p31d23e83c1)" style="fill: none; stroke: #0060a8; stroke-width: 1.5; stroke-linecap: square"/>
   </g>
   <g id="line2d_36">
    <path d="M 99.522273 158.4 
L 106.783972 176.837563 
L 110.560055 185.820323 
L 113.755203 192.85933 
L 116.369414 198.134743 
L 118.983626 202.901942 
L 121.30737 206.663353 
L 123.340646 209.555579 
L 125.373921 212.051835 
L 127.116729 213.861589 
L 128.859537 215.355885 
L 130.602345 216.526222 
L 132.054684 217.249176 
L 133.507024 217.739647 
L 134.959364 217.995697 
L 136.411704 218.016314 
L 137.864044 217.801418 
L 139.316383 217.351857 
L 140.768723 216.669408 
L 142.221063 215.756765 
L 143.963871 214.36288 
L 145.706679 212.650683 
L 147.449486 210.629916 
L 149.482762 207.897782 
L 151.516038 204.78251 
L 153.839781 200.784112 
L 156.453993 195.776001 
L 159.358673 189.653758 
L 162.55382 182.353396 
L 166.329904 173.147428 
L 172.139263 158.306277 
L 179.110494 140.587462 
L 182.886578 131.563927 
L 186.081725 124.478198 
L 188.986405 118.595417 
L 191.600616 113.835721 
L 193.92436 110.081653 
L 195.957636 107.19631 
L 197.990912 104.707311 
L 199.733719 102.904029 
L 201.476527 101.416402 
L 203.219335 100.252892 
L 204.671675 99.535719 
L 206.124015 99.051089 
L 207.576354 98.800916 
L 209.028694 98.786189 
L 210.481034 99.006966 
L 211.933374 99.462375 
L 213.385714 100.150616 
L 214.838053 101.068971 
L 216.580861 102.469575 
L 218.323669 104.188306 
L 220.066477 106.215386 
L 222.099752 108.954556 
L 224.133028 112.076459 
L 226.456772 116.081874 
L 229.070983 121.097078 
L 231.975663 127.226102 
L 235.170811 134.532465 
L 238.946894 143.743402 
L 244.756253 158.587447 
L 251.727484 176.301961 
L 255.503568 185.319738 
L 258.698715 192.398844 
L 261.603395 198.274325 
L 264.217607 203.026505 
L 266.54135 206.773221 
L 268.574626 209.651674 
L 270.607902 212.133411 
L 272.35071 213.930215 
L 274.093517 215.411169 
L 275.836325 216.567851 
L 277.288665 217.279241 
L 278.741005 217.758029 
L 280.193345 218.002324 
L 281.645684 218.01116 
L 283.098024 217.784503 
L 284.550364 217.323247 
L 286.002704 216.629216 
L 287.455044 215.705151 
L 289.197851 214.297832 
L 290.940659 212.572572 
L 292.683467 210.539184 
L 294.716743 207.792985 
L 296.750018 204.664458 
L 299.073762 200.652036 
L 301.687974 195.629752 
L 304.592653 189.493961 
L 307.787801 182.181616 
L 311.563884 172.965731 
L 317.373244 158.118831 
L 324.344475 140.40866 
L 328.120558 131.396664 
L 331.315706 124.324197 
L 334.220385 118.456031 
L 336.834597 113.711379 
L 339.158341 109.972023 
L 341.191616 107.100469 
L 343.224892 104.625999 
L 344.9677 102.835678 
L 346.710508 101.3614 
L 348.453316 100.21155 
L 349.905655 99.505945 
L 351.357995 99.033 
L 352.810335 98.794584 
L 354.262675 98.791638 
L 355.715015 99.024175 
L 357.167354 99.491276 
L 358.619694 100.191095 
L 360.072034 101.120868 
L 361.814842 102.534899 
L 363.55765 104.266685 
L 365.300457 106.306375 
L 367.333733 109.059597 
L 369.367009 112.19474 
L 371.690752 116.214158 
L 374.304964 121.243511 
L 377.209644 127.386054 
L 380.404791 134.704363 
L 384.180875 143.925172 
L 389.990234 158.774891 
L 396.961465 176.480674 
L 400.737549 185.486868 
L 403.932696 192.552677 
L 406.837376 198.413514 
L 409.451587 203.150627 
L 411.775331 206.882612 
L 413.808607 209.747262 
L 415.841883 212.214457 
L 417.58469 213.998292 
L 419.327498 215.465891 
L 421.070306 216.608905 
L 422.522646 217.308724 
L 423.974985 217.775825 
L 425.427325 218.008362 
L 426.879665 218.005416 
L 428.332005 217.767 
L 429.784345 217.294055 
L 431.236684 216.58845 
L 432.689024 215.652971 
L 434.431832 214.232232 
L 436.17464 212.493925 
L 437.917448 210.447938 
L 439.950723 207.687699 
L 441.983999 204.545949 
L 444.307743 200.519543 
L 446.921954 195.483134 
L 449.826634 189.333856 
L 453.021782 182.009601 
L 456.797865 172.783889 
L 462.897692 157.18168 
L 469.578455 140.230036 
L 473.354539 131.229667 
L 476.549686 124.170532 
L 479.163898 118.875366 
L 481.77811 114.085726 
L 484.101853 110.302343 
L 486.135129 107.38951 
L 488.168405 104.871523 
L 489.911213 103.042376 
L 491.65402 101.528097 
L 493.396828 100.337298 
L 494.849168 99.597011 
L 496.301508 99.089026 
L 497.753848 98.815348 
L 499.206187 98.777058 
L 500.658527 98.974308 
L 502.110867 99.40632 
L 503.563207 100.071385 
L 505.015547 100.966877 
L 506.758354 102.340586 
L 508.501162 104.033154 
L 510.24397 106.034955 
L 512.277246 108.74594 
L 514.310521 111.841272 
L 516.634265 115.818561 
L 518.958009 120.226265 
L 521.57222 125.643785 
L 524.767368 132.826736 
L 528.543451 141.933964 
L 533.771875 155.214919 
L 542.195446 176.659209 
L 545.971529 185.65373 
L 549.166677 192.706173 
L 551.780888 197.994768 
L 554.3951 202.77694 
L 556.718844 206.553008 
L 558.752119 209.458979 
L 560.785395 211.969728 
L 562.528203 213.792416 
L 564.271011 215.300038 
L 566.013819 216.484019 
L 567.466158 217.21853 
L 568.918498 217.720678 
L 570.370838 217.988481 
L 571.823178 218.02088 
L 573.275518 217.817747 
L 574.727857 217.379885 
L 576.180197 216.709023 
L 577.632537 215.807813 
L 579.375345 214.427374 
L 581.118152 212.728259 
L 582.86096 210.720131 
L 584.894236 208.00209 
L 586.927512 204.900103 
L 589.251255 200.915768 
L 591.574999 196.501681 
L 594.189211 191.077855 
L 597.384358 183.888564 
L 601.160442 174.775936 
L 606.388865 161.491487 
L 614.812436 140.051591 
L 618.588519 131.062939 
L 621.783667 124.017206 
L 624.397879 118.735196 
L 627.01209 113.960504 
L 629.335834 110.19176 
L 631.36911 107.292658 
L 633.402386 104.789152 
L 635.145193 102.972929 
L 636.888001 101.471968 
L 638.630809 100.294808 
L 640.083149 99.566074 
L 641.535488 99.069764 
L 642.987828 98.807838 
L 644.440168 98.781329 
L 645.892508 98.990344 
L 647.344848 99.434056 
L 648.797187 100.110712 
L 650.249527 101.01764 
L 651.992335 102.404804 
L 653.735143 104.110462 
L 655.477951 106.124912 
L 657.511226 108.850003 
L 659.544502 111.958636 
L 661.868246 115.950008 
L 664.191989 120.370466 
L 666.806201 125.800586 
L 670.001349 132.996199 
L 673.777432 142.114205 
L 679.005855 155.402114 
L 680.167727 158.4 
L 680.167727 158.4 
" clip-path="url(#p31d23e83c1)" style="fill: none; stroke: #d45800; stroke-width: 1.5; stroke-linecap: square"/>
   </g>
   <g id="line2d_37">
    <path d="M 99.522273 292.581818 
L 99.812741 24.218182 
L 171.848795 24.218182 
L 172.139263 292.581818 
L 244.465785 292.581818 
L 244.756253 24.218182 
L 317.082776 24.218182 
L 317.373244 292.581818 
L 389.699766 292.581818 
L 389.990234 24.218182 
L 462.316756 24.218182 
L 462.607224 292.581818 
L 534.933747 292.581818 
L 535.224215 24.218182 
L 607.550737 24.218182 
L 607.841205 292.581818 
L 680.167727 292.581818 
L 680.167727 292.581818 
" clip-path="url(#p31d23e83c1)" style="fill: none; stroke: #1a8a1a; stroke-width: 1.5; stroke-linecap: square"/>
   </g>
   <g id="patch_3">
    <path d="M 70.49 306 
L 70.49 10.8 
" style="fill: none; stroke: #000000; stroke-width: 0.8; stroke-linejoin: miter; stroke-linecap: square"/>
   </g>
   <g id="patch_4">
    <path d="M 709.2 306 
L 709.2 10.8 
" style="fill: none; stroke: #000000; stroke-width: 0.8; stroke-linejoin: miter; stroke-linecap: square"/>
   </g>
   <g id="patch_5">
    <path d="M 70.49 306 
L 709.2 306 
" style="fill: none; stroke: #000000; stroke-width: 0.8; stroke-linejoin: miter; stroke-linecap: square"/>
   </g>
   <g id="patch_6">
    <path d="M 70.49 10.8 
L 709.2 10.8 
" style="fill: none; stroke: #000000; stroke-width: 0.8; stroke-linejoin: miter; stroke-linecap: square"/>
   </g>
   <g id="legend_1">
    <g id="patch_7">
     <path d="M 660.831094 47.224063 
L 704.3 47.224063 
Q 705.7 47.224063 705.7 45.824063 
L 705.7 15.7 
Q 705.7 14.3 704.3 14.3 
L 660.831094 14.3 
Q 659.431094 14.3 659.431094 15.7 
L 659.431094 45.824063 
Q 659.431094 47.224063 660.831094 47.224063 
z
" style="fill: #ffffff; opacity: 0.8; stroke: #cccccc; stroke-linejoin: miter"/>
    </g>
    <g id="line2d_38">
     <path d="M 662.231094 19.968906 
L 669.231094 19.968906 
L 676.231094 19.968906 
" style="fill: none; stroke: #0060a8; stroke-width: 1.5; stroke-linecap: square"/>
    </g>
    <g id="text_20">
     <!-- v(vp) -->
     <g transform="translate(681.831094 22.418906) scale(0.07 -0.07)">
      <defs>
       <path id="DejaVuSans-76" d="M 191 3500 
L 800 3500 
L 1894 563 
L 2988 3500 
L 3597 3500 
L 2284 0 
L 1503 0 
L 191 3500 
z
" transform="scale(0.015625)"/>
       <path id="DejaVuSans-28" d="M 1984 4856 
Q 1566 4138 1362 3434 
Q 1159 2731 1159 2009 
Q 1159 1288 1364 580 
Q 1569 -128 1984 -844 
L 1484 -844 
Q 1016 -109 783 600 
Q 550 1309 550 2009 
Q 550 2706 781 3412 
Q 1013 4119 1484 4856 
L 1984 4856 
z
" transform="scale(0.015625)"/>
       <path id="DejaVuSans-70" d="M 1159 525 
L 1159 -1331 
L 581 -1331 
L 581 3500 
L 1159 3500 
L 1159 2969 
Q 1341 3281 1617 3432 
Q 1894 3584 2278 3584 
Q 2916 3584 3314 3078 
Q 3713 2572 3713 1747 
Q 3713 922 3314 415 
Q 2916 -91 2278 -91 
Q 1894 -91 1617 61 
Q 1341 213 1159 525 
z
M 3116 1747 
Q 3116 2381 2855 2742 
Q 2594 3103 2138 3103 
Q 1681 3103 1420 2742 
Q 1159 2381 1159 1747 
Q 1159 1113 1420 752 
Q 1681 391 2138 391 
Q 2594 391 2855 752 
Q 3116 1113 3116 1747 
z
" transform="scale(0.015625)"/>
       <path id="DejaVuSans-29" d="M 513 4856 
L 1013 4856 
Q 1481 4119 1714 3412 
Q 1947 2706 1947 2009 
Q 1947 1309 1714 600 
Q 1481 -109 1013 -844 
L 513 -844 
Q 928 -128 1133 580 
Q 1338 1288 1338 2009 
Q 1338 2731 1133 3434 
Q 928 4138 513 4856 
z
" transform="scale(0.015625)"/>
      </defs>
      <use xlink:href="#DejaVuSans-76"/>
      <use xlink:href="#DejaVuSans-28" transform="translate(59.179688 0)"/>
      <use xlink:href="#DejaVuSans-76" transform="translate(98.193359 0)"/>
      <use xlink:href="#DejaVuSans-70" transform="translate(157.373047 0)"/>
      <use xlink:href="#DejaVuSans-29" transform="translate(220.849609 0)"/>
     </g>
    </g>
    <g id="line2d_39">
     <path d="M 662.231094 30.243594 
L 669.231094 30.243594 
L 676.231094 30.243594 
" style="fill: none; stroke: #d45800; stroke-width: 1.5; stroke-linecap: square"/>
    </g>
    <g id="text_21">
     <!-- v(vn) -->
     <g transform="translate(681.831094 32.693594) scale(0.07 -0.07)">
      <use xlink:href="#DejaVuSans-76"/>
      <use xlink:href="#DejaVuSans-28" transform="translate(59.179688 0)"/>
      <use xlink:href="#DejaVuSans-76" transform="translate(98.193359 0)"/>
      <use xlink:href="#DejaVuSans-6e" transform="translate(157.373047 0)"/>
      <use xlink:href="#DejaVuSans-29" transform="translate(220.751953 0)"/>
     </g>
    </g>
    <g id="line2d_40">
     <path d="M 662.231094 40.518281 
L 669.231094 40.518281 
L 676.231094 40.518281 
" style="fill: none; stroke: #1a8a1a; stroke-width: 1.5; stroke-linecap: square"/>
    </g>
    <g id="text_22">
     <!-- v(out) -->
     <g transform="translate(681.831094 42.968281) scale(0.07 -0.07)">
      <defs>
       <path id="DejaVuSans-6f" d="M 1959 3097 
Q 1497 3097 1228 2736 
Q 959 2375 959 1747 
Q 959 1119 1226 758 
Q 1494 397 1959 397 
Q 2419 397 2687 759 
Q 2956 1122 2956 1747 
Q 2956 2369 2687 2733 
Q 2419 3097 1959 3097 
z
M 1959 3584 
Q 2709 3584 3137 3096 
Q 3566 2609 3566 1747 
Q 3566 888 3137 398 
Q 2709 -91 1959 -91 
Q 1206 -91 779 398 
Q 353 888 353 1747 
Q 353 2609 779 3096 
Q 1206 3584 1959 3584 
z
" transform="scale(0.015625)"/>
       <path id="DejaVuSans-75" d="M 544 1381 
L 544 3500 
L 1119 3500 
L 1119 1403 
Q 1119 906 1312 657 
Q 1506 409 1894 409 
Q 2359 409 2629 706 
Q 2900 1003 2900 1516 
L 2900 3500 
L 3475 3500 
L 3475 0 
L 2900 0 
L 2900 538 
Q 2691 219 2414 64 
Q 2138 -91 1772 -91 
Q 1169 -91 856 284 
Q 544 659 544 1381 
z
M 1991 3584 
L 1991 3584 
z
" transform="scale(0.015625)"/>
       <path id="DejaVuSans-74" d="M 1172 4494 
L 1172 3500 
L 2356 3500 
L 2356 3053 
L 1172 3053 
L 1172 1153 
Q 1172 725 1289 603 
Q 1406 481 1766 481 
L 2356 481 
L 2356 0 
L 1766 0 
Q 1100 0 847 248 
Q 594 497 594 1153 
L 594 3053 
L 172 3053 
L 172 3500 
L 594 3500 
L 594 4494 
L 1172 4494 
z
" transform="scale(0.015625)"/>
      </defs>
      <use xlink:href="#DejaVuSans-76"/>
      <use xlink:href="#DejaVuSans-28" transform="translate(59.179688 0)"/>
      <use xlink:href="#DejaVuSans-6f" transform="translate(98.193359 0)"/>
      <use xlink:href="#DejaVuSans-75" transform="translate(159.375 0)"/>
      <use xlink:href="#DejaVuSans-74" transform="translate(222.753906 0)"/>
      <use xlink:href="#DejaVuSans-29" transform="translate(261.962891 0)"/>
     </g>
    </g>
   </g>
  </g>
  <g id="text_23">
   <!-- v(vp): μ=900 mV σ=282.772 mV  |  v(vn): μ=900 mV σ=282.772 mV  |  v(out): μ=899.1 mV σ=900 mV -->
   <g style="fill: #666666" transform="translate(7.2 354.985313) scale(0.06 -0.06)">
    <defs>
     <path id="DejaVuSans-3a" d="M 750 794 
L 1409 794 
L 1409 0 
L 750 0 
L 750 794 
z
M 750 3309 
L 1409 3309 
L 1409 2516 
L 750 2516 
L 750 3309 
z
" transform="scale(0.015625)"/>
     <path id="DejaVuSans-3bc" d="M 544 -1331 
L 544 3500 
L 1119 3500 
L 1119 1325 
Q 1119 872 1334 640 
Q 1550 409 1972 409 
Q 2434 409 2667 671 
Q 2900 934 2900 1459 
L 2900 3500 
L 3475 3500 
L 3475 806 
Q 3475 619 3529 530 
Q 3584 441 3700 441 
Q 3728 441 3778 458 
Q 3828 475 3916 513 
L 3916 50 
Q 3788 -22 3673 -56 
Q 3559 -91 3450 -91 
Q 3234 -91 3106 31 
Q 2978 153 2931 403 
Q 2775 156 2548 32 
Q 2322 -91 2016 -91 
Q 1697 -91 1473 31 
Q 1250 153 1119 397 
L 1119 -1331 
L 544 -1331 
z
" transform="scale(0.015625)"/>
     <path id="DejaVuSans-3d" d="M 678 2906 
L 4684 2906 
L 4684 2381 
L 678 2381 
L 678 2906 
z
M 678 1631 
L 4684 1631 
L 4684 1100 
L 678 1100 
L 678 1631 
z
" transform="scale(0.015625)"/>
     <path id="DejaVuSans-39" d="M 703 97 
L 703 672 
Q 941 559 1184 500 
Q 1428 441 1663 441 
Q 2288 441 2617 861 
Q 2947 1281 2994 2138 
Q 2813 1869 2534 1725 
Q 2256 1581 1919 1581 
Q 1219 1581 811 2004 
Q 403 2428 403 3163 
Q 403 3881 828 4315 
Q 1253 4750 1959 4750 
Q 2769 4750 3195 4129 
Q 3622 3509 3622 2328 
Q 3622 1225 3098 567 
Q 2575 -91 1691 -91 
Q 1453 -91 1209 -44 
Q 966 3 703 97 
z
M 1959 2075 
Q 2384 2075 2632 2365 
Q 2881 2656 2881 3163 
Q 2881 3666 2632 3958 
Q 2384 4250 1959 4250 
Q 1534 4250 1286 3958 
Q 1038 3666 1038 3163 
Q 1038 2656 1286 2365 
Q 1534 2075 1959 2075 
z
" transform="scale(0.015625)"/>
     <path id="DejaVuSans-3c3" d="M 1959 3044 
Q 1484 3044 1228 2700 
Q 959 2341 959 1747 
Q 959 1119 1226 758 
Q 1494 397 1959 397 
Q 2419 397 2687 759 
Q 2956 1122 2956 1747 
Q 2956 2319 2688 2700 
Q 2441 3044 1959 3044 
z
M 1959 3500 
L 3869 3500 
L 3869 2925 
L 3225 2925 
Q 3566 2438 3566 1747 
Q 3566 888 3138 400 
Q 2709 -91 1959 -91 
Q 1206 -91 781 400 
Q 353 888 353 1747 
Q 353 2613 781 3097 
Q 1134 3500 1959 3500 
z
" transform="scale(0.015625)"/>
     <path id="DejaVuSans-38" d="M 2034 2216 
Q 1584 2216 1326 1975 
Q 1069 1734 1069 1313 
Q 1069 891 1326 650 
Q 1584 409 2034 409 
Q 2484 409 2743 651 
Q 3003 894 3003 1313 
Q 3003 1734 2745 1975 
Q 2488 2216 2034 2216 
z
M 1403 2484 
Q 997 2584 770 2862 
Q 544 3141 544 3541 
Q 544 4100 942 4425 
Q 1341 4750 2034 4750 
Q 2731 4750 3128 4425 
Q 3525 4100 3525 3541 
Q 3525 3141 3298 2862 
Q 3072 2584 2669 2484 
Q 3125 2378 3379 2068 
Q 3634 1759 3634 1313 
Q 3634 634 3220 271 
Q 2806 -91 2034 -91 
Q 1263 -91 848 271 
Q 434 634 434 1313 
Q 434 1759 690 2068 
Q 947 2378 1403 2484 
z
M 1172 3481 
Q 1172 3119 1398 2916 
Q 1625 2713 2034 2713 
Q 2441 2713 2670 2916 
Q 2900 3119 2900 3481 
Q 2900 3844 2670 4047 
Q 2441 4250 2034 4250 
Q 1625 4250 1398 4047 
Q 1172 3844 1172 3481 
z
" transform="scale(0.015625)"/>
     <path id="DejaVuSans-7c" d="M 1344 4891 
L 1344 -1509 
L 813 -1509 
L 813 4891 
L 1344 4891 
z
" transform="scale(0.015625)"/>
    </defs>
    <use xlink:href="#DejaVuSans-76"/>
    <use xlink:href="#DejaVuSans-28" transform="translate(59.179688 0)"/>
    <use xlink:href="#DejaVuSans-76" transform="translate(98.193359 0)"/>
    <use xlink:href="#DejaVuSans-70" transform="translate(157.373047 0)"/>
    <use xlink:href="#DejaVuSans-29" transform="translate(220.849609 0)"/>
    <use xlink:href="#DejaVuSans-3a" transform="translate(259.863281 0)"/>
    <use xlink:href="#DejaVuSans-20" transform="translate(293.554688 0)"/>
    <use xlink:href="#DejaVuSans-3bc" transform="translate(325.341797 0)"/>
    <use xlink:href="#DejaVuSans-3d" transform="translate(388.964844 0)"/>
    <use xlink:href="#DejaVuSans-39" transform="translate(472.753906 0)"/>
    <use xlink:href="#DejaVuSans-30" transform="translate(536.376953 0)"/>
    <use xlink:href="#DejaVuSans-30" transform="translate(600 0)"/>
    <use xlink:href="#DejaVuSans-20" transform="translate(663.623047 0)"/>
    <use xlink:href="#DejaVuSans-6d" transform="translate(695.410156 0)"/>
    <use xlink:href="#DejaVuSans-56" transform="translate(792.822266 0)"/>
    <use xlink:href="#DejaVuSans-20" transform="translate(861.230469 0)"/>
    <use xlink:href="#DejaVuSans-3c3" transform="translate(893.017578 0)"/>
    <use xlink:href="#DejaVuSans-3d" transform="translate(956.396484 0)"/>
    <use xlink:href="#DejaVuSans-32" transform="translate(1040.185547 0)"/>
    <use xlink:href="#DejaVuSans-38" transform="translate(1103.808594 0)"/>
    <use xlink:href="#DejaVuSans-32" transform="translate(1167.431641 0)"/>
    <use xlink:href="#DejaVuSans-2e" transform="translate(1231.054688 0)"/>
    <use xlink:href="#DejaVuSans-37" transform="translate(1262.841797 0)"/>
    <use xlink:href="#DejaVuSans-37" transform="translate(1326.464844 0)"/>
    <use xlink:href="#DejaVuSans-32" transform="translate(1390.087891 0)"/>
    <use xlink:href="#DejaVuSans-20" transform="translate(1453.710938 0)"/>
    <use xlink:href="#DejaVuSans-6d" transform="translate(1485.498047 0)"/>
    <use xlink:href="#DejaVuSans-56" transform="translate(1582.910156 0)"/>
    <use xlink:href="#DejaVuSans-20" transform="translate(1651.318359 0)"/>
    <use xlink:href="#DejaVuSans-20" transform="translate(1683.105469 0)"/>
    <use xlink:href="#DejaVuSans-7c" transform="translate(1714.892578 0)"/>
    <use xlink:href="#DejaVuSans-20" transform="translate(1748.583984 0)"/>
    <use xlink:href="#DejaVuSans-20" transform="translate(1780.371094 0)"/>
    <use xlink:href="#DejaVuSans-76" transform="translate(1812.158203 0)"/>
    <use xlink:href="#DejaVuSans-28" transform="translate(1871.337891 0)"/>
    <use xlink:href="#DejaVuSans-76" transform="translate(1910.351562 0)"/>
    <use xlink:href="#DejaVuSans-6e" transform="translate(1969.53125 0)"/>
    <use xlink:href="#DejaVuSans-29" transform="translate(2032.910156 0)"/>
    <use xlink:href="#DejaVuSans-3a" transform="translate(2071.923828 0)"/>
    <use xlink:href="#DejaVuSans-20" transform="translate(2105.615234 0)"/>
    <use xlink:href="#DejaVuSans-3bc" transform="translate(2137.402344 0)"/>
    <use xlink:href="#DejaVuSans-3d" transform="translate(2201.025391 0)"/>
    <use xlink:href="#DejaVuSans-39" transform="translate(2284.814453 0)"/>
    <use xlink:href="#DejaVuSans-30" transform="translate(2348.4375 0)"/>
    <use xlink:href="#DejaVuSans-30" transform="translate(2412.060547 0)"/>
    <use xlink:href="#DejaVuSans-20" transform="translate(2475.683594 0)"/>
    <use xlink:href="#DejaVuSans-6d" transform="translate(2507.470703 0)"/>
    <use xlink:href="#DejaVuSans-56" transform="translate(2604.882812 0)"/>
    <use xlink:href="#DejaVuSans-20" transform="translate(2673.291016 0)"/>
    <use xlink:href="#DejaVuSans-3c3" transform="translate(2705.078125 0)"/>
    <use xlink:href="#DejaVuSans-3d" transform="translate(2768.457031 0)"/>
    <use xlink:href="#DejaVuSans-32" transform="translate(2852.246094 0)"/>
    <use xlink:href="#DejaVuSans-38" transform="translate(2915.869141 0)"/>
    <use xlink:href="#DejaVuSans-32" transform="translate(2979.492188 0)"/>
    <use xlink:href="#DejaVuSans-2e" transform="translate(3043.115234 0)"/>
    <use xlink:href="#DejaVuSans-37" transform="translate(3074.902344 0)"/>
    <use xlink:href="#DejaVuSans-37" transform="translate(3138.525391 0)"/>
    <use xlink:href="#DejaVuSans-32" transform="translate(3202.148438 0)"/>
    <use xlink:href="#DejaVuSans-20" transform="translate(3265.771484 0)"/>
    <use xlink:href="#DejaVuSans-6d" transform="translate(3297.558594 0)"/>
    <use xlink:href="#DejaVuSans-56" transform="translate(3394.970703 0)"/>
    <use xlink:href="#DejaVuSans-20" transform="translate(3463.378906 0)"/>
    <use xlink:href="#DejaVuSans-20" transform="translate(3495.166016 0)"/>
    <use xlink:href="#DejaVuSans-7c" transform="translate(3526.953125 0)"/>
    <use xlink:href="#DejaVuSans-20" transform="translate(3560.644531 0)"/>
    <use xlink:href="#DejaVuSans-20" transform="translate(3592.431641 0)"/>
    <use xlink:href="#DejaVuSans-76" transform="translate(3624.21875 0)"/>
    <use xlink:href="#DejaVuSans-28" transform="translate(3683.398438 0)"/>
    <use xlink:href="#DejaVuSans-6f" transform="translate(3722.412109 0)"/>
    <use xlink:href="#DejaVuSans-75" transform="translate(3783.59375 0)"/>
    <use xlink:href="#DejaVuSans-74" transform="translate(3846.972656 0)"/>
    <use xlink:href="#DejaVuSans-29" transform="translate(3886.181641 0)"/>
    <use xlink:href="#DejaVuSans-3a" transform="translate(3925.195312 0)"/>
    <use xlink:href="#DejaVuSans-20" transform="translate(3958.886719 0)"/>
    <use xlink:href="#DejaVuSans-3bc" transform="translate(3990.673828 0)"/>
    <use xlink:href="#DejaVuSans-3d" transform="translate(4054.296875 0)"/>
    <use xlink:href="#DejaVuSans-38" transform="translate(4138.085938 0)"/>
    <use xlink:href="#DejaVuSans-39" transform="translate(4201.708984 0)"/>
    <use xlink:href="#DejaVuSans-39" transform="translate(4265.332031 0)"/>
    <use xlink:href="#DejaVuSans-2e" transform="translate(4328.955078 0)"/>
    <use xlink:href="#DejaVuSans-31" transform="translate(4360.742188 0)"/>
    <use xlink:href="#DejaVuSans-20" transform="translate(4424.365234 0)"/>
    <use xlink:href="#DejaVuSans-6d" transform="translate(4456.152344 0)"/>
    <use xlink:href="#DejaVuSans-56" transform="translate(4553.564453 0)"/>
    <use xlink:href="#DejaVuSans-20" transform="translate(4621.972656 0)"/>
    <use xlink:href="#DejaVuSans-3c3" transform="translate(4653.759766 0)"/>
    <use xlink:href="#DejaVuSans-3d" transform="translate(4717.138672 0)"/>
    <use xlink:href="#DejaVuSans-39" transform="translate(4800.927734 0)"/>
    <use xlink:href="#DejaVuSans-30" transform="translate(4864.550781 0)"/>
    <use xlink:href="#DejaVuSans-30" transform="translate(4928.173828 0)"/>
    <use xlink:href="#DejaVuSans-20" transform="translate(4991.796875 0)"/>
    <use xlink:href="#DejaVuSans-6d" transform="translate(5023.583984 0)"/>
    <use xlink:href="#DejaVuSans-56" transform="translate(5120.996094 0)"/>
   </g>
  </g>
 </g>
 <defs>
  <clipPath id="p31d23e83c1">
   <rect x="70.49" y="10.8" width="638.71" height="295.2"/>
  </clipPath>
 </defs>
</svg>
