<?xml version="1.0" encoding="utf-8" standalone="no"?>
<!DOCTYPE svg PUBLIC "-//W3C//DTD SVG 1.1//EN"
  "http://www.w3.org/Graphics/SVG/1.1/DTD/svg11.dtd">
<svg xmlns:xlink="http://www.w3.org/1999/xlink" width="720pt" height="360pt" viewBox="0 0 720 360" xmlns="http://www.w3.org/2000/svg" version="1.1">
 <metadata>
  <rdf:RDF xmlns:dc="http://purl.org/dc/elements/1.1/" xmlns:cc="http://creativecommons.org/ns#" xmlns:rdf="http://www.w3.org/1999/02/22-rdf-syntax-ns#">
   <cc:Work>
    <dc:type rdf:resource="http://purl.org/dc/dcmitype/StillImage"/>
    <dc:date>2026-03-12T21:35:51.866116</dc:date>
    <dc:format>image/svg+xml</dc:format>
    <dc:creator>
     <cc:Agent>
      <dc:title>Matplotlib v3.10.0, https://matplotlib.org/</dc:title>
     </cc:Agent>
    </dc:creator>
   </cc:Work>
  </rdf:RDF>
 </metadata>
 <defs>
  <style type="text/css">*{stroke-linejoin: round; stroke-linecap: butt}</style>
 </defs>
 <g id="figure_1">
  <g id="patch_1">
   <path d="M 0 360 
L 720 360 
L 720 0 
L 0 0 
z
" style="fill: #ffffff"/>
  </g>
  <g id="axes_1">
   <g id="patch_2">
    <path d="M 30.49 306 
L 709.2 306 
L 709.2 10.8 
L 30.49 10.8 
z
" style="fill: #ffffff"/>
   </g>
   <g id="matplotlib.axis_1">
    <g id="xtick_1">
     <g id="line2d_1">
      <path d="M 61.278747 306 
L 61.278747 10.8 
" clip-path="url(#paf46ce0b3b)" style="fill: none; stroke: #b0b0b0; stroke-opacity: 0.3; stroke-width: 0.8; stroke-linecap: square"/>
     </g>
     <g id="line2d_2">
      <defs>
       <path id="m08a97141ac" d="M 0 0 
L 0 3.5 
" style="stroke: #000000; stroke-width: 0.8"/>
      </defs>
      <g>
       <use xlink:href="#m08a97141ac" x="61.278747" y="306" style="stroke: #000000; stroke-width: 0.8"/>
      </g>
     </g>
     <g id="text_1">
      <!-- 0.0 -->
      <g transform="translate(53.327185 320.598437) scale(0.1 -0.1)">
       <defs>
        <path id="DejaVuSans-30" d="M 2034 4250 
Q 1547 4250 1301 3770 
Q 1056 3291 1056 2328 
Q 1056 1369 1301 889 
Q 1547 409 2034 409 
Q 2525 409 2770 889 
Q 3016 1369 3016 2328 
Q 3016 3291 2770 3770 
Q 2525 4250 2034 4250 
z
M 2034 4750 
Q 2819 4750 3233 4129 
Q 3647 3509 3647 2328 
Q 3647 1150 3233 529 
Q 2819 -91 2034 -91 
Q 1250 -91 836 529 
Q 422 1150 422 2328 
Q 422 3509 836 4129 
Q 1250 4750 2034 4750 
z
" transform="scale(0.015625)"/>
        <path id="DejaVuSans-2e" d="M 684 794 
L 1344 794 
L 1344 0 
L 684 0 
L 684 794 
z
" transform="scale(0.015625)"/>
       </defs>
       <use xlink:href="#DejaVuSans-30"/>
       <use xlink:href="#DejaVuSans-2e" transform="translate(63.623047 0)"/>
       <use xlink:href="#DejaVuSans-30" transform="translate(95.410156 0)"/>
      </g>
     </g>
    </g>
    <g id="xtick_2">
     <g id="line2d_3">
      <path d="M 184.692907 306 
L 184.692907 10.8 
" clip-path="url(#paf46ce0b3b)" style="fill: none; stroke: #b0b0b0; stroke-opacity: 0.3; stroke-width: 0.8; stroke-linecap: square"/>
     </g>
     <g id="line2d_4">
      <g>
       <use xlink:href="#m08a97141ac" x="184.692907" y="306" style="stroke: #000000; stroke-width: 0.8"/>
      </g>
     </g>
     <g id="text_2">
      <!-- 0.2 -->
      <g transform="translate(176.741345 320.598437) scale(0.1 -0.1)">
       <defs>
        <path id="DejaVuSans-32" d="M 1228 531 
L 3431 531 
L 3431 0 
L 469 0 
L 469 531 
Q 828 903 1448 1529 
Q 2069 2156 2228 2338 
Q 2531 2678 2651 2914 
Q 2772 3150 2772 3378 
Q 2772 3750 2511 3984 
Q 2250 4219 1831 4219 
Q 1534 4219 1204 4116 
Q 875 4013 500 3803 
L 500 4441 
Q 881 4594 1212 4672 
Q 1544 4750 1819 4750 
Q 2544 4750 2975 4387 
Q 3406 4025 3406 3419 
Q 3406 3131 3298 2873 
Q 3191 2616 2906 2266 
Q 2828 2175 2409 1742 
Q 1991 1309 1228 531 
z
" transform="scale(0.015625)"/>
       </defs>
       <use xlink:href="#DejaVuSans-30"/>
       <use xlink:href="#DejaVuSans-2e" transform="translate(63.623047 0)"/>
       <use xlink:href="#DejaVuSans-32" transform="translate(95.410156 0)"/>
      </g>
     </g>
    </g>
    <g id="xtick_3">
     <g id="line2d_5">
      <path d="M 308.107067 306 
L 308.107067 10.8 
" clip-path="url(#paf46ce0b3b)" style="fill: none; stroke: #b0b0b0; stroke-opacity: 0.3; stroke-width: 0.8; stroke-linecap: square"/>
     </g>
     <g id="line2d_6">
      <g>
       <use xlink:href="#m08a97141ac" x="308.107067" y="306" style="stroke: #000000; stroke-width: 0.8"/>
      </g>
     </g>
     <g id="text_3">
      <!-- 0.4 -->
      <g transform="translate(300.155504 320.598437) scale(0.1 -0.1)">
       <defs>
        <path id="DejaVuSans-34" d="M 2419 4116 
L 825 1625 
L 2419 1625 
L 2419 4116 
z
M 2253 4666 
L 3047 4666 
L 3047 1625 
L 3713 1625 
L 3713 1100 
L 3047 1100 
L 3047 0 
L 2419 0 
L 2419 1100 
L 313 1100 
L 313 1709 
L 2253 4666 
z
" transform="scale(0.015625)"/>
       </defs>
       <use xlink:href="#DejaVuSans-30"/>
       <use xlink:href="#DejaVuSans-2e" transform="translate(63.623047 0)"/>
       <use xlink:href="#DejaVuSans-34" transform="translate(95.410156 0)"/>
      </g>
     </g>
    </g>
    <g id="xtick_4">
     <g id="line2d_7">
      <path d="M 431.521226 306 
L 431.521226 10.8 
" clip-path="url(#paf46ce0b3b)" style="fill: none; stroke: #b0b0b0; stroke-opacity: 0.3; stroke-width: 0.8; stroke-linecap: square"/>
     </g>
     <g id="line2d_8">
      <g>
       <use xlink:href="#m08a97141ac" x="431.521226" y="306" style="stroke: #000000; stroke-width: 0.8"/>
      </g>
     </g>
     <g id="text_4">
      <!-- 0.6 -->
      <g transform="translate(423.569664 320.598437) scale(0.1 -0.1)">
       <defs>
        <path id="DejaVuSans-36" d="M 2113 2584 
Q 1688 2584 1439 2293 
Q 1191 2003 1191 1497 
Q 1191 994 1439 701 
Q 1688 409 2113 409 
Q 2538 409 2786 701 
Q 3034 994 3034 1497 
Q 3034 2003 2786 2293 
Q 2538 2584 2113 2584 
z
M 3366 4563 
L 3366 3988 
Q 3128 4100 2886 4159 
Q 2644 4219 2406 4219 
Q 1781 4219 1451 3797 
Q 1122 3375 1075 2522 
Q 1259 2794 1537 2939 
Q 1816 3084 2150 3084 
Q 2853 3084 3261 2657 
Q 3669 2231 3669 1497 
Q 3669 778 3244 343 
Q 2819 -91 2113 -91 
Q 1303 -91 875 529 
Q 447 1150 447 2328 
Q 447 3434 972 4092 
Q 1497 4750 2381 4750 
Q 2619 4750 2861 4703 
Q 3103 4656 3366 4563 
z
" transform="scale(0.015625)"/>
       </defs>
       <use xlink:href="#DejaVuSans-30"/>
       <use xlink:href="#DejaVuSans-2e" transform="translate(63.623047 0)"/>
       <use xlink:href="#DejaVuSans-36" transform="translate(95.410156 0)"/>
      </g>
     </g>
    </g>
    <g id="xtick_5">
     <g id="line2d_9">
      <path d="M 554.935386 306 
L 554.935386 10.8 
" clip-path="url(#paf46ce0b3b)" style="fill: none; stroke: #b0b0b0; stroke-opacity: 0.3; stroke-width: 0.8; stroke-linecap: square"/>
     </g>
     <g id="line2d_10">
      <g>
       <use xlink:href="#m08a97141ac" x="554.935386" y="306" style="stroke: #000000; stroke-width: 0.8"/>
      </g>
     </g>
     <g id="text_5">
      <!-- 0.8 -->
      <g transform="translate(546.983823 320.598437) scale(0.1 -0.1)">
       <defs>
        <path id="DejaVuSans-38" d="M 2034 2216 
Q 1584 2216 1326 1975 
Q 1069 1734 1069 1313 
Q 1069 891 1326 650 
Q 1584 409 2034 409 
Q 2484 409 2743 651 
Q 3003 894 3003 1313 
Q 3003 1734 2745 1975 
Q 2488 2216 2034 2216 
z
M 1403 2484 
Q 997 2584 770 2862 
Q 544 3141 544 3541 
Q 544 4100 942 4425 
Q 1341 4750 2034 4750 
Q 2731 4750 3128 4425 
Q 3525 4100 3525 3541 
Q 3525 3141 3298 2862 
Q 3072 2584 2669 2484 
Q 3125 2378 3379 2068 
Q 3634 1759 3634 1313 
Q 3634 634 3220 271 
Q 2806 -91 2034 -91 
Q 1263 -91 848 271 
Q 434 634 434 1313 
Q 434 1759 690 2068 
Q 947 2378 1403 2484 
z
M 1172 3481 
Q 1172 3119 1398 2916 
Q 1625 2713 2034 2713 
Q 2441 2713 2670 2916 
Q 2900 3119 2900 3481 
Q 2900 3844 2670 4047 
Q 2441 4250 2034 4250 
Q 1625 4250 1398 4047 
Q 1172 3844 1172 3481 
z
" transform="scale(0.015625)"/>
       </defs>
       <use xlink:href="#DejaVuSans-30"/>
       <use xlink:href="#DejaVuSans-2e" transform="translate(63.623047 0)"/>
       <use xlink:href="#DejaVuSans-38" transform="translate(95.410156 0)"/>
      </g>
     </g>
    </g>
    <g id="xtick_6">
     <g id="line2d_11">
      <path d="M 678.349545 306 
L 678.349545 10.8 
" clip-path="url(#paf46ce0b3b)" style="fill: none; stroke: #b0b0b0; stroke-opacity: 0.3; stroke-width: 0.8; stroke-linecap: square"/>
     </g>
     <g id="line2d_12">
      <g>
       <use xlink:href="#m08a97141ac" x="678.349545" y="306" style="stroke: #000000; stroke-width: 0.8"/>
      </g>
     </g>
     <g id="text_6">
      <!-- 1.0 -->
      <g transform="translate(670.397983 320.598437) scale(0.1 -0.1)">
       <defs>
        <path id="DejaVuSans-31" d="M 794 531 
L 1825 531 
L 1825 4091 
L 703 3866 
L 703 4441 
L 1819 4666 
L 2450 4666 
L 2450 531 
L 3481 531 
L 3481 0 
L 794 0 
L 794 531 
z
" transform="scale(0.015625)"/>
       </defs>
       <use xlink:href="#DejaVuSans-31"/>
       <use xlink:href="#DejaVuSans-2e" transform="translate(63.623047 0)"/>
       <use xlink:href="#DejaVuSans-30" transform="translate(95.410156 0)"/>
      </g>
     </g>
    </g>
    <g id="text_7">
     <!-- Frequency -->
     <g transform="translate(344.015313 334.276563) scale(0.1 -0.1)">
      <defs>
       <path id="DejaVuSans-46" d="M 628 4666 
L 3309 4666 
L 3309 4134 
L 1259 4134 
L 1259 2759 
L 3109 2759 
L 3109 2228 
L 1259 2228 
L 1259 0 
L 628 0 
L 628 4666 
z
" transform="scale(0.015625)"/>
       <path id="DejaVuSans-72" d="M 2631 2963 
Q 2534 3019 2420 3045 
Q 2306 3072 2169 3072 
Q 1681 3072 1420 2755 
Q 1159 2438 1159 1844 
L 1159 0 
L 581 0 
L 581 3500 
L 1159 3500 
L 1159 2956 
Q 1341 3275 1631 3429 
Q 1922 3584 2338 3584 
Q 2397 3584 2469 3576 
Q 2541 3569 2628 3553 
L 2631 2963 
z
" transform="scale(0.015625)"/>
       <path id="DejaVuSans-65" d="M 3597 1894 
L 3597 1613 
L 953 1613 
Q 991 1019 1311 708 
Q 1631 397 2203 397 
Q 2534 397 2845 478 
Q 3156 559 3463 722 
L 3463 178 
Q 3153 47 2828 -22 
Q 2503 -91 2169 -91 
Q 1331 -91 842 396 
Q 353 884 353 1716 
Q 353 2575 817 3079 
Q 1281 3584 2069 3584 
Q 2775 3584 3186 3129 
Q 3597 2675 3597 1894 
z
M 3022 2063 
Q 3016 2534 2758 2815 
Q 2500 3097 2075 3097 
Q 1594 3097 1305 2825 
Q 1016 2553 972 2059 
L 3022 2063 
z
" transform="scale(0.015625)"/>
       <path id="DejaVuSans-71" d="M 947 1747 
Q 947 1113 1208 752 
Q 1469 391 1925 391 
Q 2381 391 2643 752 
Q 2906 1113 2906 1747 
Q 2906 2381 2643 2742 
Q 2381 3103 1925 3103 
Q 1469 3103 1208 2742 
Q 947 2381 947 1747 
z
M 2906 525 
Q 2725 213 2448 61 
Q 2172 -91 1784 -91 
Q 1150 -91 751 415 
Q 353 922 353 1747 
Q 353 2572 751 3078 
Q 1150 3584 1784 3584 
Q 2172 3584 2448 3432 
Q 2725 3281 2906 2969 
L 2906 3500 
L 3481 3500 
L 3481 -1331 
L 2906 -1331 
L 2906 525 
z
" transform="scale(0.015625)"/>
       <path id="DejaVuSans-75" d="M 544 1381 
L 544 3500 
L 1119 3500 
L 1119 1403 
Q 1119 906 1312 657 
Q 1506 409 1894 409 
Q 2359 409 2629 706 
Q 2900 1003 2900 1516 
L 2900 3500 
L 3475 3500 
L 3475 0 
L 2900 0 
L 2900 538 
Q 2691 219 2414 64 
Q 2138 -91 1772 -91 
Q 1169 -91 856 284 
Q 544 659 544 1381 
z
M 1991 3584 
L 1991 3584 
z
" transform="scale(0.015625)"/>
       <path id="DejaVuSans-6e" d="M 3513 2113 
L 3513 0 
L 2938 0 
L 2938 2094 
Q 2938 2591 2744 2837 
Q 2550 3084 2163 3084 
Q 1697 3084 1428 2787 
Q 1159 2491 1159 1978 
L 1159 0 
L 581 0 
L 581 3500 
L 1159 3500 
L 1159 2956 
Q 1366 3272 1645 3428 
Q 1925 3584 2291 3584 
Q 2894 3584 3203 3211 
Q 3513 2838 3513 2113 
z
" transform="scale(0.015625)"/>
       <path id="DejaVuSans-63" d="M 3122 3366 
L 3122 2828 
Q 2878 2963 2633 3030 
Q 2388 3097 2138 3097 
Q 1578 3097 1268 2742 
Q 959 2388 959 1747 
Q 959 1106 1268 751 
Q 1578 397 2138 397 
Q 2388 397 2633 464 
Q 2878 531 3122 666 
L 3122 134 
Q 2881 22 2623 -34 
Q 2366 -91 2075 -91 
Q 1284 -91 818 406 
Q 353 903 353 1747 
Q 353 2603 823 3093 
Q 1294 3584 2113 3584 
Q 2378 3584 2631 3529 
Q 2884 3475 3122 3366 
z
" transform="scale(0.015625)"/>
       <path id="DejaVuSans-79" d="M 2059 -325 
Q 1816 -950 1584 -1140 
Q 1353 -1331 966 -1331 
L 506 -1331 
L 506 -850 
L 844 -850 
Q 1081 -850 1212 -737 
Q 1344 -625 1503 -206 
L 1606 56 
L 191 3500 
L 800 3500 
L 1894 763 
L 2988 3500 
L 3597 3500 
L 2059 -325 
z
" transform="scale(0.015625)"/>
      </defs>
      <use xlink:href="#DejaVuSans-46"/>
      <use xlink:href="#DejaVuSans-72" transform="translate(50.269531 0)"/>
      <use xlink:href="#DejaVuSans-65" transform="translate(89.132812 0)"/>
      <use xlink:href="#DejaVuSans-71" transform="translate(150.65625 0)"/>
      <use xlink:href="#DejaVuSans-75" transform="translate(214.132812 0)"/>
      <use xlink:href="#DejaVuSans-65" transform="translate(277.511719 0)"/>
      <use xlink:href="#DejaVuSans-6e" transform="translate(339.035156 0)"/>
      <use xlink:href="#DejaVuSans-63" transform="translate(402.414062 0)"/>
      <use xlink:href="#DejaVuSans-79" transform="translate(457.394531 0)"/>
     </g>
    </g>
    <g id="text_8">
     <!-- 1e7 -->
     <g transform="translate(690.321875 333.276563) scale(0.1 -0.1)">
      <defs>
       <path id="DejaVuSans-37" d="M 525 4666 
L 3525 4666 
L 3525 4397 
L 1831 0 
L 1172 0 
L 2766 4134 
L 525 4134 
L 525 4666 
z
" transform="scale(0.015625)"/>
      </defs>
      <use xlink:href="#DejaVuSans-31"/>
      <use xlink:href="#DejaVuSans-65" transform="translate(63.623047 0)"/>
      <use xlink:href="#DejaVuSans-37" transform="translate(125.146484 0)"/>
     </g>
    </g>
   </g>
   <g id="matplotlib.axis_2">
    <g id="ytick_1">
     <g id="line2d_13">
      <path d="M 30.49 305.361039 
L 709.2 305.361039 
" clip-path="url(#paf46ce0b3b)" style="fill: none; stroke: #b0b0b0; stroke-opacity: 0.3; stroke-width: 0.8; stroke-linecap: square"/>
     </g>
     <g id="line2d_14">
      <defs>
       <path id="maf2df5eb95" d="M 0 0 
L -3.5 0 
" style="stroke: #000000; stroke-width: 0.8"/>
      </defs>
      <g>
       <use xlink:href="#maf2df5eb95" x="30.49" y="305.361039" style="stroke: #000000; stroke-width: 0.8"/>
      </g>
     </g>
     <g id="text_9">
      <!-- 10 -->
      <g transform="translate(10.765 309.160258) scale(0.1 -0.1)">
       <use xlink:href="#DejaVuSans-31"/>
       <use xlink:href="#DejaVuSans-30" transform="translate(63.623047 0)"/>
      </g>
     </g>
    </g>
    <g id="ytick_2">
     <g id="line2d_15">
      <path d="M 30.49 262.763636 
L 709.2 262.763636 
" clip-path="url(#paf46ce0b3b)" style="fill: none; stroke: #b0b0b0; stroke-opacity: 0.3; stroke-width: 0.8; stroke-linecap: square"/>
     </g>
     <g id="line2d_16">
      <g>
       <use xlink:href="#maf2df5eb95" x="30.49" y="262.763636" style="stroke: #000000; stroke-width: 0.8"/>
      </g>
     </g>
     <g id="text_10">
      <!-- 15 -->
      <g transform="translate(10.765 266.562855) scale(0.1 -0.1)">
       <defs>
        <path id="DejaVuSans-35" d="M 691 4666 
L 3169 4666 
L 3169 4134 
L 1269 4134 
L 1269 2991 
Q 1406 3038 1543 3061 
Q 1681 3084 1819 3084 
Q 2600 3084 3056 2656 
Q 3513 2228 3513 1497 
Q 3513 744 3044 326 
Q 2575 -91 1722 -91 
Q 1428 -91 1123 -41 
Q 819 9 494 109 
L 494 744 
Q 775 591 1075 516 
Q 1375 441 1709 441 
Q 2250 441 2565 725 
Q 2881 1009 2881 1497 
Q 2881 1984 2565 2268 
Q 2250 2553 1709 2553 
Q 1456 2553 1204 2497 
Q 953 2441 691 2322 
L 691 4666 
z
" transform="scale(0.015625)"/>
       </defs>
       <use xlink:href="#DejaVuSans-31"/>
       <use xlink:href="#DejaVuSans-35" transform="translate(63.623047 0)"/>
      </g>
     </g>
    </g>
    <g id="ytick_3">
     <g id="line2d_17">
      <path d="M 30.49 220.166234 
L 709.2 220.166234 
" clip-path="url(#paf46ce0b3b)" style="fill: none; stroke: #b0b0b0; stroke-opacity: 0.3; stroke-width: 0.8; stroke-linecap: square"/>
     </g>
     <g id="line2d_18">
      <g>
       <use xlink:href="#maf2df5eb95" x="30.49" y="220.166234" style="stroke: #000000; stroke-width: 0.8"/>
      </g>
     </g>
     <g id="text_11">
      <!-- 20 -->
      <g transform="translate(10.765 223.965453) scale(0.1 -0.1)">
       <use xlink:href="#DejaVuSans-32"/>
       <use xlink:href="#DejaVuSans-30" transform="translate(63.623047 0)"/>
      </g>
     </g>
    </g>
    <g id="ytick_4">
     <g id="line2d_19">
      <path d="M 30.49 177.568831 
L 709.2 177.568831 
" clip-path="url(#paf46ce0b3b)" style="fill: none; stroke: #b0b0b0; stroke-opacity: 0.3; stroke-width: 0.8; stroke-linecap: square"/>
     </g>
     <g id="line2d_20">
      <g>
       <use xlink:href="#maf2df5eb95" x="30.49" y="177.568831" style="stroke: #000000; stroke-width: 0.8"/>
      </g>
     </g>
     <g id="text_12">
      <!-- 25 -->
      <g transform="translate(10.765 181.36805) scale(0.1 -0.1)">
       <use xlink:href="#DejaVuSans-32"/>
       <use xlink:href="#DejaVuSans-35" transform="translate(63.623047 0)"/>
      </g>
     </g>
    </g>
    <g id="ytick_5">
     <g id="line2d_21">
      <path d="M 30.49 134.971429 
L 709.2 134.971429 
" clip-path="url(#paf46ce0b3b)" style="fill: none; stroke: #b0b0b0; stroke-opacity: 0.3; stroke-width: 0.8; stroke-linecap: square"/>
     </g>
     <g id="line2d_22">
      <g>
       <use xlink:href="#maf2df5eb95" x="30.49" y="134.971429" style="stroke: #000000; stroke-width: 0.8"/>
      </g>
     </g>
     <g id="text_13">
      <!-- 30 -->
      <g transform="translate(10.765 138.770647) scale(0.1 -0.1)">
       <defs>
        <path id="DejaVuSans-33" d="M 2597 2516 
Q 3050 2419 3304 2112 
Q 3559 1806 3559 1356 
Q 3559 666 3084 287 
Q 2609 -91 1734 -91 
Q 1441 -91 1130 -33 
Q 819 25 488 141 
L 488 750 
Q 750 597 1062 519 
Q 1375 441 1716 441 
Q 2309 441 2620 675 
Q 2931 909 2931 1356 
Q 2931 1769 2642 2001 
Q 2353 2234 1838 2234 
L 1294 2234 
L 1294 2753 
L 1863 2753 
Q 2328 2753 2575 2939 
Q 2822 3125 2822 3475 
Q 2822 3834 2567 4026 
Q 2313 4219 1838 4219 
Q 1578 4219 1281 4162 
Q 984 4106 628 3988 
L 628 4550 
Q 988 4650 1302 4700 
Q 1616 4750 1894 4750 
Q 2613 4750 3031 4423 
Q 3450 4097 3450 3541 
Q 3450 3153 3228 2886 
Q 3006 2619 2597 2516 
z
" transform="scale(0.015625)"/>
       </defs>
       <use xlink:href="#DejaVuSans-33"/>
       <use xlink:href="#DejaVuSans-30" transform="translate(63.623047 0)"/>
      </g>
     </g>
    </g>
    <g id="ytick_6">
     <g id="line2d_23">
      <path d="M 30.49 92.374026 
L 709.2 92.374026 
" clip-path="url(#paf46ce0b3b)" style="fill: none; stroke: #b0b0b0; stroke-opacity: 0.3; stroke-width: 0.8; stroke-linecap: square"/>
     </g>
     <g id="line2d_24">
      <g>
       <use xlink:href="#maf2df5eb95" x="30.49" y="92.374026" style="stroke: #000000; stroke-width: 0.8"/>
      </g>
     </g>
     <g id="text_14">
      <!-- 35 -->
      <g transform="translate(10.765 96.173245) scale(0.1 -0.1)">
       <use xlink:href="#DejaVuSans-33"/>
       <use xlink:href="#DejaVuSans-35" transform="translate(63.623047 0)"/>
      </g>
     </g>
    </g>
    <g id="ytick_7">
     <g id="line2d_25">
      <path d="M 30.49 49.776623 
L 709.2 49.776623 
" clip-path="url(#paf46ce0b3b)" style="fill: none; stroke: #b0b0b0; stroke-opacity: 0.3; stroke-width: 0.8; stroke-linecap: square"/>
     </g>
     <g id="line2d_26">
      <g>
       <use xlink:href="#maf2df5eb95" x="30.49" y="49.776623" style="stroke: #000000; stroke-width: 0.8"/>
      </g>
     </g>
     <g id="text_15">
      <!-- 40 -->
      <g transform="translate(10.765 53.575842) scale(0.1 -0.1)">
       <use xlink:href="#DejaVuSans-34"/>
       <use xlink:href="#DejaVuSans-30" transform="translate(63.623047 0)"/>
      </g>
     </g>
    </g>
   </g>
   <g id="line2d_27">
    <path d="M 61.340455 24.218182 
L 61.895818 26.774026 
L 67.449455 40.405195 
L 122.985827 102.597403 
L 678.349545 278.950649 
" clip-path="url(#paf46ce0b3b)" style="fill: none; stroke: #0060a8; stroke-width: 1.5; stroke-linecap: square"/>
   </g>
   <g id="line2d_28">
    <path d="M 61.340455 31.885714 
L 61.895818 34.441558 
L 67.449455 48.072727 
L 122.985827 113.672727 
L 678.349545 285.766234 
" clip-path="url(#paf46ce0b3b)" style="fill: none; stroke: #d45800; stroke-width: 1.5; stroke-linecap: square"/>
   </g>
   <g id="line2d_29">
    <path d="M 61.340455 39.553247 
L 61.895818 42.109091 
L 67.449455 55.74026 
L 122.985827 124.748052 
L 678.349545 292.581818 
" clip-path="url(#paf46ce0b3b)" style="fill: none; stroke: #1a8a1a; stroke-width: 1.5; stroke-linecap: square"/>
   </g>
   <g id="patch_3">
    <path d="M 30.49 306 
L 30.49 10.8 
" style="fill: none; stroke: #000000; stroke-width: 0.8; stroke-linejoin: miter; stroke-linecap: square"/>
   </g>
   <g id="patch_4">
    <path d="M 709.2 306 
L 709.2 10.8 
" style="fill: none; stroke: #000000; stroke-width: 0.8; stroke-linejoin: miter; stroke-linecap: square"/>
   </g>
   <g id="patch_5">
    <path d="M 30.49 306 
L 709.2 306 
" style="fill: none; stroke: #000000; stroke-width: 0.8; stroke-linejoin: miter; stroke-linecap: square"/>
   </g>
   <g id="patch_6">
    <path d="M 30.49 10.8 
L 709.2 10.8 
" style="fill: none; stroke: #000000; stroke-width: 0.8; stroke-linejoin: miter; stroke-linecap: square"/>
   </g>
   <g id="legend_1">
    <g id="patch_7">
     <path d="M 644.66875 47.808125 
L 704.3 47.808125 
Q 705.7 47.808125 705.7 46.408125 
L 705.7 15.7 
Q 705.7 14.3 704.3 14.3 
L 644.66875 14.3 
Q 643.26875 14.3 643.26875 15.7 
L 643.26875 46.408125 
Q 643.26875 47.808125 644.66875 47.808125 
z
" style="fill: #ffffff; opacity: 0.8; stroke: #cccccc; stroke-linejoin: miter"/>
    </g>
    <g id="line2d_30">
     <path d="M 646.06875 19.968906 
L 653.06875 19.968906 
L 660.06875 19.968906 
" style="fill: none; stroke: #0060a8; stroke-width: 1.5; stroke-linecap: square"/>
    </g>
    <g id="text_16">
     <!-- Gain_T-40 -->
     <g transform="translate(665.66875 22.418906) scale(0.07 -0.07)">
      <defs>
       <path id="DejaVuSans-47" d="M 3809 666 
L 3809 1919 
L 2778 1919 
L 2778 2438 
L 4434 2438 
L 4434 434 
Q 4069 175 3628 42 
Q 3188 -91 2688 -91 
Q 1594 -91 976 548 
Q 359 1188 359 2328 
Q 359 3472 976 4111 
Q 1594 4750 2688 4750 
Q 3144 4750 3555 4637 
Q 3966 4525 4313 4306 
L 4313 3634 
Q 3963 3931 3569 4081 
Q 3175 4231 2741 4231 
Q 1884 4231 1454 3753 
Q 1025 3275 1025 2328 
Q 1025 1384 1454 906 
Q 1884 428 2741 428 
Q 3075 428 3337 486 
Q 3600 544 3809 666 
z
" transform="scale(0.015625)"/>
       <path id="DejaVuSans-61" d="M 2194 1759 
Q 1497 1759 1228 1600 
Q 959 1441 959 1056 
Q 959 750 1161 570 
Q 1363 391 1709 391 
Q 2188 391 2477 730 
Q 2766 1069 2766 1631 
L 2766 1759 
L 2194 1759 
z
M 3341 1997 
L 3341 0 
L 2766 0 
L 2766 531 
Q 2569 213 2275 61 
Q 1981 -91 1556 -91 
Q 1019 -91 701 211 
Q 384 513 384 1019 
Q 384 1609 779 1909 
Q 1175 2209 1959 2209 
L 2766 2209 
L 2766 2266 
Q 2766 2663 2505 2880 
Q 2244 3097 1772 3097 
Q 1472 3097 1187 3025 
Q 903 2953 641 2809 
L 641 3341 
Q 956 3463 1253 3523 
Q 1550 3584 1831 3584 
Q 2591 3584 2966 3190 
Q 3341 2797 3341 1997 
z
" transform="scale(0.015625)"/>
       <path id="DejaVuSans-69" d="M 603 3500 
L 1178 3500 
L 1178 0 
L 603 0 
L 603 3500 
z
M 603 4863 
L 1178 4863 
L 1178 4134 
L 603 4134 
L 603 4863 
z
" transform="scale(0.015625)"/>
       <path id="DejaVuSans-5f" d="M 3263 -1063 
L 3263 -1509 
L -63 -1509 
L -63 -1063 
L 3263 -1063 
z
" transform="scale(0.015625)"/>
       <path id="DejaVuSans-54" d="M -19 4666 
L 3928 4666 
L 3928 4134 
L 2272 4134 
L 2272 0 
L 1638 0 
L 1638 4134 
L -19 4134 
L -19 4666 
z
" transform="scale(0.015625)"/>
       <path id="DejaVuSans-2d" d="M 313 2009 
L 1997 2009 
L 1997 1497 
L 313 1497 
L 313 2009 
z
" transform="scale(0.015625)"/>
      </defs>
      <use xlink:href="#DejaVuSans-47"/>
      <use xlink:href="#DejaVuSans-61" transform="translate(77.490234 0)"/>
      <use xlink:href="#DejaVuSans-69" transform="translate(138.769531 0)"/>
      <use xlink:href="#DejaVuSans-6e" transform="translate(166.552734 0)"/>
      <use xlink:href="#DejaVuSans-5f" transform="translate(229.931641 0)"/>
      <use xlink:href="#DejaVuSans-54" transform="translate(279.931641 0)"/>
      <use xlink:href="#DejaVuSans-2d" transform="translate(331.890625 0)"/>
      <use xlink:href="#DejaVuSans-34" transform="translate(367.974609 0)"/>
      <use xlink:href="#DejaVuSans-30" transform="translate(431.597656 0)"/>
     </g>
    </g>
    <g id="line2d_31">
     <path d="M 646.06875 30.438281 
L 653.06875 30.438281 
L 660.06875 30.438281 
" style="fill: none; stroke: #d45800; stroke-width: 1.5; stroke-linecap: square"/>
    </g>
    <g id="text_17">
     <!-- Gain_T27 -->
     <g transform="translate(665.66875 32.888281) scale(0.07 -0.07)">
      <use xlink:href="#DejaVuSans-47"/>
      <use xlink:href="#DejaVuSans-61" transform="translate(77.490234 0)"/>
      <use xlink:href="#DejaVuSans-69" transform="translate(138.769531 0)"/>
      <use xlink:href="#DejaVuSans-6e" transform="translate(166.552734 0)"/>
      <use xlink:href="#DejaVuSans-5f" transform="translate(229.931641 0)"/>
      <use xlink:href="#DejaVuSans-54" transform="translate(279.931641 0)"/>
      <use xlink:href="#DejaVuSans-32" transform="translate(341.015625 0)"/>
      <use xlink:href="#DejaVuSans-37" transform="translate(404.638672 0)"/>
     </g>
    </g>
    <g id="line2d_32">
     <path d="M 646.06875 40.907656 
L 653.06875 40.907656 
L 660.06875 40.907656 
" style="fill: none; stroke: #1a8a1a; stroke-width: 1.5; stroke-linecap: square"/>
    </g>
    <g id="text_18">
     <!-- Gain_T125 -->
     <g transform="translate(665.66875 43.357656) scale(0.07 -0.07)">
      <use xlink:href="#DejaVuSans-47"/>
      <use xlink:href="#DejaVuSans-61" transform="translate(77.490234 0)"/>
      <use xlink:href="#DejaVuSans-69" transform="translate(138.769531 0)"/>
      <use xlink:href="#DejaVuSans-6e" transform="translate(166.552734 0)"/>
      <use xlink:href="#DejaVuSans-5f" transform="translate(229.931641 0)"/>
      <use xlink:href="#DejaVuSans-54" transform="translate(279.931641 0)"/>
      <use xlink:href="#DejaVuSans-31" transform="translate(341.015625 0)"/>
      <use xlink:href="#DejaVuSans-32" transform="translate(404.638672 0)"/>
      <use xlink:href="#DejaVuSans-35" transform="translate(468.261719 0)"/>
     </g>
    </g>
   </g>
  </g>
  <g id="text_19">
   <!-- Gain_T-40: μ=34.74 σ=11.3244  |  Gain_T27: μ=33.78 σ=11.2941  |  Gain_T125: μ=32.82 σ=11.2665 -->
   <g style="fill: #666666" transform="translate(7.2 354.985313) scale(0.06 -0.06)">
    <defs>
     <path id="DejaVuSans-3a" d="M 750 794 
L 1409 794 
L 1409 0 
L 750 0 
L 750 794 
z
M 750 3309 
L 1409 3309 
L 1409 2516 
L 750 2516 
L 750 3309 
z
" transform="scale(0.015625)"/>
     <path id="DejaVuSans-20" transform="scale(0.015625)"/>
     <path id="DejaVuSans-3bc" d="M 544 -1331 
L 544 3500 
L 1119 3500 
L 1119 1325 
Q 1119 872 1334 640 
Q 1550 409 1972 409 
Q 2434 409 2667 671 
Q 2900 934 2900 1459 
L 2900 3500 
L 3475 3500 
L 3475 806 
Q 3475 619 3529 530 
Q 3584 441 3700 441 
Q 3728 441 3778 458 
Q 3828 475 3916 513 
L 3916 50 
Q 3788 -22 3673 -56 
Q 3559 -91 3450 -91 
Q 3234 -91 3106 31 
Q 2978 153 2931 403 
Q 2775 156 2548 32 
Q 2322 -91 2016 -91 
Q 1697 -91 1473 31 
Q 1250 153 1119 397 
L 1119 -1331 
L 544 -1331 
z
" transform="scale(0.015625)"/>
     <path id="DejaVuSans-3d" d="M 678 2906 
L 4684 2906 
L 4684 2381 
L 678 2381 
L 678 2906 
z
M 678 1631 
L 4684 1631 
L 4684 1100 
L 678 1100 
L 678 1631 
z
" transform="scale(0.015625)"/>
     <path id="DejaVuSans-3c3" d="M 1959 3044 
Q 1484 3044 1228 2700 
Q 959 2341 959 1747 
Q 959 1119 1226 758 
Q 1494 397 1959 397 
Q 2419 397 2687 759 
Q 2956 1122 2956 1747 
Q 2956 2319 2688 2700 
Q 2441 3044 1959 3044 
z
M 1959 3500 
L 3869 3500 
L 3869 2925 
L 3225 2925 
Q 3566 2438 3566 1747 
Q 3566 888 3138 400 
Q 2709 -91 1959 -91 
Q 1206 -91 781 400 
Q 353 888 353 1747 
Q 353 2613 781 3097 
Q 1134 3500 1959 3500 
z
" transform="scale(0.015625)"/>
     <path id="DejaVuSans-7c" d="M 1344 4891 
L 1344 -1509 
L 813 -1509 
L 813 4891 
L 1344 4891 
z
" transform="scale(0.015625)"/>
     <path id="DejaVuSans-39" d="M 703 97 
L 703 672 
Q 941 559 1184 500 
Q 1428 441 1663 441 
Q 2288 441 2617 861 
Q 2947 1281 2994 2138 
Q 2813 1869 2534 1725 
Q 2256 1581 1919 1581 
Q 1219 1581 811 2004 
Q 403 2428 403 3163 
Q 403 3881 828 4315 
Q 1253 4750 1959 4750 
Q 2769 4750 3195 4129 
Q 3622 3509 3622 2328 
Q 3622 1225 3098 567 
Q 2575 -91 1691 -91 
Q 1453 -91 1209 -44 
Q 966 3 703 97 
z
M 1959 2075 
Q 2384 2075 2632 2365 
Q 2881 2656 2881 3163 
Q 2881 3666 2632 3958 
Q 2384 4250 1959 4250 
Q 1534 4250 1286 3958 
Q 1038 3666 1038 3163 
Q 1038 2656 1286 2365 
Q 1534 2075 1959 2075 
z
" transform="scale(0.015625)"/>
    </defs>
    <use xlink:href="#DejaVuSans-47"/>
    <use xlink:href="#DejaVuSans-61" transform="translate(77.490234 0)"/>
    <use xlink:href="#DejaVuSans-69" transform="translate(138.769531 0)"/>
    <use xlink:href="#DejaVuSans-6e" transform="translate(166.552734 0)"/>
    <use xlink:href="#DejaVuSans-5f" transform="translate(229.931641 0)"/>
    <use xlink:href="#DejaVuSans-54" transform="translate(279.931641 0)"/>
    <use xlink:href="#DejaVuSans-2d" transform="translate(331.890625 0)"/>
    <use xlink:href="#DejaVuSans-34" transform="translate(367.974609 0)"/>
    <use xlink:href="#DejaVuSans-30" transform="translate(431.597656 0)"/>
    <use xlink:href="#DejaVuSans-3a" transform="translate(495.220703 0)"/>
    <use xlink:href="#DejaVuSans-20" transform="translate(528.912109 0)"/>
    <use xlink:href="#DejaVuSans-3bc" transform="translate(560.699219 0)"/>
    <use xlink:href="#DejaVuSans-3d" transform="translate(624.322266 0)"/>
    <use xlink:href="#DejaVuSans-33" transform="translate(708.111328 0)"/>
    <use xlink:href="#DejaVuSans-34" transform="translate(771.734375 0)"/>
    <use xlink:href="#DejaVuSans-2e" transform="translate(835.357422 0)"/>
    <use xlink:href="#DejaVuSans-37" transform="translate(867.144531 0)"/>
    <use xlink:href="#DejaVuSans-34" transform="translate(930.767578 0)"/>
    <use xlink:href="#DejaVuSans-20" transform="translate(994.390625 0)"/>
    <use xlink:href="#DejaVuSans-3c3" transform="translate(1026.177734 0)"/>
    <use xlink:href="#DejaVuSans-3d" transform="translate(1089.556641 0)"/>
    <use xlink:href="#DejaVuSans-31" transform="translate(1173.345703 0)"/>
    <use xlink:href="#DejaVuSans-31" transform="translate(1236.96875 0)"/>
    <use xlink:href="#DejaVuSans-2e" transform="translate(1300.591797 0)"/>
    <use xlink:href="#DejaVuSans-33" transform="translate(1332.378906 0)"/>
    <use xlink:href="#DejaVuSans-32" transform="translate(1396.001953 0)"/>
    <use xlink:href="#DejaVuSans-34" transform="translate(1459.625 0)"/>
    <use xlink:href="#DejaVuSans-34" transform="translate(1523.248047 0)"/>
    <use xlink:href="#DejaVuSans-20" transform="translate(1586.871094 0)"/>
    <use xlink:href="#DejaVuSans-20" transform="translate(1618.658203 0)"/>
    <use xlink:href="#DejaVuSans-7c" transform="translate(1650.445312 0)"/>
    <use xlink:href="#DejaVuSans-20" transform="translate(1684.136719 0)"/>
    <use xlink:href="#DejaVuSans-20" transform="translate(1715.923828 0)"/>
    <use xlink:href="#DejaVuSans-47" transform="translate(1747.710938 0)"/>
    <use xlink:href="#DejaVuSans-61" transform="translate(1825.201172 0)"/>
    <use xlink:href="#DejaVuSans-69" transform="translate(1886.480469 0)"/>
    <use xlink:href="#DejaVuSans-6e" transform="translate(1914.263672 0)"/>
    <use xlink:href="#DejaVuSans-5f" transform="translate(1977.642578 0)"/>
    <use xlink:href="#DejaVuSans-54" transform="translate(2027.642578 0)"/>
    <use xlink:href="#DejaVuSans-32" transform="translate(2088.726562 0)"/>
    <use xlink:href="#DejaVuSans-37" transform="translate(2152.349609 0)"/>
    <use xlink:href="#DejaVuSans-3a" transform="translate(2215.972656 0)"/>
    <use xlink:href="#DejaVuSans-20" transform="translate(2249.664062 0)"/>
    <use xlink:href="#DejaVuSans-3bc" transform="translate(2281.451172 0)"/>
    <use xlink:href="#DejaVuSans-3d" transform="translate(2345.074219 0)"/>
    <use xlink:href="#DejaVuSans-33" transform="translate(2428.863281 0)"/>
    <use xlink:href="#DejaVuSans-33" transform="translate(2492.486328 0)"/>
    <use xlink:href="#DejaVuSans-2e" transform="translate(2556.109375 0)"/>
    <use xlink:href="#DejaVuSans-37" transform="translate(2587.896484 0)"/>
    <use xlink:href="#DejaVuSans-38" transform="translate(2651.519531 0)"/>
    <use xlink:href="#DejaVuSans-20" transform="translate(2715.142578 0)"/>
    <use xlink:href="#DejaVuSans-3c3" transform="translate(2746.929688 0)"/>
    <use xlink:href="#DejaVuSans-3d" transform="translate(2810.308594 0)"/>
    <use xlink:href="#DejaVuSans-31" transform="translate(2894.097656 0)"/>
    <use xlink:href="#DejaVuSans-31" transform="translate(2957.720703 0)"/>
    <use xlink:href="#DejaVuSans-2e" transform="translate(3021.34375 0)"/>
    <use xlink:href="#DejaVuSans-32" transform="translate(3053.130859 0)"/>
    <use xlink:href="#DejaVuSans-39" transform="translate(3116.753906 0)"/>
    <use xlink:href="#DejaVuSans-34" transform="translate(3180.376953 0)"/>
    <use xlink:href="#DejaVuSans-31" transform="translate(3244 0)"/>
    <use xlink:href="#DejaVuSans-20" transform="translate(3307.623047 0)"/>
    <use xlink:href="#DejaVuSans-20" transform="translate(3339.410156 0)"/>
    <use xlink:href="#DejaVuSans-7c" transform="translate(3371.197266 0)"/>
    <use xlink:href="#DejaVuSans-20" transform="translate(3404.888672 0)"/>
    <use xlink:href="#DejaVuSans-20" transform="translate(3436.675781 0)"/>
    <use xlink:href="#DejaVuSans-47" transform="translate(3468.462891 0)"/>
    <use xlink:href="#DejaVuSans-61" transform="translate(3545.953125 0)"/>
    <use xlink:href="#DejaVuSans-69" transform="translate(3607.232422 0)"/>
    <use xlink:href="#DejaVuSans-6e" transform="translate(3635.015625 0)"/>
    <use xlink:href="#DejaVuSans-5f" transform="translate(3698.394531 0)"/>
    <use xlink:href="#DejaVuSans-54" transform="translate(3748.394531 0)"/>
    <use xlink:href="#DejaVuSans-31" transform="translate(3809.478516 0)"/>
    <use xlink:href="#DejaVuSans-32" transform="translate(3873.101562 0)"/>
    <use xlink:href="#DejaVuSans-35" transform="translate(3936.724609 0)"/>
    <use xlink:href="#DejaVuSans-3a" transform="translate(4000.347656 0)"/>
    <use xlink:href="#DejaVuSans-20" transform="translate(4034.039062 0)"/>
    <use xlink:href="#DejaVuSans-3bc" transform="translate(4065.826172 0)"/>
    <use xlink:href="#DejaVuSans-3d" transform="translate(4129.449219 0)"/>
    <use xlink:href="#DejaVuSans-33" transform="translate(4213.238281 0)"/>
    <use xlink:href="#DejaVuSans-32" transform="translate(4276.861328 0)"/>
    <use xlink:href="#DejaVuSans-2e" transform="translate(4340.484375 0)"/>
    <use xlink:href="#DejaVuSans-38" transform="translate(4372.271484 0)"/>
    <use xlink:href="#DejaVuSans-32" transform="translate(4435.894531 0)"/>
    <use xlink:href="#DejaVuSans-20" transform="translate(4499.517578 0)"/>
    <use xlink:href="#DejaVuSans-3c3" transform="translate(4531.304688 0)"/>
    <use xlink:href="#DejaVuSans-3d" transform="translate(4594.683594 0)"/>
    <use xlink:href="#DejaVuSans-31" transform="translate(4678.472656 0)"/>
    <use xlink:href="#DejaVuSans-31" transform="translate(4742.095703 0)"/>
    <use xlink:href="#DejaVuSans-2e" transform="translate(4805.71875 0)"/>
    <use xlink:href="#DejaVuSans-32" transform="translate(4837.505859 0)"/>
    <use xlink:href="#DejaVuSans-36" transform="translate(4901.128906 0)"/>
    <use xlink:href="#DejaVuSans-36" transform="translate(4964.751953 0)"/>
    <use xlink:href="#DejaVuSans-35" transform="translate(5028.375 0)"/>
   </g>
  </g>
 </g>
 <defs>
  <clipPath id="paf46ce0b3b">
   <rect x="30.49" y="10.8" width="678.71" height="295.2"/>
  </clipPath>
 </defs>
</svg>
