<?xml version="1.0" encoding="utf-8" standalone="no"?>
<!DOCTYPE svg PUBLIC "-//W3C//DTD SVG 1.1//EN"
  "http://www.w3.org/Graphics/SVG/1.1/DTD/svg11.dtd">
<svg xmlns:xlink="http://www.w3.org/1999/xlink" width="720pt" height="360pt" viewBox="0 0 720 360" xmlns="http://www.w3.org/2000/svg" version="1.1">
 <metadata>
  <rdf:RDF xmlns:dc="http://purl.org/dc/elements/1.1/" xmlns:cc="http://creativecommons.org/ns#" xmlns:rdf="http://www.w3.org/1999/02/22-rdf-syntax-ns#">
   <cc:Work>
    <dc:type rdf:resource="http://purl.org/dc/dcmitype/StillImage"/>
    <dc:date>2026-03-12T21:05:51.765464</dc:date>
    <dc:format>image/svg+xml</dc:format>
    <dc:creator>
     <cc:Agent>
      <dc:title>Matplotlib v3.10.0, https://matplotlib.org/</dc:title>
     </cc:Agent>
    </dc:creator>
   </cc:Work>
  </rdf:RDF>
 </metadata>
 <defs>
  <style type="text/css">*{stroke-linejoin: round; stroke-linecap: butt}</style>
 </defs>
 <g id="figure_1">
  <g id="patch_1">
   <path d="M 0 360 
L 720 360 
L 720 0 
L 0 0 
z
" style="fill: #ffffff"/>
  </g>
  <g id="axes_1">
   <g id="patch_2">
    <path d="M 70.58 306 
L 709.2 306 
L 709.2 10.8 
L 70.58 10.8 
z
" style="fill: #ffffff"/>
   </g>
   <g id="matplotlib.axis_1">
    <g id="xtick_1">
     <g id="line2d_1">
      <path d="M 99.608182 306 
L 99.608182 10.8 
" clip-path="url(#pa8b0174f4a)" style="fill: none; stroke: #b0b0b0; stroke-opacity: 0.3; stroke-width: 0.8; stroke-linecap: square"/>
     </g>
     <g id="line2d_2">
      <defs>
       <path id="m8193650f35" d="M 0 0 
L 0 3.5 
" style="stroke: #000000; stroke-width: 0.8"/>
      </defs>
      <g>
       <use xlink:href="#m8193650f35" x="99.608182" y="306" style="stroke: #000000; stroke-width: 0.8"/>
      </g>
     </g>
     <g id="text_1">
      <!-- 0 s -->
      <g transform="translate(92.233182 320.598437) scale(0.1 -0.1)">
       <defs>
        <path id="DejaVuSans-30" d="M 2034 4250 
Q 1547 4250 1301 3770 
Q 1056 3291 1056 2328 
Q 1056 1369 1301 889 
Q 1547 409 2034 409 
Q 2525 409 2770 889 
Q 3016 1369 3016 2328 
Q 3016 3291 2770 3770 
Q 2525 4250 2034 4250 
z
M 2034 4750 
Q 2819 4750 3233 4129 
Q 3647 3509 3647 2328 
Q 3647 1150 3233 529 
Q 2819 -91 2034 -91 
Q 1250 -91 836 529 
Q 422 1150 422 2328 
Q 422 3509 836 4129 
Q 1250 4750 2034 4750 
z
" transform="scale(0.015625)"/>
        <path id="DejaVuSans-20" transform="scale(0.015625)"/>
        <path id="DejaVuSans-73" d="M 2834 3397 
L 2834 2853 
Q 2591 2978 2328 3040 
Q 2066 3103 1784 3103 
Q 1356 3103 1142 2972 
Q 928 2841 928 2578 
Q 928 2378 1081 2264 
Q 1234 2150 1697 2047 
L 1894 2003 
Q 2506 1872 2764 1633 
Q 3022 1394 3022 966 
Q 3022 478 2636 193 
Q 2250 -91 1575 -91 
Q 1294 -91 989 -36 
Q 684 19 347 128 
L 347 722 
Q 666 556 975 473 
Q 1284 391 1588 391 
Q 1994 391 2212 530 
Q 2431 669 2431 922 
Q 2431 1156 2273 1281 
Q 2116 1406 1581 1522 
L 1381 1569 
Q 847 1681 609 1914 
Q 372 2147 372 2553 
Q 372 3047 722 3315 
Q 1072 3584 1716 3584 
Q 2034 3584 2315 3537 
Q 2597 3491 2834 3397 
z
" transform="scale(0.015625)"/>
       </defs>
       <use xlink:href="#DejaVuSans-30"/>
       <use xlink:href="#DejaVuSans-20" transform="translate(63.623047 0)"/>
       <use xlink:href="#DejaVuSans-73" transform="translate(95.410156 0)"/>
      </g>
     </g>
    </g>
    <g id="xtick_2">
     <g id="line2d_3">
      <path d="M 172.178636 306 
L 172.178636 10.8 
" clip-path="url(#pa8b0174f4a)" style="fill: none; stroke: #b0b0b0; stroke-opacity: 0.3; stroke-width: 0.8; stroke-linecap: square"/>
     </g>
     <g id="line2d_4">
      <g>
       <use xlink:href="#m8193650f35" x="172.178636" y="306" style="stroke: #000000; stroke-width: 0.8"/>
      </g>
     </g>
     <g id="text_2">
      <!-- 250 ns -->
      <g transform="translate(155.272386 320.598437) scale(0.1 -0.1)">
       <defs>
        <path id="DejaVuSans-32" d="M 1228 531 
L 3431 531 
L 3431 0 
L 469 0 
L 469 531 
Q 828 903 1448 1529 
Q 2069 2156 2228 2338 
Q 2531 2678 2651 2914 
Q 2772 3150 2772 3378 
Q 2772 3750 2511 3984 
Q 2250 4219 1831 4219 
Q 1534 4219 1204 4116 
Q 875 4013 500 3803 
L 500 4441 
Q 881 4594 1212 4672 
Q 1544 4750 1819 4750 
Q 2544 4750 2975 4387 
Q 3406 4025 3406 3419 
Q 3406 3131 3298 2873 
Q 3191 2616 2906 2266 
Q 2828 2175 2409 1742 
Q 1991 1309 1228 531 
z
" transform="scale(0.015625)"/>
        <path id="DejaVuSans-35" d="M 691 4666 
L 3169 4666 
L 3169 4134 
L 1269 4134 
L 1269 2991 
Q 1406 3038 1543 3061 
Q 1681 3084 1819 3084 
Q 2600 3084 3056 2656 
Q 3513 2228 3513 1497 
Q 3513 744 3044 326 
Q 2575 -91 1722 -91 
Q 1428 -91 1123 -41 
Q 819 9 494 109 
L 494 744 
Q 775 591 1075 516 
Q 1375 441 1709 441 
Q 2250 441 2565 725 
Q 2881 1009 2881 1497 
Q 2881 1984 2565 2268 
Q 2250 2553 1709 2553 
Q 1456 2553 1204 2497 
Q 953 2441 691 2322 
L 691 4666 
z
" transform="scale(0.015625)"/>
        <path id="DejaVuSans-6e" d="M 3513 2113 
L 3513 0 
L 2938 0 
L 2938 2094 
Q 2938 2591 2744 2837 
Q 2550 3084 2163 3084 
Q 1697 3084 1428 2787 
Q 1159 2491 1159 1978 
L 1159 0 
L 581 0 
L 581 3500 
L 1159 3500 
L 1159 2956 
Q 1366 3272 1645 3428 
Q 1925 3584 2291 3584 
Q 2894 3584 3203 3211 
Q 3513 2838 3513 2113 
z
" transform="scale(0.015625)"/>
       </defs>
       <use xlink:href="#DejaVuSans-32"/>
       <use xlink:href="#DejaVuSans-35" transform="translate(63.623047 0)"/>
       <use xlink:href="#DejaVuSans-30" transform="translate(127.246094 0)"/>
       <use xlink:href="#DejaVuSans-20" transform="translate(190.869141 0)"/>
       <use xlink:href="#DejaVuSans-6e" transform="translate(222.65625 0)"/>
       <use xlink:href="#DejaVuSans-73" transform="translate(286.035156 0)"/>
      </g>
     </g>
    </g>
    <g id="xtick_3">
     <g id="line2d_5">
      <path d="M 244.749091 306 
L 244.749091 10.8 
" clip-path="url(#pa8b0174f4a)" style="fill: none; stroke: #b0b0b0; stroke-opacity: 0.3; stroke-width: 0.8; stroke-linecap: square"/>
     </g>
     <g id="line2d_6">
      <g>
       <use xlink:href="#m8193650f35" x="244.749091" y="306" style="stroke: #000000; stroke-width: 0.8"/>
      </g>
     </g>
     <g id="text_3">
      <!-- 500 ns -->
      <g transform="translate(227.842841 320.598437) scale(0.1 -0.1)">
       <use xlink:href="#DejaVuSans-35"/>
       <use xlink:href="#DejaVuSans-30" transform="translate(63.623047 0)"/>
       <use xlink:href="#DejaVuSans-30" transform="translate(127.246094 0)"/>
       <use xlink:href="#DejaVuSans-20" transform="translate(190.869141 0)"/>
       <use xlink:href="#DejaVuSans-6e" transform="translate(222.65625 0)"/>
       <use xlink:href="#DejaVuSans-73" transform="translate(286.035156 0)"/>
      </g>
     </g>
    </g>
    <g id="xtick_4">
     <g id="line2d_7">
      <path d="M 317.319545 306 
L 317.319545 10.8 
" clip-path="url(#pa8b0174f4a)" style="fill: none; stroke: #b0b0b0; stroke-opacity: 0.3; stroke-width: 0.8; stroke-linecap: square"/>
     </g>
     <g id="line2d_8">
      <g>
       <use xlink:href="#m8193650f35" x="317.319545" y="306" style="stroke: #000000; stroke-width: 0.8"/>
      </g>
     </g>
     <g id="text_4">
      <!-- 750 ns -->
      <g transform="translate(300.413295 320.598437) scale(0.1 -0.1)">
       <defs>
        <path id="DejaVuSans-37" d="M 525 4666 
L 3525 4666 
L 3525 4397 
L 1831 0 
L 1172 0 
L 2766 4134 
L 525 4134 
L 525 4666 
z
" transform="scale(0.015625)"/>
       </defs>
       <use xlink:href="#DejaVuSans-37"/>
       <use xlink:href="#DejaVuSans-35" transform="translate(63.623047 0)"/>
       <use xlink:href="#DejaVuSans-30" transform="translate(127.246094 0)"/>
       <use xlink:href="#DejaVuSans-20" transform="translate(190.869141 0)"/>
       <use xlink:href="#DejaVuSans-6e" transform="translate(222.65625 0)"/>
       <use xlink:href="#DejaVuSans-73" transform="translate(286.035156 0)"/>
      </g>
     </g>
    </g>
    <g id="xtick_5">
     <g id="line2d_9">
      <path d="M 389.89 306 
L 389.89 10.8 
" clip-path="url(#pa8b0174f4a)" style="fill: none; stroke: #b0b0b0; stroke-opacity: 0.3; stroke-width: 0.8; stroke-linecap: square"/>
     </g>
     <g id="line2d_10">
      <g>
       <use xlink:href="#m8193650f35" x="389.89" y="306" style="stroke: #000000; stroke-width: 0.8"/>
      </g>
     </g>
     <g id="text_5">
      <!-- 1 µs -->
      <g transform="translate(379.33375 320.598437) scale(0.1 -0.1)">
       <defs>
        <path id="DejaVuSans-31" d="M 794 531 
L 1825 531 
L 1825 4091 
L 703 3866 
L 703 4441 
L 1819 4666 
L 2450 4666 
L 2450 531 
L 3481 531 
L 3481 0 
L 794 0 
L 794 531 
z
" transform="scale(0.015625)"/>
        <path id="DejaVuSans-b5" d="M 544 -1331 
L 544 3500 
L 1119 3500 
L 1119 1325 
Q 1119 872 1334 640 
Q 1550 409 1972 409 
Q 2434 409 2667 671 
Q 2900 934 2900 1459 
L 2900 3500 
L 3475 3500 
L 3475 806 
Q 3475 619 3529 530 
Q 3584 441 3700 441 
Q 3728 441 3778 458 
Q 3828 475 3916 513 
L 3916 50 
Q 3788 -22 3673 -56 
Q 3559 -91 3450 -91 
Q 3234 -91 3106 31 
Q 2978 153 2931 403 
Q 2775 156 2548 32 
Q 2322 -91 2016 -91 
Q 1697 -91 1473 31 
Q 1250 153 1119 397 
L 1119 -1331 
L 544 -1331 
z
" transform="scale(0.015625)"/>
       </defs>
       <use xlink:href="#DejaVuSans-31"/>
       <use xlink:href="#DejaVuSans-20" transform="translate(63.623047 0)"/>
       <use xlink:href="#DejaVuSans-b5" transform="translate(95.410156 0)"/>
       <use xlink:href="#DejaVuSans-73" transform="translate(159.033203 0)"/>
      </g>
     </g>
    </g>
    <g id="xtick_6">
     <g id="line2d_11">
      <path d="M 462.460455 306 
L 462.460455 10.8 
" clip-path="url(#pa8b0174f4a)" style="fill: none; stroke: #b0b0b0; stroke-opacity: 0.3; stroke-width: 0.8; stroke-linecap: square"/>
     </g>
     <g id="line2d_12">
      <g>
       <use xlink:href="#m8193650f35" x="462.460455" y="306" style="stroke: #000000; stroke-width: 0.8"/>
      </g>
     </g>
     <g id="text_6">
      <!-- 1.25 µs -->
      <g transform="translate(443.952642 320.598437) scale(0.1 -0.1)">
       <defs>
        <path id="DejaVuSans-2e" d="M 684 794 
L 1344 794 
L 1344 0 
L 684 0 
L 684 794 
z
" transform="scale(0.015625)"/>
       </defs>
       <use xlink:href="#DejaVuSans-31"/>
       <use xlink:href="#DejaVuSans-2e" transform="translate(63.623047 0)"/>
       <use xlink:href="#DejaVuSans-32" transform="translate(95.410156 0)"/>
       <use xlink:href="#DejaVuSans-35" transform="translate(159.033203 0)"/>
       <use xlink:href="#DejaVuSans-20" transform="translate(222.65625 0)"/>
       <use xlink:href="#DejaVuSans-b5" transform="translate(254.443359 0)"/>
       <use xlink:href="#DejaVuSans-73" transform="translate(318.066406 0)"/>
      </g>
     </g>
    </g>
    <g id="xtick_7">
     <g id="line2d_13">
      <path d="M 535.030909 306 
L 535.030909 10.8 
" clip-path="url(#pa8b0174f4a)" style="fill: none; stroke: #b0b0b0; stroke-opacity: 0.3; stroke-width: 0.8; stroke-linecap: square"/>
     </g>
     <g id="line2d_14">
      <g>
       <use xlink:href="#m8193650f35" x="535.030909" y="306" style="stroke: #000000; stroke-width: 0.8"/>
      </g>
     </g>
     <g id="text_7">
      <!-- 1.5 µs -->
      <g transform="translate(519.704347 320.598437) scale(0.1 -0.1)">
       <use xlink:href="#DejaVuSans-31"/>
       <use xlink:href="#DejaVuSans-2e" transform="translate(63.623047 0)"/>
       <use xlink:href="#DejaVuSans-35" transform="translate(95.410156 0)"/>
       <use xlink:href="#DejaVuSans-20" transform="translate(159.033203 0)"/>
       <use xlink:href="#DejaVuSans-b5" transform="translate(190.820312 0)"/>
       <use xlink:href="#DejaVuSans-73" transform="translate(254.443359 0)"/>
      </g>
     </g>
    </g>
    <g id="xtick_8">
     <g id="line2d_15">
      <path d="M 607.601364 306 
L 607.601364 10.8 
" clip-path="url(#pa8b0174f4a)" style="fill: none; stroke: #b0b0b0; stroke-opacity: 0.3; stroke-width: 0.8; stroke-linecap: square"/>
     </g>
     <g id="line2d_16">
      <g>
       <use xlink:href="#m8193650f35" x="607.601364" y="306" style="stroke: #000000; stroke-width: 0.8"/>
      </g>
     </g>
     <g id="text_8">
      <!-- 1.75 µs -->
      <g transform="translate(589.093551 320.598437) scale(0.1 -0.1)">
       <use xlink:href="#DejaVuSans-31"/>
       <use xlink:href="#DejaVuSans-2e" transform="translate(63.623047 0)"/>
       <use xlink:href="#DejaVuSans-37" transform="translate(95.410156 0)"/>
       <use xlink:href="#DejaVuSans-35" transform="translate(159.033203 0)"/>
       <use xlink:href="#DejaVuSans-20" transform="translate(222.65625 0)"/>
       <use xlink:href="#DejaVuSans-b5" transform="translate(254.443359 0)"/>
       <use xlink:href="#DejaVuSans-73" transform="translate(318.066406 0)"/>
      </g>
     </g>
    </g>
    <g id="xtick_9">
     <g id="line2d_17">
      <path d="M 680.171818 306 
L 680.171818 10.8 
" clip-path="url(#pa8b0174f4a)" style="fill: none; stroke: #b0b0b0; stroke-opacity: 0.3; stroke-width: 0.8; stroke-linecap: square"/>
     </g>
     <g id="line2d_18">
      <g>
       <use xlink:href="#m8193650f35" x="680.171818" y="306" style="stroke: #000000; stroke-width: 0.8"/>
      </g>
     </g>
     <g id="text_9">
      <!-- 2 µs -->
      <g transform="translate(669.615568 320.598437) scale(0.1 -0.1)">
       <use xlink:href="#DejaVuSans-32"/>
       <use xlink:href="#DejaVuSans-20" transform="translate(63.623047 0)"/>
       <use xlink:href="#DejaVuSans-b5" transform="translate(95.410156 0)"/>
       <use xlink:href="#DejaVuSans-73" transform="translate(159.033203 0)"/>
      </g>
     </g>
    </g>
    <g id="text_10">
     <!-- Time [s] -->
     <g transform="translate(369.561094 334.276563) scale(0.1 -0.1)">
      <defs>
       <path id="DejaVuSans-54" d="M -19 4666 
L 3928 4666 
L 3928 4134 
L 2272 4134 
L 2272 0 
L 1638 0 
L 1638 4134 
L -19 4134 
L -19 4666 
z
" transform="scale(0.015625)"/>
       <path id="DejaVuSans-69" d="M 603 3500 
L 1178 3500 
L 1178 0 
L 603 0 
L 603 3500 
z
M 603 4863 
L 1178 4863 
L 1178 4134 
L 603 4134 
L 603 4863 
z
" transform="scale(0.015625)"/>
       <path id="DejaVuSans-6d" d="M 3328 2828 
Q 3544 3216 3844 3400 
Q 4144 3584 4550 3584 
Q 5097 3584 5394 3201 
Q 5691 2819 5691 2113 
L 5691 0 
L 5113 0 
L 5113 2094 
Q 5113 2597 4934 2840 
Q 4756 3084 4391 3084 
Q 3944 3084 3684 2787 
Q 3425 2491 3425 1978 
L 3425 0 
L 2847 0 
L 2847 2094 
Q 2847 2600 2669 2842 
Q 2491 3084 2119 3084 
Q 1678 3084 1418 2786 
Q 1159 2488 1159 1978 
L 1159 0 
L 581 0 
L 581 3500 
L 1159 3500 
L 1159 2956 
Q 1356 3278 1631 3431 
Q 1906 3584 2284 3584 
Q 2666 3584 2933 3390 
Q 3200 3197 3328 2828 
z
" transform="scale(0.015625)"/>
       <path id="DejaVuSans-65" d="M 3597 1894 
L 3597 1613 
L 953 1613 
Q 991 1019 1311 708 
Q 1631 397 2203 397 
Q 2534 397 2845 478 
Q 3156 559 3463 722 
L 3463 178 
Q 3153 47 2828 -22 
Q 2503 -91 2169 -91 
Q 1331 -91 842 396 
Q 353 884 353 1716 
Q 353 2575 817 3079 
Q 1281 3584 2069 3584 
Q 2775 3584 3186 3129 
Q 3597 2675 3597 1894 
z
M 3022 2063 
Q 3016 2534 2758 2815 
Q 2500 3097 2075 3097 
Q 1594 3097 1305 2825 
Q 1016 2553 972 2059 
L 3022 2063 
z
" transform="scale(0.015625)"/>
       <path id="DejaVuSans-5b" d="M 550 4863 
L 1875 4863 
L 1875 4416 
L 1125 4416 
L 1125 -397 
L 1875 -397 
L 1875 -844 
L 550 -844 
L 550 4863 
z
" transform="scale(0.015625)"/>
       <path id="DejaVuSans-5d" d="M 1947 4863 
L 1947 -844 
L 622 -844 
L 622 -397 
L 1369 -397 
L 1369 4416 
L 622 4416 
L 622 4863 
L 1947 4863 
z
" transform="scale(0.015625)"/>
      </defs>
      <use xlink:href="#DejaVuSans-54"/>
      <use xlink:href="#DejaVuSans-69" transform="translate(57.958984 0)"/>
      <use xlink:href="#DejaVuSans-6d" transform="translate(85.742188 0)"/>
      <use xlink:href="#DejaVuSans-65" transform="translate(183.154297 0)"/>
      <use xlink:href="#DejaVuSans-20" transform="translate(244.677734 0)"/>
      <use xlink:href="#DejaVuSans-5b" transform="translate(276.464844 0)"/>
      <use xlink:href="#DejaVuSans-73" transform="translate(315.478516 0)"/>
      <use xlink:href="#DejaVuSans-5d" transform="translate(367.578125 0)"/>
     </g>
    </g>
   </g>
   <g id="matplotlib.axis_2">
    <g id="ytick_1">
     <g id="line2d_19">
      <path d="M 70.58 292.58186 
L 709.2 292.58186 
" clip-path="url(#pa8b0174f4a)" style="fill: none; stroke: #b0b0b0; stroke-opacity: 0.3; stroke-width: 0.8; stroke-linecap: square"/>
     </g>
     <g id="line2d_20">
      <defs>
       <path id="m0e70340a4b" d="M 0 0 
L -3.5 0 
" style="stroke: #000000; stroke-width: 0.8"/>
      </defs>
      <g>
       <use xlink:href="#m0e70340a4b" x="70.58" y="292.58186" style="stroke: #000000; stroke-width: 0.8"/>
      </g>
     </g>
     <g id="text_11">
      <!-- 500 mV -->
      <g transform="translate(24.733125 296.381078) scale(0.1 -0.1)">
       <defs>
        <path id="DejaVuSans-56" d="M 1831 0 
L 50 4666 
L 709 4666 
L 2188 738 
L 3669 4666 
L 4325 4666 
L 2547 0 
L 1831 0 
z
" transform="scale(0.015625)"/>
       </defs>
       <use xlink:href="#DejaVuSans-35"/>
       <use xlink:href="#DejaVuSans-30" transform="translate(63.623047 0)"/>
       <use xlink:href="#DejaVuSans-30" transform="translate(127.246094 0)"/>
       <use xlink:href="#DejaVuSans-20" transform="translate(190.869141 0)"/>
       <use xlink:href="#DejaVuSans-6d" transform="translate(222.65625 0)"/>
       <use xlink:href="#DejaVuSans-56" transform="translate(320.068359 0)"/>
      </g>
     </g>
    </g>
    <g id="ytick_2">
     <g id="line2d_21">
      <path d="M 70.58 259.036395 
L 709.2 259.036395 
" clip-path="url(#pa8b0174f4a)" style="fill: none; stroke: #b0b0b0; stroke-opacity: 0.3; stroke-width: 0.8; stroke-linecap: square"/>
     </g>
     <g id="line2d_22">
      <g>
       <use xlink:href="#m0e70340a4b" x="70.58" y="259.036395" style="stroke: #000000; stroke-width: 0.8"/>
      </g>
     </g>
     <g id="text_12">
      <!-- 600 mV -->
      <g transform="translate(24.733125 262.835613) scale(0.1 -0.1)">
       <defs>
        <path id="DejaVuSans-36" d="M 2113 2584 
Q 1688 2584 1439 2293 
Q 1191 2003 1191 1497 
Q 1191 994 1439 701 
Q 1688 409 2113 409 
Q 2538 409 2786 701 
Q 3034 994 3034 1497 
Q 3034 2003 2786 2293 
Q 2538 2584 2113 2584 
z
M 3366 4563 
L 3366 3988 
Q 3128 4100 2886 4159 
Q 2644 4219 2406 4219 
Q 1781 4219 1451 3797 
Q 1122 3375 1075 2522 
Q 1259 2794 1537 2939 
Q 1816 3084 2150 3084 
Q 2853 3084 3261 2657 
Q 3669 2231 3669 1497 
Q 3669 778 3244 343 
Q 2819 -91 2113 -91 
Q 1303 -91 875 529 
Q 447 1150 447 2328 
Q 447 3434 972 4092 
Q 1497 4750 2381 4750 
Q 2619 4750 2861 4703 
Q 3103 4656 3366 4563 
z
" transform="scale(0.015625)"/>
       </defs>
       <use xlink:href="#DejaVuSans-36"/>
       <use xlink:href="#DejaVuSans-30" transform="translate(63.623047 0)"/>
       <use xlink:href="#DejaVuSans-30" transform="translate(127.246094 0)"/>
       <use xlink:href="#DejaVuSans-20" transform="translate(190.869141 0)"/>
       <use xlink:href="#DejaVuSans-6d" transform="translate(222.65625 0)"/>
       <use xlink:href="#DejaVuSans-56" transform="translate(320.068359 0)"/>
      </g>
     </g>
    </g>
    <g id="ytick_3">
     <g id="line2d_23">
      <path d="M 70.58 225.49093 
L 709.2 225.49093 
" clip-path="url(#pa8b0174f4a)" style="fill: none; stroke: #b0b0b0; stroke-opacity: 0.3; stroke-width: 0.8; stroke-linecap: square"/>
     </g>
     <g id="line2d_24">
      <g>
       <use xlink:href="#m0e70340a4b" x="70.58" y="225.49093" style="stroke: #000000; stroke-width: 0.8"/>
      </g>
     </g>
     <g id="text_13">
      <!-- 700 mV -->
      <g transform="translate(24.733125 229.290149) scale(0.1 -0.1)">
       <use xlink:href="#DejaVuSans-37"/>
       <use xlink:href="#DejaVuSans-30" transform="translate(63.623047 0)"/>
       <use xlink:href="#DejaVuSans-30" transform="translate(127.246094 0)"/>
       <use xlink:href="#DejaVuSans-20" transform="translate(190.869141 0)"/>
       <use xlink:href="#DejaVuSans-6d" transform="translate(222.65625 0)"/>
       <use xlink:href="#DejaVuSans-56" transform="translate(320.068359 0)"/>
      </g>
     </g>
    </g>
    <g id="ytick_4">
     <g id="line2d_25">
      <path d="M 70.58 191.945465 
L 709.2 191.945465 
" clip-path="url(#pa8b0174f4a)" style="fill: none; stroke: #b0b0b0; stroke-opacity: 0.3; stroke-width: 0.8; stroke-linecap: square"/>
     </g>
     <g id="line2d_26">
      <g>
       <use xlink:href="#m0e70340a4b" x="70.58" y="191.945465" style="stroke: #000000; stroke-width: 0.8"/>
      </g>
     </g>
     <g id="text_14">
      <!-- 800 mV -->
      <g transform="translate(24.733125 195.744684) scale(0.1 -0.1)">
       <defs>
        <path id="DejaVuSans-38" d="M 2034 2216 
Q 1584 2216 1326 1975 
Q 1069 1734 1069 1313 
Q 1069 891 1326 650 
Q 1584 409 2034 409 
Q 2484 409 2743 651 
Q 3003 894 3003 1313 
Q 3003 1734 2745 1975 
Q 2488 2216 2034 2216 
z
M 1403 2484 
Q 997 2584 770 2862 
Q 544 3141 544 3541 
Q 544 4100 942 4425 
Q 1341 4750 2034 4750 
Q 2731 4750 3128 4425 
Q 3525 4100 3525 3541 
Q 3525 3141 3298 2862 
Q 3072 2584 2669 2484 
Q 3125 2378 3379 2068 
Q 3634 1759 3634 1313 
Q 3634 634 3220 271 
Q 2806 -91 2034 -91 
Q 1263 -91 848 271 
Q 434 634 434 1313 
Q 434 1759 690 2068 
Q 947 2378 1403 2484 
z
M 1172 3481 
Q 1172 3119 1398 2916 
Q 1625 2713 2034 2713 
Q 2441 2713 2670 2916 
Q 2900 3119 2900 3481 
Q 2900 3844 2670 4047 
Q 2441 4250 2034 4250 
Q 1625 4250 1398 4047 
Q 1172 3844 1172 3481 
z
" transform="scale(0.015625)"/>
       </defs>
       <use xlink:href="#DejaVuSans-38"/>
       <use xlink:href="#DejaVuSans-30" transform="translate(63.623047 0)"/>
       <use xlink:href="#DejaVuSans-30" transform="translate(127.246094 0)"/>
       <use xlink:href="#DejaVuSans-20" transform="translate(190.869141 0)"/>
       <use xlink:href="#DejaVuSans-6d" transform="translate(222.65625 0)"/>
       <use xlink:href="#DejaVuSans-56" transform="translate(320.068359 0)"/>
      </g>
     </g>
    </g>
    <g id="ytick_5">
     <g id="line2d_27">
      <path d="M 70.58 158.4 
L 709.2 158.4 
" clip-path="url(#pa8b0174f4a)" style="fill: none; stroke: #b0b0b0; stroke-opacity: 0.3; stroke-width: 0.8; stroke-linecap: square"/>
     </g>
     <g id="line2d_28">
      <g>
       <use xlink:href="#m0e70340a4b" x="70.58" y="158.4" style="stroke: #000000; stroke-width: 0.8"/>
      </g>
     </g>
     <g id="text_15">
      <!-- 900 mV -->
      <g transform="translate(24.733125 162.199219) scale(0.1 -0.1)">
       <defs>
        <path id="DejaVuSans-39" d="M 703 97 
L 703 672 
Q 941 559 1184 500 
Q 1428 441 1663 441 
Q 2288 441 2617 861 
Q 2947 1281 2994 2138 
Q 2813 1869 2534 1725 
Q 2256 1581 1919 1581 
Q 1219 1581 811 2004 
Q 403 2428 403 3163 
Q 403 3881 828 4315 
Q 1253 4750 1959 4750 
Q 2769 4750 3195 4129 
Q 3622 3509 3622 2328 
Q 3622 1225 3098 567 
Q 2575 -91 1691 -91 
Q 1453 -91 1209 -44 
Q 966 3 703 97 
z
M 1959 2075 
Q 2384 2075 2632 2365 
Q 2881 2656 2881 3163 
Q 2881 3666 2632 3958 
Q 2384 4250 1959 4250 
Q 1534 4250 1286 3958 
Q 1038 3666 1038 3163 
Q 1038 2656 1286 2365 
Q 1534 2075 1959 2075 
z
" transform="scale(0.015625)"/>
       </defs>
       <use xlink:href="#DejaVuSans-39"/>
       <use xlink:href="#DejaVuSans-30" transform="translate(63.623047 0)"/>
       <use xlink:href="#DejaVuSans-30" transform="translate(127.246094 0)"/>
       <use xlink:href="#DejaVuSans-20" transform="translate(190.869141 0)"/>
       <use xlink:href="#DejaVuSans-6d" transform="translate(222.65625 0)"/>
       <use xlink:href="#DejaVuSans-56" transform="translate(320.068359 0)"/>
      </g>
     </g>
    </g>
    <g id="ytick_6">
     <g id="line2d_29">
      <path d="M 70.58 124.854535 
L 709.2 124.854535 
" clip-path="url(#pa8b0174f4a)" style="fill: none; stroke: #b0b0b0; stroke-opacity: 0.3; stroke-width: 0.8; stroke-linecap: square"/>
     </g>
     <g id="line2d_30">
      <g>
       <use xlink:href="#m0e70340a4b" x="70.58" y="124.854535" style="stroke: #000000; stroke-width: 0.8"/>
      </g>
     </g>
     <g id="text_16">
      <!-- 1 V -->
      <g transform="translate(47.19875 128.653754) scale(0.1 -0.1)">
       <use xlink:href="#DejaVuSans-31"/>
       <use xlink:href="#DejaVuSans-20" transform="translate(63.623047 0)"/>
       <use xlink:href="#DejaVuSans-56" transform="translate(95.410156 0)"/>
      </g>
     </g>
    </g>
    <g id="ytick_7">
     <g id="line2d_31">
      <path d="M 70.58 91.30907 
L 709.2 91.30907 
" clip-path="url(#pa8b0174f4a)" style="fill: none; stroke: #b0b0b0; stroke-opacity: 0.3; stroke-width: 0.8; stroke-linecap: square"/>
     </g>
     <g id="line2d_32">
      <g>
       <use xlink:href="#m0e70340a4b" x="70.58" y="91.30907" style="stroke: #000000; stroke-width: 0.8"/>
      </g>
     </g>
     <g id="text_17">
      <!-- 1.1 V -->
      <g transform="translate(37.658125 95.108289) scale(0.1 -0.1)">
       <use xlink:href="#DejaVuSans-31"/>
       <use xlink:href="#DejaVuSans-2e" transform="translate(63.623047 0)"/>
       <use xlink:href="#DejaVuSans-31" transform="translate(95.410156 0)"/>
       <use xlink:href="#DejaVuSans-20" transform="translate(159.033203 0)"/>
       <use xlink:href="#DejaVuSans-56" transform="translate(190.820312 0)"/>
      </g>
     </g>
    </g>
    <g id="ytick_8">
     <g id="line2d_33">
      <path d="M 70.58 57.763605 
L 709.2 57.763605 
" clip-path="url(#pa8b0174f4a)" style="fill: none; stroke: #b0b0b0; stroke-opacity: 0.3; stroke-width: 0.8; stroke-linecap: square"/>
     </g>
     <g id="line2d_34">
      <g>
       <use xlink:href="#m0e70340a4b" x="70.58" y="57.763605" style="stroke: #000000; stroke-width: 0.8"/>
      </g>
     </g>
     <g id="text_18">
      <!-- 1.2 V -->
      <g transform="translate(37.658125 61.562824) scale(0.1 -0.1)">
       <use xlink:href="#DejaVuSans-31"/>
       <use xlink:href="#DejaVuSans-2e" transform="translate(63.623047 0)"/>
       <use xlink:href="#DejaVuSans-32" transform="translate(95.410156 0)"/>
       <use xlink:href="#DejaVuSans-20" transform="translate(159.033203 0)"/>
       <use xlink:href="#DejaVuSans-56" transform="translate(190.820312 0)"/>
      </g>
     </g>
    </g>
    <g id="ytick_9">
     <g id="line2d_35">
      <path d="M 70.58 24.21814 
L 709.2 24.21814 
" clip-path="url(#pa8b0174f4a)" style="fill: none; stroke: #b0b0b0; stroke-opacity: 0.3; stroke-width: 0.8; stroke-linecap: square"/>
     </g>
     <g id="line2d_36">
      <g>
       <use xlink:href="#m0e70340a4b" x="70.58" y="24.21814" style="stroke: #000000; stroke-width: 0.8"/>
      </g>
     </g>
     <g id="text_19">
      <!-- 1.3 V -->
      <g transform="translate(37.658125 28.017359) scale(0.1 -0.1)">
       <defs>
        <path id="DejaVuSans-33" d="M 2597 2516 
Q 3050 2419 3304 2112 
Q 3559 1806 3559 1356 
Q 3559 666 3084 287 
Q 2609 -91 1734 -91 
Q 1441 -91 1130 -33 
Q 819 25 488 141 
L 488 750 
Q 750 597 1062 519 
Q 1375 441 1716 441 
Q 2309 441 2620 675 
Q 2931 909 2931 1356 
Q 2931 1769 2642 2001 
Q 2353 2234 1838 2234 
L 1294 2234 
L 1294 2753 
L 1863 2753 
Q 2328 2753 2575 2939 
Q 2822 3125 2822 3475 
Q 2822 3834 2567 4026 
Q 2313 4219 1838 4219 
Q 1578 4219 1281 4162 
Q 984 4106 628 3988 
L 628 4550 
Q 988 4650 1302 4700 
Q 1616 4750 1894 4750 
Q 2613 4750 3031 4423 
Q 3450 4097 3450 3541 
Q 3450 3153 3228 2886 
Q 3006 2619 2597 2516 
z
" transform="scale(0.015625)"/>
       </defs>
       <use xlink:href="#DejaVuSans-31"/>
       <use xlink:href="#DejaVuSans-2e" transform="translate(63.623047 0)"/>
       <use xlink:href="#DejaVuSans-33" transform="translate(95.410156 0)"/>
       <use xlink:href="#DejaVuSans-20" transform="translate(159.033203 0)"/>
       <use xlink:href="#DejaVuSans-56" transform="translate(190.820312 0)"/>
      </g>
     </g>
    </g>
    <g id="text_20">
     <!-- [V] -->
     <g transform="translate(18.653437 165.721875) rotate(-90) scale(0.1 -0.1)">
      <use xlink:href="#DejaVuSans-5b"/>
      <use xlink:href="#DejaVuSans-56" transform="translate(39.013672 0)"/>
      <use xlink:href="#DejaVuSans-5d" transform="translate(107.421875 0)"/>
     </g>
    </g>
   </g>
   <g id="line2d_37">
    <path d="M 99.608182 158.4 
L 106.578431 118.523078 
L 110.353982 98.207211 
L 113.548679 82.249457 
L 116.162523 70.261843 
L 118.485939 60.54811 
L 120.809355 51.823469 
L 122.842344 45.070365 
L 124.584907 39.978394 
L 126.327469 35.559991 
L 127.779604 32.41077 
L 129.231739 29.759268 
L 130.683874 27.61596 
L 131.845582 26.272971 
L 133.00729 25.264081 
L 134.168999 24.591841 
L 135.04028 24.309641 
L 135.911561 24.218182 
L 136.782842 24.317593 
L 137.654123 24.607733 
L 138.525404 25.08819 
L 139.687112 26.023627 
L 140.84882 27.293792 
L 142.010528 28.895474 
L 143.462664 31.357524 
L 144.914799 34.321454 
L 146.366934 37.775555 
L 148.109496 42.548157 
L 149.852058 47.97971 
L 151.885048 55.107948 
L 153.918037 63.035719 
L 156.241453 72.996066 
L 158.855296 85.227969 
L 161.759567 99.909399 
L 165.244691 118.724478 
L 169.891523 145.136393 
L 180.05647 203.27861 
L 183.541594 221.774905 
L 186.445864 236.105531 
L 189.059708 247.96034 
L 191.383124 257.540696 
L 193.416113 265.104522 
L 195.449102 271.842399 
L 197.191664 276.92062 
L 198.934227 281.324709 
L 200.386362 284.461631 
L 201.838497 287.100548 
L 203.290632 289.231034 
L 204.45234 290.563629 
L 205.614048 291.562033 
L 206.775757 292.223721 
L 207.647038 292.49798 
L 208.518319 292.581487 
L 209.3896 292.474124 
L 210.260881 292.176043 
L 211.132162 291.68767 
L 212.29387 290.741733 
L 213.455578 289.461155 
L 214.617286 287.849173 
L 216.069422 285.37445 
L 217.521557 282.398114 
L 218.973692 278.931926 
L 220.716254 274.145306 
L 222.458816 268.70034 
L 224.491805 261.557322 
L 226.524795 253.615814 
L 228.848211 243.64118 
L 231.462054 231.395177 
L 234.366325 216.70074 
L 237.851449 197.874025 
L 242.498281 171.453746 
L 252.3728 114.915211 
L 255.857925 96.330029 
L 258.762195 81.902577 
L 261.376038 69.944269 
L 263.699455 60.260008 
L 266.022871 51.567751 
L 268.05586 44.845116 
L 269.798422 39.780659 
L 271.540985 35.390894 
L 272.99312 32.266279 
L 274.445255 29.639954 
L 275.89739 27.522295 
L 277.059098 26.200097 
L 278.220806 25.212182 
L 279.382514 24.561047 
L 280.253796 24.294731 
L 281.125077 24.219176 
L 281.996358 24.334491 
L 282.867639 24.64051 
L 283.73892 25.136799 
L 284.900628 26.093235 
L 286.062336 27.384223 
L 287.224044 29.006499 
L 288.676179 31.49389 
L 290.128315 34.482623 
L 291.58045 37.960891 
L 293.323012 42.761517 
L 295.065574 48.219882 
L 297.098563 55.377662 
L 299.131553 63.332889 
L 301.454969 73.321784 
L 304.068812 85.581858 
L 306.973082 100.289265 
L 310.458207 119.12757 
L 315.105039 145.556148 
L 324.979558 202.084233 
L 328.464683 220.656854 
L 331.368953 235.07058 
L 333.982796 247.014191 
L 336.306213 256.68368 
L 338.629629 265.359712 
L 340.662618 272.067087 
L 342.40518 277.11777 
L 344.147743 281.4932 
L 345.599878 284.6055 
L 347.052013 287.219226 
L 348.504148 289.324053 
L 349.665856 290.63585 
L 350.827564 291.613275 
L 351.989272 292.253854 
L 352.860553 292.512228 
L 353.731835 292.57983 
L 354.603116 292.456564 
L 355.474397 292.142606 
L 356.345678 291.638402 
L 357.507386 290.671471 
L 358.669094 289.370077 
L 359.830802 287.737509 
L 361.282937 285.237456 
L 362.735073 282.236333 
L 364.187208 278.745995 
L 365.92977 273.931374 
L 367.672332 268.459624 
L 369.705321 261.287099 
L 371.738311 253.318174 
L 374.061727 243.315041 
L 376.67557 231.040928 
L 379.57984 216.320587 
L 383.064965 197.470738 
L 387.711797 171.033927 
L 397.586316 114.516432 
L 401.071441 95.956417 
L 403.975711 81.556452 
L 406.589554 69.627568 
L 408.912971 59.972875 
L 410.94596 52.33806 
L 412.978949 45.524219 
L 414.721511 40.377373 
L 416.464073 35.901826 
L 417.916209 32.703485 
L 419.368344 30.001706 
L 420.820479 27.807165 
L 421.982187 26.422636 
L 423.143895 25.371826 
L 424.305603 24.657394 
L 425.176884 24.343436 
L 426.048165 24.22017 
L 426.919447 24.287772 
L 427.790728 24.546146 
L 428.662009 24.994923 
L 429.823717 25.888335 
L 430.985425 27.116818 
L 432.147133 28.677265 
L 433.308841 30.56573 
L 434.760976 33.380236 
L 436.213112 36.688632 
L 437.955674 41.292104 
L 439.698236 46.561672 
L 441.731225 53.511183 
L 443.764214 61.272588 
L 446.087631 71.059583 
L 448.701474 83.119943 
L 451.605744 97.642474 
L 455.090869 116.314294 
L 459.737701 142.62076 
L 470.483501 204.072651 
L 473.968626 222.517148 
L 476.872896 236.791666 
L 479.486739 248.586687 
L 481.810156 258.107147 
L 483.843145 265.613845 
L 485.876134 272.290652 
L 487.618696 277.313747 
L 489.361258 281.660474 
L 490.813394 284.748121 
L 492.265529 287.336631 
L 493.717664 289.415777 
L 494.879372 290.706765 
L 496.04108 291.663201 
L 497.202788 292.282665 
L 498.074069 292.525151 
L 498.94535 292.576847 
L 499.816631 292.43768 
L 500.687913 292.107847 
L 501.559194 291.587818 
L 502.720902 290.599903 
L 503.88261 289.277705 
L 505.044318 287.624568 
L 506.496453 285.09921 
L 507.948588 282.073328 
L 509.400724 278.558876 
L 511.143286 273.716301 
L 512.885848 268.217821 
L 514.918837 261.015858 
L 516.951826 253.019596 
L 519.275243 242.988062 
L 521.889086 230.685962 
L 524.793356 215.939862 
L 528.278481 197.067065 
L 533.21574 168.933043 
L 542.509405 115.714053 
L 546.284957 95.583422 
L 549.189227 81.211086 
L 551.80307 69.311744 
L 554.126486 59.686715 
L 556.159476 52.080239 
L 558.192465 45.296733 
L 559.935027 40.1773 
L 561.677589 35.730303 
L 563.129724 32.556506 
L 564.58186 29.879852 
L 566.033995 27.710917 
L 567.195703 26.347151 
L 568.357411 25.317296 
L 569.519119 24.623957 
L 570.3904 24.325876 
L 571.261681 24.218513 
L 572.132962 24.30202 
L 573.004243 24.576279 
L 573.875525 25.040898 
L 575.037233 25.955327 
L 576.198941 27.204657 
L 577.360649 28.785729 
L 578.812784 31.222413 
L 580.264919 34.161511 
L 581.717054 37.591412 
L 583.459617 42.335941 
L 585.202179 47.740629 
L 587.235168 54.839254 
L 589.268157 62.739492 
L 591.591574 72.67119 
L 594.205417 84.874804 
L 597.109687 99.530112 
L 600.594811 118.321777 
L 605.241644 144.716769 
L 615.40659 202.880922 
L 618.891714 221.402842 
L 621.795985 235.761311 
L 624.409828 247.645838 
L 626.733244 257.256 
L 628.766234 264.848277 
L 630.799223 271.616591 
L 632.541785 276.722299 
L 634.284347 281.155005 
L 635.736482 284.316518 
L 637.188617 286.980599 
L 638.640753 289.136723 
L 639.802461 290.490102 
L 640.964169 291.509475 
L 642.125877 292.192267 
L 642.997158 292.482407 
L 643.868439 292.581818 
L 644.73972 292.490359 
L 645.611001 292.208159 
L 646.482283 291.735621 
L 647.643991 290.810687 
L 648.805699 289.550938 
L 649.967407 287.959558 
L 651.419542 285.510188 
L 652.871677 282.558671 
L 654.323812 279.116666 
L 656.066375 274.358094 
L 657.808937 268.939967 
L 659.841926 261.826527 
L 661.874915 253.912513 
L 664.198331 243.966478 
L 666.812175 231.748704 
L 669.716445 217.080317 
L 673.201569 198.276922 
L 677.848402 171.873436 
L 680.171818 158.4 
L 680.171818 158.4 
" clip-path="url(#pa8b0174f4a)" style="fill: none; stroke: #0060a8; stroke-width: 1.5; stroke-linecap: square"/>
   </g>
   <g id="patch_3">
    <path d="M 70.58 306 
L 70.58 10.8 
" style="fill: none; stroke: #000000; stroke-width: 0.8; stroke-linejoin: miter; stroke-linecap: square"/>
   </g>
   <g id="patch_4">
    <path d="M 709.2 306 
L 709.2 10.8 
" style="fill: none; stroke: #000000; stroke-width: 0.8; stroke-linejoin: miter; stroke-linecap: square"/>
   </g>
   <g id="patch_5">
    <path d="M 70.58 306 
L 709.2 306 
" style="fill: none; stroke: #000000; stroke-width: 0.8; stroke-linejoin: miter; stroke-linecap: square"/>
   </g>
   <g id="patch_6">
    <path d="M 70.58 10.8 
L 709.2 10.8 
" style="fill: none; stroke: #000000; stroke-width: 0.8; stroke-linejoin: miter; stroke-linecap: square"/>
   </g>
   <g id="legend_1">
    <g id="patch_7">
     <path d="M 663.707656 26.674688 
L 704.3 26.674688 
Q 705.7 26.674688 705.7 25.274688 
L 705.7 15.7 
Q 705.7 14.3 704.3 14.3 
L 663.707656 14.3 
Q 662.307656 14.3 662.307656 15.7 
L 662.307656 25.274688 
Q 662.307656 26.674688 663.707656 26.674688 
z
" style="fill: #ffffff; opacity: 0.8; stroke: #cccccc; stroke-linejoin: miter"/>
    </g>
    <g id="line2d_38">
     <path d="M 665.107656 19.968906 
L 672.107656 19.968906 
L 679.107656 19.968906 
" style="fill: none; stroke: #0060a8; stroke-width: 1.5; stroke-linecap: square"/>
    </g>
    <g id="text_21">
     <!-- v(vp) -->
     <g transform="translate(684.707656 22.418906) scale(0.07 -0.07)">
      <defs>
       <path id="DejaVuSans-76" d="M 191 3500 
L 800 3500 
L 1894 563 
L 2988 3500 
L 3597 3500 
L 2284 0 
L 1503 0 
L 191 3500 
z
" transform="scale(0.015625)"/>
       <path id="DejaVuSans-28" d="M 1984 4856 
Q 1566 4138 1362 3434 
Q 1159 2731 1159 2009 
Q 1159 1288 1364 580 
Q 1569 -128 1984 -844 
L 1484 -844 
Q 1016 -109 783 600 
Q 550 1309 550 2009 
Q 550 2706 781 3412 
Q 1013 4119 1484 4856 
L 1984 4856 
z
" transform="scale(0.015625)"/>
       <path id="DejaVuSans-70" d="M 1159 525 
L 1159 -1331 
L 581 -1331 
L 581 3500 
L 1159 3500 
L 1159 2969 
Q 1341 3281 1617 3432 
Q 1894 3584 2278 3584 
Q 2916 3584 3314 3078 
Q 3713 2572 3713 1747 
Q 3713 922 3314 415 
Q 2916 -91 2278 -91 
Q 1894 -91 1617 61 
Q 1341 213 1159 525 
z
M 3116 1747 
Q 3116 2381 2855 2742 
Q 2594 3103 2138 3103 
Q 1681 3103 1420 2742 
Q 1159 2381 1159 1747 
Q 1159 1113 1420 752 
Q 1681 391 2138 391 
Q 2594 391 2855 752 
Q 3116 1113 3116 1747 
z
" transform="scale(0.015625)"/>
       <path id="DejaVuSans-29" d="M 513 4856 
L 1013 4856 
Q 1481 4119 1714 3412 
Q 1947 2706 1947 2009 
Q 1947 1309 1714 600 
Q 1481 -109 1013 -844 
L 513 -844 
Q 928 -128 1133 580 
Q 1338 1288 1338 2009 
Q 1338 2731 1133 3434 
Q 928 4138 513 4856 
z
" transform="scale(0.015625)"/>
      </defs>
      <use xlink:href="#DejaVuSans-76"/>
      <use xlink:href="#DejaVuSans-28" transform="translate(59.179688 0)"/>
      <use xlink:href="#DejaVuSans-76" transform="translate(98.193359 0)"/>
      <use xlink:href="#DejaVuSans-70" transform="translate(157.373047 0)"/>
      <use xlink:href="#DejaVuSans-29" transform="translate(220.849609 0)"/>
     </g>
    </g>
   </g>
  </g>
  <g id="text_22">
   <!-- v(vp): μ=900 mV σ=282.772 mV -->
   <g style="fill: #666666" transform="translate(7.2 355.152188) scale(0.06 -0.06)">
    <defs>
     <path id="DejaVuSans-3a" d="M 750 794 
L 1409 794 
L 1409 0 
L 750 0 
L 750 794 
z
M 750 3309 
L 1409 3309 
L 1409 2516 
L 750 2516 
L 750 3309 
z
" transform="scale(0.015625)"/>
     <path id="DejaVuSans-3bc" d="M 544 -1331 
L 544 3500 
L 1119 3500 
L 1119 1325 
Q 1119 872 1334 640 
Q 1550 409 1972 409 
Q 2434 409 2667 671 
Q 2900 934 2900 1459 
L 2900 3500 
L 3475 3500 
L 3475 806 
Q 3475 619 3529 530 
Q 3584 441 3700 441 
Q 3728 441 3778 458 
Q 3828 475 3916 513 
L 3916 50 
Q 3788 -22 3673 -56 
Q 3559 -91 3450 -91 
Q 3234 -91 3106 31 
Q 2978 153 2931 403 
Q 2775 156 2548 32 
Q 2322 -91 2016 -91 
Q 1697 -91 1473 31 
Q 1250 153 1119 397 
L 1119 -1331 
L 544 -1331 
z
" transform="scale(0.015625)"/>
     <path id="DejaVuSans-3d" d="M 678 2906 
L 4684 2906 
L 4684 2381 
L 678 2381 
L 678 2906 
z
M 678 1631 
L 4684 1631 
L 4684 1100 
L 678 1100 
L 678 1631 
z
" transform="scale(0.015625)"/>
     <path id="DejaVuSans-3c3" d="M 1959 3044 
Q 1484 3044 1228 2700 
Q 959 2341 959 1747 
Q 959 1119 1226 758 
Q 1494 397 1959 397 
Q 2419 397 2687 759 
Q 2956 1122 2956 1747 
Q 2956 2319 2688 2700 
Q 2441 3044 1959 3044 
z
M 1959 3500 
L 3869 3500 
L 3869 2925 
L 3225 2925 
Q 3566 2438 3566 1747 
Q 3566 888 3138 400 
Q 2709 -91 1959 -91 
Q 1206 -91 781 400 
Q 353 888 353 1747 
Q 353 2613 781 3097 
Q 1134 3500 1959 3500 
z
" transform="scale(0.015625)"/>
    </defs>
    <use xlink:href="#DejaVuSans-76"/>
    <use xlink:href="#DejaVuSans-28" transform="translate(59.179688 0)"/>
    <use xlink:href="#DejaVuSans-76" transform="translate(98.193359 0)"/>
    <use xlink:href="#DejaVuSans-70" transform="translate(157.373047 0)"/>
    <use xlink:href="#DejaVuSans-29" transform="translate(220.849609 0)"/>
    <use xlink:href="#DejaVuSans-3a" transform="translate(259.863281 0)"/>
    <use xlink:href="#DejaVuSans-20" transform="translate(293.554688 0)"/>
    <use xlink:href="#DejaVuSans-3bc" transform="translate(325.341797 0)"/>
    <use xlink:href="#DejaVuSans-3d" transform="translate(388.964844 0)"/>
    <use xlink:href="#DejaVuSans-39" transform="translate(472.753906 0)"/>
    <use xlink:href="#DejaVuSans-30" transform="translate(536.376953 0)"/>
    <use xlink:href="#DejaVuSans-30" transform="translate(600 0)"/>
    <use xlink:href="#DejaVuSans-20" transform="translate(663.623047 0)"/>
    <use xlink:href="#DejaVuSans-6d" transform="translate(695.410156 0)"/>
    <use xlink:href="#DejaVuSans-56" transform="translate(792.822266 0)"/>
    <use xlink:href="#DejaVuSans-20" transform="translate(861.230469 0)"/>
    <use xlink:href="#DejaVuSans-3c3" transform="translate(893.017578 0)"/>
    <use xlink:href="#DejaVuSans-3d" transform="translate(956.396484 0)"/>
    <use xlink:href="#DejaVuSans-32" transform="translate(1040.185547 0)"/>
    <use xlink:href="#DejaVuSans-38" transform="translate(1103.808594 0)"/>
    <use xlink:href="#DejaVuSans-32" transform="translate(1167.431641 0)"/>
    <use xlink:href="#DejaVuSans-2e" transform="translate(1231.054688 0)"/>
    <use xlink:href="#DejaVuSans-37" transform="translate(1262.841797 0)"/>
    <use xlink:href="#DejaVuSans-37" transform="translate(1326.464844 0)"/>
    <use xlink:href="#DejaVuSans-32" transform="translate(1390.087891 0)"/>
    <use xlink:href="#DejaVuSans-20" transform="translate(1453.710938 0)"/>
    <use xlink:href="#DejaVuSans-6d" transform="translate(1485.498047 0)"/>
    <use xlink:href="#DejaVuSans-56" transform="translate(1582.910156 0)"/>
   </g>
  </g>
 </g>
 <defs>
  <clipPath id="pa8b0174f4a">
   <rect x="70.58" y="10.8" width="638.62" height="295.2"/>
  </clipPath>
 </defs>
</svg>
